SplineFontDB: 3.0
FontName: aghtex_mathbf_light
FullName: aghtex_mathbf_light
FamilyName: aghtex_mathbf_light
Weight: Light
Copyright: Copyright (C) 2014 KM, 1997, 2009 American Mathematical Society (<http://www.ams.org>), with Reserved Font Name CMB10.
Version: 3.2.0.1
ItalicAngle: 0
UnderlinePosition: -100
UnderlineWidth: 50
Ascent: 819
Descent: 205
LayerCount: 2
Layer: 0 1 "+gMyXYgAA"  1
Layer: 1 1 "+Uk2XYgAA"  0
NeedsXUIDChange: 1
UniqueID: 5096646
FSType: 8
OS2Version: 1
OS2_WeightWidthSlopeOnly: 0
OS2_UseTypoMetrics: 0
CreationTime: 1344259763
ModificationTime: 1411970889
PfmFamily: 17
TTFWeight: 700
TTFWidth: 5
LineGap: 92
VLineGap: 0
OS2TypoAscent: 0
OS2TypoAOffset: 1
OS2TypoDescent: 0
OS2TypoDOffset: 1
OS2TypoLinegap: 92
OS2WinAscent: 0
OS2WinAOffset: 1
OS2WinDescent: 0
OS2WinDOffset: 1
HheadAscent: 0
HheadAOffset: 1
HheadDescent: 0
HheadDOffset: 1
OS2Vendor: 'PfEd'
MarkAttachClasses: 1
DEI: 91125
TtTable: prep
PUSHW_1
 511
SCANCTRL
PUSHB_1
 1
SCANTYPE
SVTCA[y-axis]
MPPEM
PUSHB_1
 8
LT
IF
PUSHB_2
 1
 1
INSTCTRL
EIF
PUSHB_2
 70
 6
CALL
IF
POP
PUSHB_1
 16
EIF
MPPEM
PUSHB_1
 20
GT
IF
POP
PUSHB_1
 128
EIF
SCVTCI
PUSHB_1
 6
CALL
NOT
IF
SVTCA[y-axis]
PUSHB_1
 3
DUP
RCVT
PUSHB_1
 3
CALL
WCVTP
PUSHB_1
 4
DUP
RCVT
PUSHB_3
 3
 27
 2
CALL
PUSHB_1
 3
CALL
WCVTP
SVTCA[x-axis]
PUSHB_1
 5
DUP
RCVT
PUSHB_1
 3
CALL
WCVTP
PUSHB_1
 6
DUP
RCVT
PUSHB_3
 5
 27
 2
CALL
PUSHB_2
 3
 70
SROUND
CALL
WCVTP
EIF
PUSHB_1
 20
CALL
EndTTInstrs
TtTable: fpgm
PUSHB_1
 0
FDEF
PUSHB_1
 0
SZP0
MPPEM
PUSHB_1
 42
LT
IF
PUSHB_1
 74
SROUND
EIF
PUSHB_1
 0
SWAP
MIAP[rnd]
RTG
PUSHB_1
 6
CALL
IF
RTDG
EIF
MPPEM
PUSHB_1
 42
LT
IF
RDTG
EIF
DUP
MDRP[rp0,rnd,grey]
PUSHB_1
 1
SZP0
MDAP[no-rnd]
RTG
ENDF
PUSHB_1
 1
FDEF
DUP
MDRP[rp0,min,white]
PUSHB_1
 12
CALL
ENDF
PUSHB_1
 2
FDEF
MPPEM
GT
IF
RCVT
SWAP
EIF
POP
ENDF
PUSHB_1
 3
FDEF
ROUND[Black]
RTG
DUP
PUSHB_1
 64
LT
IF
POP
PUSHB_1
 64
EIF
ENDF
PUSHB_1
 4
FDEF
PUSHB_1
 6
CALL
IF
POP
SWAP
POP
ROFF
IF
MDRP[rp0,min,rnd,black]
ELSE
MDRP[min,rnd,black]
EIF
ELSE

StartChar: A
Encoding: 65 65 0
Width: 755
VWidth: 1000
Flags: W
HStem: 3 44<35 118.84 181.019 259 407 490 635 720> 182 47<240 426> 678 20G<370 383.5>
LayerCount: 2
Fore
SplineSet
415 672 m 2,0,-1
 635 47 l 1,1,-1
 720 47 l 1,2,-1
 720 0 l 1,3,4
 684 3 684 3 570 3 c 0,5,6
 443 3 443 3 407 0 c 1,7,-1
 407 47 l 1,8,-1
 490 47 l 1,9,-1
 443 182 l 1,10,-1
 224 182 l 1,11,-1
 185 71 l 2,12,13
 181 59 l 1,14,15
 181 47 181 47 259 47 c 1,16,-1
 259 0 l 1,17,18
 187 3 187 3 141 3 c 0,19,20
 122 3 122 3 35 0 c 1,21,-1
 35 47 l 1,22,23
 73 47 73 47 93 49 c 0,24,25
 114 51 114 51 119 54.5 c 128,-1,26
 124 58 124 58 128 70 c 2,27,-1
 340 672 l 2,28,29
 346 690 346 690 354 694 c 128,-1,30
 362 698 362 698 378 698 c 0,31,32
 389 698 389 698 394 697 c 128,-1,33
 399 696 399 696 405 690 c 128,-1,34
 411 684 411 684 415 672 c 2,0,-1
333 493 m 1,35,-1
 240 229 l 1,36,-1
 426 229 l 1,37,-1
 333 493 l 1,35,-1
EndSplineSet
EndChar

StartChar: B
Encoding: 66 66 1
Width: 711
VWidth: 1000
Flags: W
HStem: 0 47<34 128 259 466.301> 339 36<259 437.956> 639 47<34 128 259 454.813>
VStem: 128 131<47 339 375 639> 485 142<436.604 595.169> 507 147<97.293 269.485>
LayerCount: 2
Fore
SplineSet
34 686 m 1,0,-1
 412 686 l 2,1,2
 515 686 515 686 571 636 c 128,-1,3
 627 586 627 586 627 514 c 0,4,5
 627 457 627 457 588 415 c 128,-1,6
 549 373 549 373 479 359 c 1,7,8
 564 348 564 348 609 300 c 128,-1,9
 654 252 654 252 654 186 c 0,10,11
 654 108 654 108 598 54 c 128,-1,12
 542 0 542 0 438 0 c 2,13,-1
 34 0 l 1,14,-1
 34 47 l 1,15,-1
 128 47 l 1,16,-1
 128 639 l 1,17,-1
 34 639 l 1,18,-1
 34 686 l 1,0,-1
259 375 m 1,19,-1
 376 375 l 2,20,21
 433 375 433 375 459 414 c 128,-1,22
 485 453 485 453 485 514 c 0,23,24
 485 639 485 639 399 639 c 2,25,-1
 259 639 l 1,26,-1
 259 375 l 1,19,-1
259 47 m 1,27,-1
 401 47 l 2,28,29
 458 47 458 47 485 92 c 0,30,31
 507 129 507 129 507 188 c 0,32,33
 507 252 507 252 486 292 c 1,34,35
 463 339 463 339 411 339 c 2,36,-1
 259 339 l 1,37,-1
 259 47 l 1,27,-1
EndSplineSet
EndChar

StartChar: C
Encoding: 67 67 2
Width: 722
VWidth: 1000
Flags: W
HStem: -11 47<328.825 515.027> 650 47<325.505 505.689>
VStem: 56 153<204.411 482.197> 618 47<139.706 244.388>
LayerCount: 2
Fore
SplineSet
665 669 m 2,0,-1
 665 454 l 2,1,2
 665 434 665 434 661 430 c 128,-1,3
 657 426 657 426 638 426 c 0,4,5
 628 426 628 426 624 426.5 c 128,-1,6
 620 427 620 427 616.5 430.5 c 128,-1,7
 613 434 613 434 612 442 c 0,8,9
 597 545 597 545 544.5 597.5 c 128,-1,10
 492 650 492 650 426 650 c 0,11,12
 315 650 315 650 256 568 c 0,13,14
 234 538 234 538 223 492.5 c 128,-1,15
 212 447 212 447 210.5 418 c 128,-1,16
 209 389 209 389 209 343 c 0,17,18
 209 267 209 267 217 218 c 128,-1,19
 225 169 225 169 250 128 c 0,20,21
 277 84 277 84 325 60 c 128,-1,22
 373 36 373 36 428 36 c 0,23,24
 499 36 499 36 556 87 c 128,-1,25
 613 138 613 138 618 231 c 0,26,27
 619 243 619 243 624 245.5 c 128,-1,28
 629 248 629 248 641 248 c 0,29,30
 655 248 655 248 660 244.5 c 128,-1,31
 665 241 665 241 665 227 c 0,32,33
 665 139 665 139 594 64 c 128,-1,34
 523 -11 523 -11 408 -11 c 0,35,36
 253 -11 253 -11 154.5 84 c 128,-1,37
 56 179 56 179 56 343 c 0,38,39
 56 508 56 508 155.5 602.5 c 128,-1,40
 255 697 255 697 407 697 c 0,41,42
 499 697 499 697 570 635 c 1,43,-1
 628 688 l 2,44,45
 638 697 638 697 647 697 c 0,46,47
 659 697 659 697 662 691.5 c 128,-1,48
 665 686 665 686 665 669 c 2,0,-1
EndSplineSet
EndChar

StartChar: D
Encoding: 68 68 3
Width: 766
VWidth: 1000
Flags: W
HStem: 0 47<34 128 264 464.962> 639 47<34 128 264 464.575>
VStem: 128 136<47 639> 563 147<194.585 485.757>
LayerCount: 2
Fore
SplineSet
34 686 m 1,0,-1
 406 686 l 2,1,2
 536 686 536 686 623 595 c 128,-1,3
 710 504 710 504 710 337 c 0,4,5
 710 177 710 177 623.5 88.5 c 128,-1,6
 537 0 537 0 406 0 c 2,7,-1
 34 0 l 1,8,-1
 34 47 l 1,9,-1
 128 47 l 1,10,-1
 128 639 l 1,11,-1
 34 639 l 1,12,-1
 34 686 l 1,0,-1
264 47 m 1,13,-1
 365 47 l 2,14,15
 482 47 482 47 531 132 c 1,16,17
 563 191 563 191 563 337 c 0,18,19
 563 492 563 492 531 549 c 0,20,21
 482 639 482 639 364 639 c 2,22,-1
 264 639 l 1,23,-1
 264 47 l 1,13,-1
EndSplineSet
EndChar

StartChar: E
Encoding: 69 69 4
Width: 655
VWidth: 1000
Flags: W
HStem: 0 47<34 128 270 484.173> 329 47<270 367.301> 633 47<34 128 270 475.278>
VStem: 128 142<47 329 376 633> 387 47<212 309.81 395.571 493>
LayerCount: 2
Fore
SplineSet
627 274 m 1,0,-1
 581 0 l 1,1,-1
 34 0 l 1,2,-1
 34 47 l 1,3,-1
 128 47 l 1,4,-1
 128 633 l 1,5,-1
 34 633 l 1,6,-1
 34 680 l 1,7,-1
 568 680 l 1,8,-1
 599 439 l 1,9,-1
 552 439 l 1,10,11
 546 481 546 481 542 503 c 128,-1,12
 538 525 538 525 526 554.5 c 128,-1,13
 514 584 514 584 496 598 c 128,-1,14
 478 612 478 612 446 622.5 c 128,-1,15
 414 633 414 633 369 633 c 2,16,-1
 270 633 l 1,17,-1
 270 376 l 1,18,-1
 292 376 l 2,19,20
 354 376 354 376 370.5 402.5 c 128,-1,21
 387 429 387 429 387 493 c 1,22,-1
 434 493 l 1,23,-1
 434 212 l 1,24,-1
 387 212 l 1,25,26
 387 245 387 245 385 262 c 128,-1,27
 383 279 383 279 374 297 c 128,-1,28
 365 315 365 315 345 322 c 128,-1,29
 325 329 325 329 292 329 c 2,30,-1
 270 329 l 1,31,-1
 270 47 l 1,32,-1
 373 47 l 2,33,34
 414 47 414 47 444.5 54 c 128,-1,35
 475 61 475 61 496 77.5 c 128,-1,36
 517 94 517 94 530.5 111 c 128,-1,37
 544 128 544 128 554 158.5 c 128,-1,38
 564 189 564 189 569 211.5 c 128,-1,39
 574 234 574 234 580 274 c 1,40,-1
 627 274 l 1,0,-1
EndSplineSet
EndChar

StartChar: F
Encoding: 70 70 5
Width: 627
VWidth: 1000
Flags: W
HStem: 3 44<34 128 270 388> 317 47<270 362.219> 633 47<34 128 270 466.776>
VStem: 128 142<47 317 364 633> 381 47<200 298.49 382.51 481> 531.5 53.5<439 494.725>
LayerCount: 2
Fore
SplineSet
554 680 m 1,0,-1
 585 439 l 1,1,-1
 538 439 l 1,2,3
 534 469 534 469 531.5 485 c 128,-1,4
 529 501 529 501 523 525 c 128,-1,5
 517 549 517 549 510 562 c 128,-1,6
 503 575 503 575 489.5 591 c 128,-1,7
 476 607 476 607 459 614.5 c 128,-1,8
 442 622 442 622 417 627.5 c 128,-1,9
 392 633 392 633 360 633 c 2,10,-1
 270 633 l 1,11,-1
 270 364 l 1,12,-1
 287 364 l 2,13,14
 349 364 349 364 365 390 c 128,-1,15
 381 416 381 416 381 481 c 1,16,-1
 428 481 l 1,17,-1
 428 200 l 1,18,-1
 381 200 l 1,19,20
 381 265 381 265 365 291 c 128,-1,21
 349 317 349 317 287 317 c 2,22,-1
 270 317 l 1,23,-1
 270 47 l 1,24,-1
 388 47 l 1,25,-1
 388 0 l 1,26,27
 347 3 347 3 203 3 c 0,28,29
 69 3 69 3 34 0 c 1,30,-1
 34 47 l 1,31,-1
 128 47 l 1,32,-1
 128 633 l 1,33,-1
 34 633 l 1,34,-1
 34 680 l 1,35,-1
 554 680 l 1,0,-1
EndSplineSet
EndChar

StartChar: G
Encoding: 71 71 6
Width: 786
VWidth: 1000
Flags: W
HStem: -11 47<329.693 493.99> 0 21G<648.5 659> 229 44<399 524 666 735> 650 47<326.01 506.246>
VStem: 56 153<204.329 481.961> 524 142<66.0881 229>
LayerCount: 2
Fore
SplineSet
666 229 m 1,0,-1
 666 28 l 2,1,2
 666 0 666 0 652 0 c 0,3,4
 645 0 645 0 609.5 17.5 c 128,-1,5
 574 35 574 35 555 52 c 1,6,7
 539 29 539 29 502 9 c 128,-1,8
 465 -11 465 -11 408 -11 c 0,9,10
 255 -11 255 -11 155.5 83.5 c 128,-1,11
 56 178 56 178 56 343 c 0,12,13
 56 507 56 507 155 602 c 128,-1,14
 254 697 254 697 408 697 c 0,15,16
 501 697 501 697 571 635 c 1,17,-1
 629 688 l 2,18,19
 639 697 639 697 648 697 c 0,20,21
 660 697 660 697 663 691.5 c 128,-1,22
 666 686 666 686 666 669 c 2,23,-1
 666 454 l 2,24,25
 666 434 666 434 662 430 c 128,-1,26
 658 426 658 426 639 426 c 0,27,28
 629 426 629 426 625 426.5 c 128,-1,29
 621 427 621 427 617.5 430.5 c 128,-1,30
 614 434 614 434 613 442 c 0,31,32
 598 546 598 546 545 598 c 128,-1,33
 492 650 492 650 427 650 c 0,34,35
 309 650 309 650 249 557 c 0,36,37
 209 495 209 495 209 343 c 0,38,39
 209 194 209 194 250 128 c 0,40,41
 282 78 282 78 332 57 c 128,-1,42
 382 36 382 36 429 36 c 0,43,44
 448 36 448 36 467 41.5 c 128,-1,45
 486 47 486 47 505 69.5 c 128,-1,46
 524 92 524 92 524 128 c 2,47,-1
 524 229 l 1,48,-1
 399 229 l 1,49,-1
 399 276 l 1,50,51
 443 273 443 273 586 273 c 0,52,53
 698 273 698 273 735 276 c 1,54,-1
 735 229 l 1,55,-1
 666 229 l 1,0,-1
EndSplineSet
EndChar

StartChar: H
Encoding: 72 72 7
Width: 783
VWidth: 1000
Flags: W
HStem: 0 47<34 128 270 364 418 512 654 748> 333 47<270 512> 639 47<34 128 270 364 418 512 654 748>
VStem: 128 142<47 333 380 639> 512 142<47 333 380 639>
LayerCount: 2
Fore
SplineSet
654 639 m 1,0,-1
 654 47 l 1,1,-1
 748 47 l 1,2,-1
 748 0 l 1,3,4
 713 3 713 3 583 3 c 128,-1,5
 453 3 453 3 418 0 c 1,6,-1
 418 47 l 1,7,-1
 512 47 l 1,8,-1
 512 333 l 1,9,-1
 270 333 l 1,10,-1
 270 47 l 1,11,-1
 364 47 l 1,12,-1
 364 0 l 1,13,14
 329 3 329 3 199 3 c 128,-1,15
 69 3 69 3 34 0 c 1,16,-1
 34 47 l 1,17,-1
 128 47 l 1,18,-1
 128 639 l 1,19,-1
 34 639 l 1,20,-1
 34 686 l 1,21,22
 69 683 69 683 199 683 c 128,-1,23
 329 683 329 683 364 686 c 1,24,-1
 364 639 l 1,25,-1
 270 639 l 1,26,-1
 270 380 l 1,27,-1
 512 380 l 1,28,-1
 512 639 l 1,29,-1
 418 639 l 1,30,-1
 418 686 l 1,31,32
 453 683 453 683 583 683 c 128,-1,33
 713 683 713 683 748 686 c 1,34,-1
 748 639 l 1,35,-1
 654 639 l 1,0,-1
EndSplineSet
EndChar

StartChar: I
Encoding: 73 73 8
Width: 397
VWidth: 1000
Flags: W
HStem: 3 44<28 127 269 368> 639 44<28 127 269 368>
VStem: 127 142<47 639>
LayerCount: 2
Fore
SplineSet
269 639 m 1,0,-1
 269 47 l 1,1,-1
 368 47 l 1,2,-1
 368 0 l 1,3,4
 332 3 332 3 198 3 c 128,-1,5
 64 3 64 3 28 0 c 1,6,-1
 28 47 l 1,7,-1
 127 47 l 1,8,-1
 127 639 l 1,9,-1
 28 639 l 1,10,-1
 28 686 l 1,11,12
 64 683 64 683 198 683 c 128,-1,13
 332 683 332 683 368 686 c 1,14,-1
 368 639 l 1,15,-1
 269 639 l 1,0,-1
EndSplineSet
EndChar

StartChar: J
Encoding: 74 74 9
Width: 516
VWidth: 1000
Flags: W
HStem: -11 36<103.938 217.85> 639 44<129 252 388 459>
VStem: 0 153<59.8252 169.733> 252 136<69.6622 639>
LayerCount: 2
Fore
SplineSet
388 639 m 1,0,-1
 388 149 l 2,1,2
 388 74 388 74 329 31.5 c 128,-1,3
 270 -11 270 -11 176 -11 c 0,4,5
 99 -11 99 -11 49.5 24 c 128,-1,6
 0 59 0 59 0 114 c 0,7,8
 0 151 0 151 23 171 c 128,-1,9
 46 191 46 191 77 191 c 0,10,11
 106 191 106 191 129.5 171 c 128,-1,12
 153 151 153 151 153 114 c 0,13,14
 153 92 153 92 142 74.5 c 128,-1,15
 131 57 131 57 121.5 50.5 c 128,-1,16
 112 44 112 44 103 41 c 1,17,18
 134 25 134 25 171 25 c 0,19,20
 206 25 206 25 229 54.5 c 128,-1,21
 252 84 252 84 252 147 c 2,22,-1
 252 639 l 1,23,-1
 129 639 l 1,24,-1
 129 686 l 1,25,26
 170 683 170 683 312 683 c 0,27,28
 422 683 422 683 459 686 c 1,29,-1
 459 639 l 1,30,-1
 388 639 l 1,0,-1
EndSplineSet
EndChar

StartChar: K
Encoding: 75 75 10
Width: 783
VWidth: 1000
Flags: W
HStem: 0 47<34 128 270 364 448 511.984 657.001 741> 639 47<34 128 270 364 505 568.215 626.955 727>
VStem: 128 142<47 266 332 639>
LayerCount: 2
Fore
SplineSet
429 423 m 1,0,-1
 657 66 l 2,1,2
 662 58 662 58 666 54.5 c 128,-1,3
 670 51 670 51 682 49 c 128,-1,4
 694 47 694 47 718 47 c 2,5,-1
 741 47 l 1,6,-1
 741 0 l 1,7,8
 698 3 698 3 607 3 c 0,9,10
 483 3 483 3 448 0 c 1,11,-1
 448 47 l 1,12,13
 512 47 512 47 512 58 c 0,14,15
 512 61 512 61 506 69 c 2,16,-1
 338 333 l 1,17,-1
 270 266 l 1,18,-1
 270 47 l 1,19,-1
 364 47 l 1,20,-1
 364 0 l 1,21,22
 329 3 329 3 199 3 c 128,-1,23
 69 3 69 3 34 0 c 1,24,-1
 34 47 l 1,25,-1
 128 47 l 1,26,-1
 128 639 l 1,27,-1
 34 639 l 1,28,-1
 34 686 l 1,29,30
 69 683 69 683 199 683 c 128,-1,31
 329 683 329 683 364 686 c 1,32,-1
 364 639 l 1,33,-1
 270 639 l 1,34,-1
 270 332 l 1,35,-1
 560 618 l 2,36,37
 562 620 562 620 569 629 c 1,38,39
 544 639 544 639 505 639 c 1,40,-1
 505 686 l 1,41,42
 542 683 542 683 635 683 c 0,43,44
 682 683 682 683 727 686 c 1,45,-1
 727 639 l 1,46,47
 670 639 670 639 654.5 634 c 128,-1,48
 639 629 639 629 617 608 c 2,49,-1
 429 423 l 1,0,-1
EndSplineSet
EndChar

StartChar: L
Encoding: 76 76 11
Width: 600
VWidth: 1000
Flags: W
HStem: 0 47<34 128 270 422.589> 639 44<34 128 270 388>
VStem: 128 142<47 639> 505 52<210.644 274>
LayerCount: 2
Fore
SplineSet
557 274 m 1,0,-1
 526 0 l 1,1,-1
 34 0 l 1,2,-1
 34 47 l 1,3,-1
 128 47 l 1,4,-1
 128 639 l 1,5,-1
 34 639 l 1,6,-1
 34 686 l 1,7,8
 69 683 69 683 203 683 c 0,9,10
 347 683 347 683 388 686 c 1,11,-1
 388 639 l 1,12,-1
 270 639 l 1,13,-1
 270 47 l 1,14,-1
 336 47 l 2,15,16
 372 47 372 47 400.5 58 c 128,-1,17
 429 69 429 69 446.5 90.5 c 128,-1,18
 464 112 464 112 476.5 133 c 128,-1,19
 489 154 489 154 495.5 184 c 128,-1,20
 502 214 502 214 505 231.5 c 128,-1,21
 508 249 508 249 510 274 c 1,22,-1
 557 274 l 1,0,-1
EndSplineSet
EndChar

StartChar: M
Encoding: 77 77 12
Width: 950
VWidth: 1000
Flags: W
HStem: 0 47<34 124.903 184.613 275 602 696 821 915> 639 47<34 128 821 915>
VStem: 128 53<55.6127 613> 696 125<47 629>
LayerCount: 2
Fore
SplineSet
475 158 m 1,0,-1
 666 661 l 2,1,2
 672 678 672 678 680 682 c 128,-1,3
 688 686 688 686 707 686 c 2,4,-1
 915 686 l 1,5,-1
 915 639 l 1,6,-1
 821 639 l 1,7,-1
 821 47 l 1,8,-1
 915 47 l 1,9,-1
 915 0 l 1,10,11
 880 3 880 3 758 3 c 0,12,13
 637 3 637 3 602 0 c 1,14,-1
 602 47 l 1,15,-1
 696 47 l 1,16,-1
 696 629 l 1,17,-1
 695 629 l 1,18,-1
 465 25 l 2,19,20
 461 16 461 16 459.5 12.5 c 128,-1,21
 458 9 458 9 451.5 4.5 c 128,-1,22
 445 0 445 0 436 0 c 0,23,24
 426 0 426 0 420 4 c 128,-1,25
 414 8 414 8 411.5 12 c 128,-1,26
 409 16 409 16 406 25 c 2,27,-1
 182 613 l 1,28,-1
 181 613 l 1,29,-1
 181 76 l 2,30,31
 181 59 181 59 184.5 55.5 c 128,-1,32
 188 52 188 52 206 50 c 0,33,34
 227 47 227 47 255 47 c 2,35,-1
 275 47 l 1,36,-1
 275 0 l 1,37,38
 167 3 167 3 154 3 c 0,39,40
 145 3 145 3 34 0 c 1,41,-1
 34 47 l 1,42,-1
 54 47 l 2,43,44
 82 47 82 47 104 50 c 0,45,46
 122 52 122 52 125 55.5 c 128,-1,47
 128 59 128 59 128 76 c 2,48,-1
 128 639 l 1,49,-1
 34 639 l 1,50,-1
 34 686 l 1,51,-1
 243 686 l 2,52,53
 263 686 263 686 270 681.5 c 128,-1,54
 277 677 277 677 284 660 c 2,55,-1
 475 158 l 1,0,-1
EndSplineSet
EndChar

StartChar: N
Encoding: 78 78 13
Width: 783
VWidth: 1000
Flags: W
HStem: 0 47<34 124.903 184.613 275> 639 47<34 128 507 597.387 657.097 748>
VStem: 128 53<55.6127 589> 601 53<225 630.387>
LayerCount: 2
Fore
SplineSet
277 671 m 2,0,-1
 601 225 l 1,1,-1
 601 610 l 2,2,3
 601 627 601 627 597.5 630.5 c 128,-1,4
 594 634 594 634 576 636 c 0,5,6
 555 639 555 639 527 639 c 2,7,-1
 507 639 l 1,8,-1
 507 686 l 1,9,10
 615 683 615 683 628 683 c 0,11,12
 637 683 637 683 748 686 c 1,13,-1
 748 639 l 1,14,-1
 728 639 l 2,15,16
 700 639 700 639 678 636 c 0,17,18
 660 634 660 634 657 630.5 c 128,-1,19
 654 627 654 627 654 610 c 2,20,-1
 654 32 l 2,21,22
 654 12 654 12 650 6 c 128,-1,23
 646 0 646 0 627 0 c 0,24,25
 609 0 609 0 600 13 c 2,26,-1
 181 589 l 1,27,-1
 181 76 l 2,28,29
 181 59 181 59 184.5 55.5 c 128,-1,30
 188 52 188 52 206 50 c 0,31,32
 227 47 227 47 255 47 c 2,33,-1
 275 47 l 1,34,-1
 275 0 l 1,35,36
 167 3 167 3 154 3 c 0,37,38
 145 3 145 3 34 0 c 1,39,-1
 34 47 l 1,40,-1
 54 47 l 2,41,42
 82 47 82 47 104 50 c 0,43,44
 122 52 122 52 125 55.5 c 128,-1,45
 128 59 128 59 128 76 c 2,46,-1
 128 639 l 1,47,-1
 34 639 l 1,48,-1
 34 686 l 1,49,-1
 242 686 l 2,50,51
 258 686 258 686 263.5 684 c 128,-1,52
 269 682 269 682 277 671 c 2,0,-1
EndSplineSet
EndChar

StartChar: O
Encoding: 79 79 14
Width: 750
VWidth: 1000
Flags: W
HStem: -11 42<304.695 442.372> 657 40<304.366 444.478>
VStem: 56 153<193.751 488.868> 540 153<193.049 487.246>
LayerCount: 2
Fore
SplineSet
693 339 m 0,0,1
 693 175 693 175 604 82 c 128,-1,2
 515 -11 515 -11 374 -11 c 0,3,4
 237 -11 237 -11 146.5 81 c 128,-1,5
 56 173 56 173 56 339 c 0,6,7
 56 507 56 507 145.5 602 c 128,-1,8
 235 697 235 697 375 697 c 0,9,10
 512 697 512 697 602.5 603 c 128,-1,11
 693 509 693 509 693 339 c 0,0,1
375 31 m 0,12,13
 417 31 417 31 454 59 c 128,-1,14
 491 87 491 87 510 134 c 0,15,16
 530 183 530 183 535 231 c 128,-1,17
 540 279 540 279 540 353 c 0,18,19
 540 488 540 488 513 553 c 0,20,21
 492 603 492 603 455 630 c 128,-1,22
 418 657 418 657 374 657 c 0,23,24
 335 657 335 657 297.5 633 c 128,-1,25
 260 609 260 609 237 557 c 0,26,27
 209 492 209 492 209 353 c 0,28,29
 209 202 209 202 241 130 c 0,30,31
 261 85 261 85 296 58 c 128,-1,32
 331 31 331 31 375 31 c 0,12,13
EndSplineSet
EndChar

StartChar: P
Encoding: 80 80 15
Width: 683
VWidth: 1000
Flags: W
HStem: 3 44<34 128 270 364> 302 41<270 436.875> 639 47<34 128 264 441.126>
VStem: 128 136<47 302 343 639> 473 153<402.438 581.361>
LayerCount: 2
Fore
SplineSet
270 302 m 1,0,-1
 270 47 l 1,1,-1
 364 47 l 1,2,-1
 364 0 l 1,3,4
 329 3 329 3 199 3 c 128,-1,5
 69 3 69 3 34 0 c 1,6,-1
 34 47 l 1,7,-1
 128 47 l 1,8,-1
 128 639 l 1,9,-1
 34 639 l 1,10,-1
 34 686 l 1,11,-1
 393 686 l 2,12,13
 501 686 501 686 563.5 631 c 128,-1,14
 626 576 626 576 626 491 c 0,15,16
 626 404 626 404 562 353 c 128,-1,17
 498 302 498 302 402 302 c 2,18,-1
 270 302 l 1,0,-1
264 639 m 1,19,-1
 264 343 l 1,20,-1
 352 343 l 2,21,22
 387 343 387 343 411 351 c 128,-1,23
 435 359 435 359 447 369.5 c 128,-1,24
 459 380 459 380 465 403 c 128,-1,25
 471 426 471 426 472 442 c 128,-1,26
 473 458 473 458 473 491 c 0,27,28
 473 525 473 525 472 541 c 128,-1,29
 471 557 471 557 465 580 c 128,-1,30
 459 603 459 603 447 613 c 128,-1,31
 435 623 435 623 411 631 c 128,-1,32
 387 639 387 639 352 639 c 2,33,-1
 264 639 l 1,19,-1
EndSplineSet
EndChar

StartChar: Q
Encoding: 81 81 16
Width: 750
VWidth: 1000
Flags: W
HStem: -194 153<540.51 642.372> -11 40<331.375 445.46> 119 36<336.066 419.969> 657 40<306.794 444.145>
VStem: 56 147<192.452 487.938> 287 36<60.0631 105.879> 546 147<196.581 485.856> 663 36<-29.6353 17.9932>
LayerCount: 2
Fore
SplineSet
514 18 m 1,0,1
 529 -9 529 -9 545 -23 c 128,-1,2
 561 -37 561 -37 569.5 -39 c 128,-1,3
 578 -41 578 -41 592 -41 c 0,4,5
 657 -41 657 -41 663 -3 c 0,6,7
 666 18 666 18 681 18 c 0,8,9
 699 18 699 18 699 -10 c 0,10,11
 699 -30 699 -30 695 -55 c 128,-1,12
 691 -80 691 -80 680 -114.5 c 128,-1,13
 669 -149 669 -149 642.5 -171.5 c 128,-1,14
 616 -194 616 -194 578 -194 c 0,15,16
 550 -194 550 -194 530 -183 c 128,-1,17
 510 -172 510 -172 498 -157.5 c 128,-1,18
 486 -143 486 -143 477.5 -113 c 128,-1,19
 469 -83 469 -83 465 -62.5 c 128,-1,20
 461 -42 461 -42 456 -2 c 1,21,22
 429 -11 429 -11 375 -11 c 0,23,24
 235 -11 235 -11 145.5 81.5 c 128,-1,25
 56 174 56 174 56 339 c 0,26,27
 56 507 56 507 145.5 602 c 128,-1,28
 235 697 235 697 375 697 c 0,29,30
 512 697 512 697 602.5 603 c 128,-1,31
 693 509 693 509 693 339 c 0,32,33
 693 297 693 297 686 256.5 c 128,-1,34
 679 216 679 216 661 169.5 c 128,-1,35
 643 123 643 123 605.5 83 c 128,-1,36
 568 43 568 43 514 18 c 1,0,1
288 60 m 1,37,38
 287 64 287 64 287 73 c 0,39,40
 287 107 287 107 312.5 131 c 128,-1,41
 338 155 338 155 375 155 c 0,42,43
 438 155 438 155 481 78 c 1,44,45
 511 109 511 109 526.5 163 c 128,-1,46
 542 217 542 217 544 251.5 c 128,-1,47
 546 286 546 286 546 340 c 0,48,49
 546 475 546 475 520 542 c 0,50,51
 497 600 497 600 457.5 628.5 c 128,-1,52
 418 657 418 657 374 657 c 0,53,54
 334 657 334 657 292.5 629.5 c 128,-1,55
 251 602 251 602 226 534 c 0,56,57
 203 469 203 469 203 340 c 0,58,59
 203 292 203 292 205.5 259.5 c 128,-1,60
 208 227 208 227 215.5 186.5 c 128,-1,61
 223 146 223 146 241 114 c 128,-1,62
 259 82 259 82 288 60 c 1,37,38
446 49 m 1,63,64
 430 119 430 119 376 119 c 0,65,66
 352 119 352 119 337.5 105 c 128,-1,67
 323 91 323 91 323 73 c 0,68,69
 323 65 323 65 325.5 57 c 128,-1,70
 328 49 328 49 340.5 39 c 128,-1,71
 353 29 353 29 375 29 c 0,72,73
 414 29 414 29 446 49 c 1,63,64
EndSplineSet
EndChar

StartChar: R
Encoding: 82 82 17
Width: 759
VWidth: 1000
Flags: W
HStem: -11 36<627.11 691.674> 3 44<34 128 264 358> 325 36<264 405.823> 639 47<34 128 264 445.867>
VStem: 128 136<47 325 361 639> 481 153<425.811 579.425> 709 47<43.5662 111.842>
LayerCount: 2
Fore
SplineSet
482 339 m 1,0,1
 570 301 570 301 585 219 c 0,2,3
 586 217 586 217 595 145 c 0,4,5
 599 114 599 114 602 98.5 c 128,-1,6
 605 83 605 83 611.5 62.5 c 128,-1,7
 618 42 618 42 629 33.5 c 128,-1,8
 640 25 640 25 657 25 c 0,9,10
 678 25 678 25 692 43 c 128,-1,11
 706 61 706 61 709 94 c 0,12,13
 710 107 710 107 714.5 112 c 128,-1,14
 719 117 719 117 732 117 c 0,15,16
 756 117 756 117 756 94 c 0,17,18
 756 86 756 86 752.5 72.5 c 128,-1,19
 749 59 749 59 740 38 c 128,-1,20
 731 17 731 17 707.5 3 c 128,-1,21
 684 -11 684 -11 650 -11 c 0,22,23
 484 -11 484 -11 451 80 c 0,24,25
 444 102 444 102 444 169 c 0,26,27
 444 222 444 222 441 243.5 c 128,-1,28
 438 265 438 265 424 287 c 0,29,30
 400 325 400 325 350 325 c 2,31,-1
 264 325 l 1,32,-1
 264 47 l 1,33,-1
 358 47 l 1,34,-1
 358 0 l 1,35,36
 323 3 323 3 196 3 c 128,-1,37
 69 3 69 3 34 0 c 1,38,-1
 34 47 l 1,39,-1
 128 47 l 1,40,-1
 128 639 l 1,41,-1
 34 639 l 1,42,-1
 34 686 l 1,43,-1
 367 686 l 2,44,45
 491 686 491 686 562.5 633 c 128,-1,46
 634 580 634 580 634 500 c 0,47,48
 634 446 634 446 593.5 401.5 c 128,-1,49
 553 357 553 357 482 339 c 1,0,1
344 361 m 2,50,51
 384 361 384 361 411 369.5 c 128,-1,52
 438 378 438 378 451.5 389 c 128,-1,53
 465 400 465 400 472 422 c 128,-1,54
 479 444 479 444 480 458 c 128,-1,55
 481 472 481 472 481 500 c 0,56,57
 481 535 481 535 478.5 553 c 128,-1,58
 476 571 476 571 464.5 594.5 c 128,-1,59
 453 618 453 618 423.5 628.5 c 128,-1,60
 394 639 394 639 346 639 c 2,61,-1
 264 639 l 1,62,-1
 264 361 l 1,63,-1
 344 361 l 2,50,51
EndSplineSet
EndChar

StartChar: S
Encoding: 83 83 18
Width: 555
VWidth: 1000
Flags: W
HStem: -11 47<196.752 366.965> 654 43<187.592 338.344>
VStem: 56 97<480.533 597.725> 56 47<121.613 227.988> 402 97<94.8235 230.582> 424 48<463.159 557.464>
LayerCount: 2
Fore
SplineSet
472 669 m 2,0,-1
 472 486 l 2,1,2
 472 468 472 468 468.5 463 c 128,-1,3
 465 458 465 458 448 458 c 0,4,5
 436 458 436 458 431 461 c 128,-1,6
 426 464 426 464 424 475 c 0,7,8
 400 654 400 654 252 654 c 0,9,10
 201 654 201 654 177 622.5 c 128,-1,11
 153 591 153 591 153 549 c 0,12,13
 153 514 153 514 171 486.5 c 128,-1,14
 189 459 189 459 216 449 c 0,15,16
 223 447 223 447 289 430 c 0,17,18
 341 417 341 417 363 410 c 128,-1,19
 385 403 385 403 410 387 c 128,-1,20
 435 371 435 371 455 343 c 0,21,22
 499 283 499 283 499 203 c 0,23,24
 499 110 499 110 447.5 49.5 c 128,-1,25
 396 -11 396 -11 302 -11 c 0,26,27
 202 -11 202 -11 135 40 c 1,28,-1
 107 12 l 2,29,30
 89 -5 89 -5 85 -8 c 128,-1,31
 81 -11 81 -11 74 -11 c 0,32,33
 62 -11 62 -11 59 -5.5 c 128,-1,34
 56 0 56 0 56 17 c 2,35,-1
 56 199 l 2,36,37
 56 218 56 218 59.5 223 c 128,-1,38
 63 228 63 228 80 228 c 0,39,40
 88 228 88 228 92.5 227 c 128,-1,41
 97 226 97 226 99.5 223 c 128,-1,42
 102 220 102 220 102.5 216.5 c 128,-1,43
 103 213 103 213 103 205 c 0,44,45
 105 156 105 156 126 120.5 c 128,-1,46
 147 85 147 85 178.5 67.5 c 128,-1,47
 210 50 210 50 240 43 c 128,-1,48
 270 36 270 36 301 36 c 0,49,50
 356 36 356 36 379 71.5 c 128,-1,51
 402 107 402 107 402 153 c 0,52,53
 402 236 402 236 336 266 c 1,54,55
 317 272 317 272 268 283 c 1,56,57
 192 302 192 302 162 315 c 128,-1,58
 132 328 132 328 104 361 c 0,59,60
 56 420 56 420 56 497 c 0,61,62
 56 584 56 584 108 640.5 c 128,-1,63
 160 697 160 697 251 697 c 0,64,65
 335 697 335 697 394 647 c 1,66,-1
 421 674 l 2,67,68
 439 691 439 691 443 694 c 128,-1,69
 447 697 447 697 454 697 c 0,70,71
 466 697 466 697 469 691.5 c 128,-1,72
 472 686 472 686 472 669 c 2,0,-1
EndSplineSet
EndChar

StartChar: T
Encoding: 84 84 19
Width: 694
VWidth: 1000
Flags: W
HStem: 3 44<142 276 418 552> 628 47<137.63 276 418 552.622>
VStem: 36 47<434 516.261> 276 142<47 628> 604 53<434 516.261>
LayerCount: 2
Fore
SplineSet
636 675 m 1,0,-1
 657 434 l 1,1,-1
 610 434 l 1,2,3
 607 477 607 477 604 498 c 128,-1,4
 601 519 601 519 592 549 c 128,-1,5
 583 579 583 579 569 593 c 128,-1,6
 555 607 555 607 529 617.5 c 128,-1,7
 503 628 503 628 466 628 c 2,8,-1
 418 628 l 1,9,-1
 418 47 l 1,10,-1
 552 47 l 1,11,-1
 552 0 l 1,12,13
 504 3 504 3 347 3 c 128,-1,14
 190 3 190 3 142 0 c 1,15,-1
 142 47 l 1,16,-1
 276 47 l 1,17,-1
 276 628 l 1,18,-1
 227 628 l 2,19,20
 200 628 200 628 179 622.5 c 128,-1,21
 158 617 158 617 144 609.5 c 128,-1,22
 130 602 130 602 119.5 585.5 c 128,-1,23
 109 569 109 569 103 557 c 128,-1,24
 97 545 97 545 93 520 c 128,-1,25
 89 495 89 495 87.5 480 c 128,-1,26
 86 465 86 465 83 434 c 1,27,-1
 36 434 l 1,28,-1
 57 675 l 1,29,-1
 636 675 l 1,0,-1
EndSplineSet
EndChar

StartChar: U
Encoding: 85 85 20
Width: 769
VWidth: 1000
Flags: W
HStem: -11 47<328.194 500.46> 639 47<34 128 270 364 493 583.387 643.097 734>
VStem: 128 142<125.889 639> 587 53<122.357 630.387>
LayerCount: 2
Fore
SplineSet
640 610 m 2,0,-1
 640 227 l 2,1,2
 640 124 640 124 577.5 56.5 c 128,-1,3
 515 -11 515 -11 404 -11 c 0,4,5
 277 -11 277 -11 202.5 56.5 c 128,-1,6
 128 124 128 124 128 229 c 2,7,-1
 128 639 l 1,8,-1
 34 639 l 1,9,-1
 34 686 l 1,10,11
 69 683 69 683 199 683 c 128,-1,12
 329 683 329 683 364 686 c 1,13,-1
 364 639 l 1,14,-1
 270 639 l 1,15,-1
 270 210 l 2,16,17
 270 36 270 36 408 36 c 0,18,19
 481 36 481 36 534 81.5 c 128,-1,20
 587 127 587 127 587 230 c 2,21,-1
 587 610 l 2,22,23
 587 627 587 627 583.5 630.5 c 128,-1,24
 580 634 580 634 562 636 c 0,25,26
 541 639 541 639 513 639 c 2,27,-1
 493 639 l 1,28,-1
 493 686 l 1,29,30
 601 683 601 683 614 683 c 0,31,32
 623 683 623 683 734 686 c 1,33,-1
 734 639 l 1,34,-1
 714 639 l 2,35,36
 686 639 686 639 664 636 c 0,37,38
 646 634 646 634 643 630.5 c 128,-1,39
 640 627 640 627 640 610 c 2,0,-1
EndSplineSet
EndChar

StartChar: V
Encoding: 86 86 21
Width: 755
VWidth: 1000
Flags: W
HStem: -8 21G<367.5 384> 639 44<22 103 249 331 514 590.212 652.644 733>
LayerCount: 2
Fore
SplineSet
644 616 m 2,0,-1
 415 17 l 2,1,2
 411 7 411 7 408 2.5 c 128,-1,3
 405 -2 405 -2 398 -5 c 128,-1,4
 391 -8 391 -8 377 -8 c 0,5,6
 358 -8 358 -8 351.5 -2.5 c 128,-1,7
 345 3 345 3 340 17 c 2,8,-1
 103 639 l 1,9,-1
 22 639 l 1,10,-1
 22 686 l 1,11,12
 58 683 58 683 169 683 c 0,13,14
 295 683 295 683 331 686 c 1,15,-1
 331 639 l 1,16,-1
 249 639 l 1,17,-1
 422 184 l 1,18,-1
 591 629 l 1,19,20
 566 639 566 639 514 639 c 1,21,-1
 514 686 l 1,22,23
 598 683 598 683 631 683 c 128,-1,24
 664 683 664 683 733 686 c 1,25,-1
 733 639 l 1,26,27
 694 639 694 639 675.5 636.5 c 128,-1,28
 657 634 657 634 652.5 630 c 128,-1,29
 648 626 648 626 644 616 c 2,0,-1
EndSplineSet
EndChar

StartChar: W
Encoding: 87 87 22
Width: 1033
VWidth: 1000
Flags: W
HStem: -8 21G<331 351.5 684.5 700.5> 639 47<21 96 240 324 374 449 593 677 793 881.117 946.416 1011>
LayerCount: 2
Fore
SplineSet
928 616 m 2,0,-1
 726 17 l 2,1,2
 722 4 722 4 715 -2 c 128,-1,3
 708 -8 708 -8 693 -8 c 0,4,5
 676 -8 676 -8 670 -2.5 c 128,-1,6
 664 3 664 3 659 18 c 2,7,-1
 516 441 l 1,8,-1
 373 17 l 2,9,10
 364 -8 364 -8 339 -8 c 0,11,12
 323 -8 323 -8 316.5 -2.5 c 128,-1,13
 310 3 310 3 306 17 c 2,14,-1
 96 639 l 1,15,-1
 21 639 l 1,16,-1
 21 686 l 1,17,18
 60 683 60 683 163 683 c 0,19,20
 288 683 288 683 324 686 c 1,21,-1
 324 639 l 1,22,-1
 240 639 l 1,23,-1
 387 205 l 1,24,-1
 491 515 l 1,25,-1
 449 639 l 1,26,-1
 374 639 l 1,27,-1
 374 686 l 1,28,29
 413 683 413 683 516 683 c 0,30,31
 641 683 641 683 677 686 c 1,32,-1
 677 639 l 1,33,-1
 593 639 l 1,34,-1
 740 205 l 1,35,-1
 882 628 l 1,36,37
 854 639 854 639 793 639 c 1,38,-1
 793 686 l 1,39,40
 834 683 834 683 915 683 c 0,41,42
 962 683 962 683 1011 686 c 1,43,-1
 1011 639 l 1,44,45
 959 639 959 639 946 634.5 c 128,-1,46
 933 630 933 630 928 616 c 2,0,-1
EndSplineSet
EndChar

StartChar: X
Encoding: 88 88 23
Width: 755
VWidth: 1000
Flags: W
HStem: 3 44<29 140.209 205.943 289 415 488 642 727> 639 47<42 127 281 354 424 507.026 578.676 684>
LayerCount: 2
Fore
SplineSet
426 401 m 1,0,-1
 642 47 l 1,1,-1
 727 47 l 1,2,-1
 727 0 l 1,3,4
 690 3 690 3 579 3 c 0,5,6
 451 3 451 3 415 0 c 1,7,-1
 415 47 l 1,8,-1
 488 47 l 1,9,-1
 347 279 l 1,10,-1
 205 58 l 1,11,12
 235 47 235 47 289 47 c 1,13,-1
 289 0 l 1,14,15
 252 3 252 3 151 3 c 0,16,17
 146 3 146 3 29 0 c 1,18,-1
 29 47 l 1,19,-1
 53 47 l 2,20,21
 116 47 116 47 141 57 c 1,22,-1
 316 329 l 1,23,-1
 127 639 l 1,24,-1
 42 639 l 1,25,-1
 42 686 l 1,26,27
 78 683 78 683 190 683 c 0,28,29
 318 683 318 683 354 686 c 1,30,-1
 354 639 l 1,31,-1
 281 639 l 1,32,-1
 395 451 l 1,33,-1
 501 616 l 1,34,-1
 508 628 l 1,35,36
 477 639 477 639 424 639 c 1,37,-1
 424 686 l 1,38,39
 460 683 460 683 562 683 c 0,40,41
 567 683 567 683 684 686 c 1,42,-1
 684 639 l 1,43,-1
 660 639 l 2,44,45
 630 639 630 639 606 636 c 0,46,47
 584 634 584 634 578.5 631 c 128,-1,48
 573 628 573 628 565 617 c 2,49,-1
 426 401 l 1,0,-1
EndSplineSet
EndChar

StartChar: Y
Encoding: 89 89 24
Width: 755
VWidth: 1000
Flags: W
HStem: 3 44<215 309 445 540> 639 47<16 101 258 333 518 586.245 652.16 739>
VStem: 309 136<47 274>
LayerCount: 2
Fore
SplineSet
642 618 m 2,0,-1
 445 274 l 1,1,-1
 445 47 l 1,2,-1
 540 47 l 1,3,-1
 540 0 l 1,4,5
 505 3 505 3 377 3 c 0,6,7
 250 3 250 3 215 0 c 1,8,-1
 215 47 l 1,9,-1
 309 47 l 1,10,-1
 309 274 l 1,11,-1
 101 639 l 1,12,-1
 16 639 l 1,13,-1
 16 686 l 1,14,15
 52 683 52 683 166 683 c 0,16,17
 297 683 297 683 333 686 c 1,18,-1
 333 639 l 1,19,-1
 258 639 l 1,20,-1
 425 346 l 1,21,-1
 587 629 l 1,22,23
 563 639 563 639 518 639 c 1,24,-1
 518 686 l 1,25,26
 569 683 569 683 637 683 c 0,27,28
 670 683 670 683 739 686 c 1,29,-1
 739 639 l 1,30,31
 698 639 698 639 677.5 636.5 c 128,-1,32
 657 634 657 634 652 630.5 c 128,-1,33
 647 627 647 627 642 618 c 2,0,-1
EndSplineSet
EndChar

StartChar: Z
Encoding: 90 90 25
Width: 611
VWidth: 1000
Flags: W
HStem: 0 51<214 424.176> 639 47<197.178 397>
VStem: 69 47<445 553.824> 511 49<170.905 284>
LayerCount: 2
Fore
SplineSet
547 637 m 2,0,-1
 214 51 l 1,1,-1
 314 51 l 2,2,3
 344 51 344 51 369.5 56 c 128,-1,4
 395 61 395 61 413.5 68.5 c 128,-1,5
 432 76 432 76 447 89.5 c 128,-1,6
 462 103 462 103 471.5 114.5 c 128,-1,7
 481 126 481 126 488.5 146 c 128,-1,8
 496 166 496 166 500 179 c 128,-1,9
 504 192 504 192 507 215 c 128,-1,10
 510 238 510 238 511 249.5 c 128,-1,11
 512 261 512 261 513 284 c 1,12,-1
 560 284 l 1,13,-1
 542 0 l 1,14,-1
 88 0 l 2,15,16
 75 0 75 0 69.5 1 c 128,-1,17
 64 2 64 2 60 7.5 c 128,-1,18
 56 13 56 13 56 26 c 0,19,20
 56 40 56 40 63 52 c 2,21,-1
 397 639 l 1,22,-1
 303 639 l 2,23,24
 262 639 262 639 230 630 c 128,-1,25
 198 621 198 621 178.5 603 c 128,-1,26
 159 585 159 585 146.5 567.5 c 128,-1,27
 134 550 134 550 128 524 c 128,-1,28
 122 498 122 498 119.5 483 c 128,-1,29
 117 468 117 468 116 445 c 1,30,-1
 69 445 l 1,31,-1
 81 686 l 1,32,-1
 522 686 l 2,33,34
 535 686 535 686 540.5 685 c 128,-1,35
 546 684 546 684 550 678.5 c 128,-1,36
 554 673 554 673 554 661 c 128,-1,37
 554 649 554 649 547 637 c 2,0,-1
EndSplineSet
EndChar

StartChar: a
Encoding: 97 97 26
Width: 486
VWidth: 1000
Flags: W
HStem: -6 36<168.417 260.764> 0 47<418.549 480.359> 233 32<230.31 303> 298 134.5<76.1102 158.771> 417 36<158 268.625>
VStem: 28 117<51.7196 175.202> 56 125<315.019 410.28> 303 114<65.1892 233 265 378.657>
LayerCount: 2
Fore
SplineSet
417 300 m 2,0,-1
 417 84 l 2,1,2
 417 71 417 71 418.5 65 c 128,-1,3
 420 59 420 59 431 53.5 c 128,-1,4
 442 48 442 48 464 47 c 0,5,6
 471 46 471 46 474.5 45 c 128,-1,7
 478 44 478 44 481.5 38.5 c 128,-1,8
 485 33 485 33 485 24 c 0,9,10
 485 13 485 13 480.5 7.5 c 128,-1,11
 476 2 476 2 470.5 1 c 128,-1,12
 465 0 465 0 453 0 c 2,13,-1
 411 0 l 2,14,15
 379 0 379 0 358.5 8 c 128,-1,16
 338 16 338 16 331 30 c 128,-1,17
 324 44 324 44 322 53 c 128,-1,18
 320 62 320 62 320 74 c 1,19,20
 283 -6 283 -6 197 -6 c 0,21,22
 132 -6 132 -6 80 23 c 128,-1,23
 28 52 28 52 28 109 c 0,24,25
 28 183 28 183 107 223 c 128,-1,26
 186 263 186 263 303 265 c 1,27,-1
 303 301 l 2,28,29
 303 354 303 354 281.5 385.5 c 128,-1,30
 260 417 260 417 217 417 c 0,31,32
 190 417 190 417 158 411 c 1,33,34
 181 388 181 388 181 361 c 0,35,36
 181 331 181 331 162 314.5 c 128,-1,37
 143 298 143 298 118 298 c 0,38,39
 95 298 95 298 75.5 314.5 c 128,-1,40
 56 331 56 331 56 361 c 0,41,42
 56 386 56 386 70.5 405 c 128,-1,43
 85 424 85 424 103.5 432.5 c 128,-1,44
 122 441 122 441 148.5 446 c 128,-1,45
 175 451 175 451 189.5 452 c 128,-1,46
 204 453 204 453 220 453 c 0,47,48
 312 453 312 453 364.5 412 c 128,-1,49
 417 371 417 371 417 300 c 2,0,-1
303 138 m 2,50,-1
 303 233 l 1,51,52
 289 232 289 232 276 230 c 128,-1,53
 263 228 263 228 237 220 c 128,-1,54
 211 212 211 212 192.5 200 c 128,-1,55
 174 188 174 188 159.5 164 c 128,-1,56
 145 140 145 140 145 109 c 128,-1,57
 145 78 145 78 162.5 54 c 128,-1,58
 180 30 180 30 209 30 c 0,59,60
 240 30 240 30 271.5 55.5 c 128,-1,61
 303 81 303 81 303 138 c 2,50,-1
EndSplineSet
EndChar

StartChar: b
Encoding: 98 98 27
Width: 555
VWidth: 1000
Flags: W
HStem: -6 36<237.74 345.711> 414 36<242.306 353.506> 639 47<16 74.1627> 674 20G<16 193>
VStem: 85 108<68.9492 374.91 408 633.323> 394 128<111.009 336.228>
LayerCount: 2
Fore
SplineSet
193 694 m 1,0,-1
 193 408 l 1,1,2
 246 450 246 450 314 450 c 0,3,4
 402 450 402 450 462 390.5 c 128,-1,5
 522 331 522 331 522 222 c 0,6,7
 522 115 522 115 459.5 54.5 c 128,-1,8
 397 -6 397 -6 302 -6 c 0,9,10
 230 -6 230 -6 181 47 c 1,11,-1
 133 0 l 1,12,-1
 85 0 l 1,13,-1
 85 600 l 2,14,15
 85 628 85 628 74.5 633.5 c 128,-1,16
 64 639 64 639 16 639 c 1,17,-1
 16 686 l 1,18,-1
 193 694 l 1,0,-1
199 357 m 1,19,-1
 199 89 l 1,20,21
 238 30 238 30 294 30 c 0,22,23
 321 30 321 30 344.5 46 c 128,-1,24
 368 62 368 62 379 88 c 0,25,26
 394 126 394 126 394 223 c 0,27,28
 394 319 394 319 382 352 c 1,29,30
 373 381 373 381 352 397.5 c 128,-1,31
 331 414 331 414 304 414 c 0,32,33
 243 414 243 414 199 357 c 1,19,-1
EndSplineSet
EndChar

StartChar: c
Encoding: 99 99 28
Width: 444
VWidth: 1000
Flags: W
HStem: -6 40<210.967 326.244> 413 40<200.742 298.368>
VStem: 33 128<111.331 334.373> 279 125<315.019 407.435> 368 47<74.2053 128.936>
LayerCount: 2
Fore
SplineSet
299 408 m 1,0,1
 272 413 272 413 254 413 c 0,2,3
 232 413 232 413 215 404 c 128,-1,4
 198 395 198 395 188.5 377.5 c 128,-1,5
 179 360 179 360 173 344 c 128,-1,6
 167 328 167 328 164.5 302.5 c 128,-1,7
 162 277 162 277 161.5 263 c 128,-1,8
 161 249 161 249 161 227 c 0,9,10
 161 136 161 136 180 95 c 0,11,12
 208 34 208 34 265 34 c 0,13,14
 339 34 339 34 368 118 c 0,15,16
 371 127 371 127 375 129 c 128,-1,17
 379 131 379 131 391 131 c 0,18,19
 415 131 415 131 415 117 c 0,20,21
 415 112 415 112 411 100 c 128,-1,22
 407 88 407 88 395 69 c 128,-1,23
 383 50 383 50 365.5 34 c 128,-1,24
 348 18 348 18 317 6 c 128,-1,25
 286 -6 286 -6 248 -6 c 0,26,27
 156 -6 156 -6 94.5 54.5 c 128,-1,28
 33 115 33 115 33 222 c 0,29,30
 33 327 33 327 92.5 390 c 128,-1,31
 152 453 152 453 251 453 c 0,32,33
 316 453 316 453 360 430 c 128,-1,34
 404 407 404 407 404 361 c 0,35,36
 404 331 404 331 385 314.5 c 128,-1,37
 366 298 366 298 341 298 c 0,38,39
 318 298 318 298 298.5 314.5 c 128,-1,40
 279 331 279 331 279 361 c 0,41,42
 279 390 279 390 299 408 c 1,0,1
EndSplineSet
EndChar

StartChar: d
Encoding: 100 100 29
Width: 555
VWidth: 1000
Flags: W
HStem: -6 36<201.095 311.103> 0 47<480.837 539> 414 36<207.237 320.47> 639 47<293 351.163> 674 20G<293 470>
VStem: 33 128<107.698 332.529> 356 114<66 385.417 412 633.323>
LayerCount: 2
Fore
SplineSet
293 686 m 1,0,-1
 470 694 l 1,1,-1
 470 86 l 2,2,3
 470 58 470 58 480.5 52.5 c 128,-1,4
 491 47 491 47 539 47 c 1,5,-1
 539 0 l 1,6,-1
 356 -6 l 1,7,-1
 356 35 l 1,8,9
 306 -6 306 -6 242 -6 c 0,10,11
 153 -6 153 -6 93 53.5 c 128,-1,12
 33 113 33 113 33 222 c 0,13,14
 33 329 33 329 95.5 389.5 c 128,-1,15
 158 450 158 450 252 450 c 0,16,17
 313 450 313 450 362 412 c 1,18,-1
 362 600 l 2,19,20
 362 628 362 628 351.5 633.5 c 128,-1,21
 341 639 341 639 293 639 c 1,22,-1
 293 686 l 1,0,-1
356 94 m 1,23,-1
 356 361 l 1,24,25
 318 414 318 414 262 414 c 0,26,27
 231 414 231 414 207.5 396.5 c 128,-1,28
 184 379 184 379 173 349 c 0,29,30
 161 314 161 314 161 221 c 0,31,32
 161 127 161 127 172 93 c 0,33,34
 194 30 194 30 251 30 c 0,35,36
 315 30 315 30 356 94 c 1,23,-1
EndSplineSet
EndChar

StartChar: e
Encoding: 101 101 30
Width: 466
VWidth: 1000
Flags: W
HStem: -6 40<204.269 338.414> 218 33<156 343> 417 36<199.598 298.598>
VStem: 28 128.5<116.976 218 251 334.932> 343 95<251 355.733> 390 48<77.8169 131.389>
LayerCount: 2
Fore
SplineSet
406 218 m 2,0,-1
 156 218 l 1,1,2
 156 197 156 197 156.5 183.5 c 128,-1,3
 157 170 157 170 160 145 c 128,-1,4
 163 120 163 120 170 103.5 c 128,-1,5
 177 87 177 87 189 69.5 c 128,-1,6
 201 52 201 52 221 43 c 128,-1,7
 241 34 241 34 268 34 c 0,8,9
 303 34 303 34 338.5 54 c 128,-1,10
 374 74 374 74 390 116 c 0,11,12
 394 128 394 128 398 131.5 c 128,-1,13
 402 135 402 135 414 135 c 0,14,15
 438 135 438 135 438 117 c 0,16,17
 438 107 438 107 428.5 88.5 c 128,-1,18
 419 70 419 70 399.5 48 c 128,-1,19
 380 26 380 26 343 10 c 128,-1,20
 306 -6 306 -6 259 -6 c 0,21,22
 158 -6 158 -6 93 56.5 c 128,-1,23
 28 119 28 119 28 225 c 0,24,25
 28 329 28 329 88.5 391 c 128,-1,26
 149 453 149 453 247 453 c 0,27,28
 302 453 302 453 341.5 434 c 128,-1,29
 381 415 381 415 401 383 c 128,-1,30
 421 351 421 351 429.5 317.5 c 128,-1,31
 438 284 438 284 438 247 c 0,32,33
 438 227 438 227 432 222.5 c 128,-1,34
 426 218 426 218 406 218 c 2,0,-1
156 251 m 1,35,-1
 343 251 l 1,36,37
 343 270 343 270 341 288.5 c 128,-1,38
 339 307 339 307 331.5 341 c 128,-1,39
 324 375 324 375 302.5 396 c 128,-1,40
 281 417 281 417 248 417 c 0,41,42
 159 417 159 417 156 251 c 1,35,-1
EndSplineSet
EndChar

StartChar: f
Encoding: 102 102 31
Width: 305
VWidth: 1000
Flags: W
HStem: 3 44<27 96 204 291> 397 47<38 96 204 297> 664 36<234.563 298.851>
VStem: 96 108<47 397 444 626.056> 275 123<568.019 661.922>
LayerCount: 2
Fore
SplineSet
204 397 m 1,0,-1
 204 47 l 1,1,-1
 291 47 l 1,2,-1
 291 0 l 1,3,4
 255 3 255 3 153 3 c 0,5,6
 132 3 132 3 27 0 c 1,7,-1
 27 47 l 1,8,-1
 96 47 l 1,9,-1
 96 397 l 1,10,-1
 38 397 l 1,11,-1
 38 444 l 1,12,-1
 96 444 l 1,13,-1
 96 545 l 2,14,15
 96 624 96 624 154 662 c 128,-1,16
 212 700 212 700 291 700 c 0,17,18
 342 700 342 700 370 674 c 128,-1,19
 398 648 398 648 398 613 c 0,20,21
 398 584 398 584 379.5 567.5 c 128,-1,22
 361 551 361 551 336 551 c 0,23,24
 313 551 313 551 294 567 c 128,-1,25
 275 583 275 583 275 613 c 0,26,27
 275 646 275 646 299 663 c 1,28,29
 295 664 295 664 288 664 c 128,-1,30
 281 664 281 664 274 663 c 128,-1,31
 267 662 267 662 252 656 c 128,-1,32
 237 650 237 650 226 638.5 c 128,-1,33
 215 627 215 627 206.5 603 c 128,-1,34
 198 579 198 579 198 546 c 2,35,-1
 198 444 l 1,36,-1
 297 444 l 1,37,-1
 297 397 l 1,38,-1
 204 397 l 1,0,-1
EndSplineSet
EndChar

StartChar: g
Encoding: 103 103 32
Width: 500
VWidth: 1000
Flags: W
HStem: -201 36<160.267 338.715> -13 96<121.474 367.195> 154 36<172.593 270.253> 354 101<411.377 470.559> 414 36<173.978 270.871>
VStem: 26 86<-128.146 -22.7832> 42 111<224.167 378.936> 56 49<96.0589 178.337> 291 111<225.73 378.957> 387 86<-126.746 -33.5473> 399 86<366.892 414.719>
LayerCount: 2
Fore
SplineSet
157 83 m 1,0,-1
 215 83 l 2,1,2
 254 83 254 83 275 82 c 128,-1,3
 296 81 296 81 332 77.5 c 128,-1,4
 368 74 368 74 388.5 64 c 128,-1,5
 409 54 409 54 431 37.5 c 128,-1,6
 453 21 453 21 463 -6.5 c 128,-1,7
 473 -34 473 -34 473 -71 c 0,8,9
 473 -127 473 -127 416.5 -164 c 128,-1,10
 360 -201 360 -201 249 -201 c 0,11,12
 130 -201 130 -201 78 -161.5 c 128,-1,13
 26 -122 26 -122 26 -75 c 0,14,15
 26 -16 26 -16 97 11 c 1,16,17
 56 45 56 45 56 104 c 0,18,19
 56 152 56 152 90 196 c 1,20,21
 42 234 42 234 42 302 c 0,22,23
 42 365 42 365 89 407.5 c 128,-1,24
 136 450 136 450 222 450 c 0,25,26
 294 450 294 450 340 418 c 1,27,28
 381 455 381 455 429 455 c 0,29,30
 457 455 457 455 471 436.5 c 128,-1,31
 485 418 485 418 485 397 c 0,32,33
 485 379 485 379 473 366.5 c 128,-1,34
 461 354 461 354 442 354 c 128,-1,35
 423 354 423 354 411 366 c 128,-1,36
 399 378 399 378 399 397 c 0,37,38
 399 406 399 406 402 415 c 1,39,40
 379 408 379 408 365 399 c 1,41,42
 402 358 402 358 402 302 c 0,43,44
 402 240 402 240 355.5 197 c 128,-1,45
 309 154 309 154 222 154 c 0,46,47
 160 154 160 154 114 179 c 1,48,49
 105 170 105 170 105 144 c 128,-1,50
 105 118 105 118 120.5 101.5 c 128,-1,51
 136 85 136 85 157 83 c 1,0,-1
222 190 m 0,52,53
 242 190 242 190 255.5 197.5 c 128,-1,54
 269 205 269 205 276 214 c 128,-1,55
 283 223 283 223 286.5 241 c 128,-1,56
 290 259 290 259 290.5 270 c 128,-1,57
 291 281 291 281 291 302 c 0,58,59
 291 328 291 328 289.5 342 c 128,-1,60
 288 356 288 356 282.5 375.5 c 128,-1,61
 277 395 277 395 261.5 404.5 c 128,-1,62
 246 414 246 414 222 414 c 0,63,64
 202 414 202 414 188.5 406.5 c 128,-1,65
 175 399 175 399 168 390 c 128,-1,66
 161 381 161 381 157.5 363 c 128,-1,67
 154 345 154 345 153.5 334 c 128,-1,68
 153 323 153 323 153 302 c 0,69,70
 153 276 153 276 154.5 262 c 128,-1,71
 156 248 156 248 161.5 228.5 c 128,-1,72
 167 209 167 209 182.5 199.5 c 128,-1,73
 198 190 198 190 222 190 c 0,52,53
267 -13 m 2,74,-1
 173 -13 l 2,75,76
 112 -13 112 -13 112 -73 c 0,77,78
 112 -112 112 -112 146 -138.5 c 128,-1,79
 180 -165 180 -165 250 -165 c 0,80,81
 321 -165 321 -165 354 -137.5 c 128,-1,82
 387 -110 387 -110 387 -75 c 0,83,84
 387 -13 387 -13 267 -13 c 2,74,-1
EndSplineSet
EndChar

StartChar: h
Encoding: 104 104 33
Width: 555
VWidth: 1000
Flags: W
HStem: 0 47<24 93 207 276 305 370 484 553> 414 36<277.302 354.367> 639 47<24 82.1627> 674 20G<24 201>
VStem: 93 108<47 337.328 359 633.323> 370 114<47 402.078>
LayerCount: 2
Fore
SplineSet
484 309 m 2,0,-1
 484 47 l 1,1,-1
 553 47 l 1,2,-1
 553 0 l 1,3,4
 493 3 493 3 428 3 c 0,5,6
 413 3 413 3 305 0 c 1,7,-1
 305 47 l 1,8,-1
 370 47 l 1,9,-1
 370 321 l 2,10,11
 370 362 370 362 363.5 384 c 128,-1,12
 357 406 357 406 350.5 410 c 128,-1,13
 344 414 344 414 334 414 c 0,14,15
 289 414 289 414 248 373 c 128,-1,16
 207 332 207 332 207 256 c 2,17,-1
 207 47 l 1,18,-1
 276 47 l 1,19,-1
 276 0 l 1,20,21
 192 3 192 3 150 3 c 128,-1,22
 108 3 108 3 24 0 c 1,23,-1
 24 47 l 1,24,-1
 93 47 l 1,25,-1
 93 600 l 2,26,27
 93 628 93 628 82.5 633.5 c 128,-1,28
 72 639 72 639 24 639 c 1,29,-1
 24 686 l 1,30,-1
 201 694 l 1,31,-1
 201 359 l 1,32,-1
 202 359 l 1,33,34
 252 450 252 450 349 450 c 0,35,36
 426 450 426 450 455 412 c 128,-1,37
 484 374 484 374 484 309 c 2,0,-1
EndSplineSet
EndChar

StartChar: i
Encoding: 105 105 34
Width: 277
VWidth: 1000
Flags: W
HStem: 0 47<26 95 203 265> 395 47<29 84.6787> 539 156<80.7209 189.279>
VStem: 57 156<562.917 671.083> 95 108<47 389.323>
LayerCount: 2
Fore
SplineSet
213 617 m 128,-1,1
 213 584 213 584 190 561.5 c 128,-1,2
 167 539 167 539 135 539 c 128,-1,3
 103 539 103 539 80 562 c 128,-1,4
 57 585 57 585 57 617 c 128,-1,5
 57 649 57 649 80 672 c 128,-1,6
 103 695 103 695 135 695 c 128,-1,7
 167 695 167 695 190 672.5 c 128,-1,0
 213 650 213 650 213 617 c 128,-1,1
29 442 m 1,8,-1
 203 450 l 1,9,-1
 203 47 l 1,10,-1
 265 47 l 1,11,-1
 265 0 l 1,12,13
 157 3 157 3 148 3 c 0,14,15
 119 3 119 3 26 0 c 1,16,-1
 26 47 l 1,17,-1
 95 47 l 1,18,-1
 95 356 l 2,19,20
 95 384 95 384 85 389.5 c 128,-1,21
 75 395 75 395 29 395 c 1,22,-1
 29 442 l 1,8,-1
EndSplineSet
EndChar

StartChar: j
Encoding: 106 106 35
Width: 305
VWidth: 1000
Flags: W
HStem: -200 36<37.5891 108.151> 395 47<58 133.207> 539 156<109.721 218.279>
VStem: -62 125<-156.24 -64.5647> 86 156<562.721 671.279> 134 108<-124.677 393.062>
LayerCount: 2
Fore
SplineSet
242 617 m 128,-1,1
 242 585 242 585 219 562 c 128,-1,2
 196 539 196 539 164 539 c 128,-1,3
 132 539 132 539 109 562 c 128,-1,4
 86 585 86 585 86 617 c 128,-1,5
 86 649 86 649 109 672 c 128,-1,6
 132 695 132 695 164 695 c 128,-1,7
 196 695 196 695 219 672 c 128,-1,0
 242 649 242 649 242 617 c 128,-1,1
58 442 m 1,8,-1
 242 450 l 1,9,-1
 242 -42 l 2,10,11
 242 -115 242 -115 190.5 -157.5 c 128,-1,12
 139 -200 139 -200 71 -200 c 0,13,14
 15 -200 15 -200 -23.5 -175.5 c 128,-1,15
 -62 -151 -62 -151 -62 -109 c 0,16,17
 -62 -82 -62 -82 -44.5 -64 c 128,-1,18
 -27 -46 -27 -46 1 -46 c 0,19,20
 28 -46 28 -46 45.5 -64 c 128,-1,21
 63 -82 63 -82 63 -108 c 0,22,23
 63 -142 63 -142 37 -159 c 1,24,25
 52 -164 52 -164 69 -164 c 0,26,27
 89 -164 89 -164 103 -151.5 c 128,-1,28
 117 -139 117 -139 123 -118.5 c 128,-1,29
 129 -98 129 -98 131.5 -80.5 c 128,-1,30
 134 -63 134 -63 134 -44 c 2,31,-1
 134 355 l 2,32,33
 134 368 134 368 133 374 c 128,-1,34
 132 380 132 380 127 385.5 c 128,-1,35
 122 391 122 391 112 393 c 0,36,37
 97 395 97 395 58 395 c 1,38,-1
 58 442 l 1,8,-1
EndSplineSet
EndChar

StartChar: k
Encoding: 107 107 36
Width: 527
VWidth: 1000
Flags: W
HStem: 0 47<16 85 188 257 290 326.991 452.127 511> 397 47<297 339.99 399.656 488> 639 47<16 74.1627> 674 20G<16 193>
VStem: 85 108<47 179 248 633.323>
LayerCount: 2
Fore
SplineSet
296 279 m 1,0,-1
 441 66 l 2,1,2
 448 55 448 55 452 52 c 128,-1,3
 456 49 456 49 467 48 c 128,-1,4
 478 47 478 47 511 47 c 1,5,-1
 511 0 l 1,6,7
 445 3 445 3 410 3 c 0,8,9
 383 3 383 3 290 0 c 1,10,-1
 290 47 l 1,11,12
 327 47 327 47 327 57 c 0,13,14
 327 61 327 61 283.5 125.5 c 128,-1,15
 240 190 240 190 224 212 c 1,16,-1
 188 179 l 1,17,-1
 188 47 l 1,18,-1
 257 47 l 1,19,-1
 257 0 l 1,20,21
 149 3 149 3 136 3 c 0,22,23
 127 3 127 3 16 0 c 1,24,-1
 16 47 l 1,25,-1
 85 47 l 1,26,-1
 85 600 l 2,27,28
 85 628 85 628 74.5 633.5 c 128,-1,29
 64 639 64 639 16 639 c 1,30,-1
 16 686 l 1,31,-1
 193 694 l 1,32,-1
 193 248 l 1,33,-1
 332 376 l 1,34,35
 340 380 340 380 340 386 c 0,36,37
 340 397 340 397 297 397 c 1,38,-1
 297 444 l 1,39,40
 336 441 336 441 411 441 c 0,41,42
 465 441 465 441 488 444 c 1,43,-1
 488 397 l 1,44,45
 457 397 457 397 440 394.5 c 128,-1,46
 423 392 423 392 417 388.5 c 128,-1,47
 411 385 411 385 403 378 c 2,48,-1
 296 279 l 1,0,-1
EndSplineSet
EndChar

StartChar: l
Encoding: 108 108 37
Width: 277
VWidth: 1000
Flags: W
HStem: 0 47<26 95 203 272> 639 47<26 84.1627> 674 20G<26 203>
VStem: 95 108<47 633.323>
LayerCount: 2
Fore
SplineSet
203 694 m 1,0,-1
 203 47 l 1,1,-1
 272 47 l 1,2,-1
 272 0 l 1,3,4
 170 3 170 3 149 3 c 0,5,6
 122 3 122 3 26 0 c 1,7,-1
 26 47 l 1,8,-1
 95 47 l 1,9,-1
 95 600 l 2,10,11
 95 628 95 628 84.5 633.5 c 128,-1,12
 74 639 74 639 26 639 c 1,13,-1
 26 686 l 1,14,-1
 203 694 l 1,0,-1
EndSplineSet
EndChar

StartChar: m
Encoding: 109 109 38
Width: 833
VWidth: 1000
Flags: W
HStem: 0 47<24 93 207 276 305 370 484 553 582 647 761 830> 395 47<24 82.1627> 414 36<276.716 354.751 553.902 631.367>
VStem: 93 114<47 348.749> 93 103<349 389.323> 370 114<47 348.749 359 402.989> 647 114<47 402.078>
LayerCount: 2
Fore
SplineSet
761 309 m 2,0,-1
 761 47 l 1,1,-1
 830 47 l 1,2,-1
 830 0 l 1,3,4
 770 3 770 3 705 3 c 0,5,6
 690 3 690 3 582 0 c 1,7,-1
 582 47 l 1,8,-1
 647 47 l 1,9,-1
 647 321 l 2,10,11
 647 362 647 362 640.5 384 c 128,-1,12
 634 406 634 406 627.5 410 c 128,-1,13
 621 414 621 414 611 414 c 0,14,15
 566 414 566 414 525 373 c 128,-1,16
 484 332 484 332 484 256 c 2,17,-1
 484 47 l 1,18,-1
 553 47 l 1,19,-1
 553 0 l 1,20,21
 493 3 493 3 428 3 c 0,22,23
 413 3 413 3 305 0 c 1,24,-1
 305 47 l 1,25,-1
 370 47 l 1,26,-1
 370 321 l 2,27,28
 370 362 370 362 363.5 384 c 128,-1,29
 357 406 357 406 350.5 410 c 128,-1,30
 344 414 344 414 334 414 c 0,31,32
 289 414 289 414 248 373 c 128,-1,33
 207 332 207 332 207 256 c 2,34,-1
 207 47 l 1,35,-1
 276 47 l 1,36,-1
 276 0 l 1,37,38
 192 3 192 3 150 3 c 128,-1,39
 108 3 108 3 24 0 c 1,40,-1
 24 47 l 1,41,-1
 93 47 l 1,42,-1
 93 356 l 2,43,44
 93 384 93 384 82.5 389.5 c 128,-1,45
 72 395 72 395 24 395 c 1,46,-1
 24 442 l 1,47,-1
 196 450 l 1,48,-1
 196 349 l 1,49,-1
 197 349 l 1,50,51
 246 450 246 450 349 450 c 0,52,53
 460 450 460 450 480 359 c 1,54,55
 527 450 527 450 626 450 c 0,56,57
 703 450 703 450 732 412 c 128,-1,58
 761 374 761 374 761 309 c 2,0,-1
EndSplineSet
EndChar

StartChar: n
Encoding: 110 110 39
Width: 555
VWidth: 1000
Flags: W
HStem: 0 47<24 93 207 276 305 370 484 553> 395 47<24 82.1627> 414 36<276.716 354.367>
VStem: 93 114<47 348.749> 93 103<349 389.323> 370 114<47 402.078>
LayerCount: 2
Fore
SplineSet
484 309 m 2,0,-1
 484 47 l 1,1,-1
 553 47 l 1,2,-1
 553 0 l 1,3,4
 493 3 493 3 428 3 c 0,5,6
 413 3 413 3 305 0 c 1,7,-1
 305 47 l 1,8,-1
 370 47 l 1,9,-1
 370 321 l 2,10,11
 370 362 370 362 363.5 384 c 128,-1,12
 357 406 357 406 350.5 410 c 128,-1,13
 344 414 344 414 334 414 c 0,14,15
 289 414 289 414 248 373 c 128,-1,16
 207 332 207 332 207 256 c 2,17,-1
 207 47 l 1,18,-1
 276 47 l 1,19,-1
 276 0 l 1,20,21
 192 3 192 3 150 3 c 128,-1,22
 108 3 108 3 24 0 c 1,23,-1
 24 47 l 1,24,-1
 93 47 l 1,25,-1
 93 356 l 2,26,27
 93 384 93 384 82.5 389.5 c 128,-1,28
 72 395 72 395 24 395 c 1,29,-1
 24 442 l 1,30,-1
 196 450 l 1,31,-1
 196 349 l 1,32,-1
 197 349 l 1,33,34
 246 450 246 450 349 450 c 0,35,36
 426 450 426 450 455 412 c 128,-1,37
 484 374 484 374 484 309 c 2,0,-1
EndSplineSet
EndChar

StartChar: o
Encoding: 111 111 40
Width: 500
VWidth: 1000
Flags: W
HStem: -6 40<193.546 305.292> 417 36<194.273 302.83>
VStem: 28 128<109.706 331.087> 343 128<110.222 330.549>
LayerCount: 2
Fore
SplineSet
471 219 m 0,0,1
 471 115 471 115 410 54.5 c 128,-1,2
 349 -6 349 -6 249 -6 c 0,3,4
 151 -6 151 -6 89.5 54 c 128,-1,5
 28 114 28 114 28 219 c 0,6,7
 28 326 28 326 89.5 389.5 c 128,-1,8
 151 453 151 453 249 453 c 0,9,10
 349 453 349 453 410 389 c 128,-1,11
 471 325 471 325 471 219 c 0,0,1
250 34 m 0,12,13
 278 34 278 34 302 51 c 128,-1,14
 326 68 326 68 333 96 c 1,15,16
 343 130 343 130 343 229 c 0,17,18
 343 323 343 323 334 356 c 0,19,20
 327 381 327 381 303.5 399 c 128,-1,21
 280 417 280 417 249 417 c 0,22,23
 220 417 220 417 196 400.5 c 128,-1,24
 172 384 172 384 165 356 c 0,25,26
 156 324 156 324 156 229 c 0,27,28
 156 133 156 133 164 100 c 0,29,30
 172 69 172 69 196 51.5 c 128,-1,31
 220 34 220 34 250 34 c 0,12,13
EndSplineSet
EndChar

StartChar: p
Encoding: 112 112 41
Width: 555
VWidth: 1000
Flags: W
HStem: -194 47<16 85 199 268> -6 36<236.389 339.227> 395 47<16 84.8671> 410 40<237.989 346.857>
VStem: 85 114<-147 30 60.4795 377.174> 394 128<112.14 335.563>
LayerCount: 2
Fore
SplineSet
268 -147 m 1,0,-1
 268 -194 l 1,1,2
 184 -191 184 -191 142 -191 c 128,-1,3
 100 -191 100 -191 16 -194 c 1,4,-1
 16 -147 l 1,5,-1
 85 -147 l 1,6,-1
 85 362 l 2,7,8
 85 374 85 374 84.5 379 c 128,-1,9
 84 384 84 384 79.5 388 c 128,-1,10
 75 392 75 392 66 393 c 0,11,12
 55 395 55 395 16 395 c 1,13,-1
 16 442 l 1,14,-1
 193 450 l 1,15,-1
 193 407 l 1,16,17
 248 450 248 450 317 450 c 0,18,19
 405 450 405 450 463.5 389.5 c 128,-1,20
 522 329 522 329 522 223 c 0,21,22
 522 115 522 115 459 54.5 c 128,-1,23
 396 -6 396 -6 302 -6 c 0,24,25
 244 -6 244 -6 199 30 c 1,26,-1
 199 -147 l 1,27,-1
 268 -147 l 1,0,-1
199 354 m 1,28,-1
 199 89 l 1,29,30
 236 30 236 30 293 30 c 0,31,32
 335 30 335 30 364.5 78 c 128,-1,33
 394 126 394 126 394 223 c 0,34,35
 394 312 394 312 368.5 361 c 128,-1,36
 343 410 343 410 303 410 c 0,37,38
 244 410 244 410 199 354 c 1,28,-1
EndSplineSet
EndChar

StartChar: q
Encoding: 113 113 42
Width: 527
VWidth: 1000
Flags: W
HStem: -194 47<287 356 470 539> -6 36<209.789 309.367> 410 40<213.556 315.845>
VStem: 33 128<107.878 332.76> 356 114<-147 38 69.4565 369.992>
LayerCount: 2
Fore
SplineSet
470 450 m 1,0,-1
 470 -147 l 1,1,-1
 539 -147 l 1,2,-1
 539 -194 l 1,3,4
 455 -191 455 -191 413 -191 c 128,-1,5
 371 -191 371 -191 287 -194 c 1,6,-1
 287 -147 l 1,7,-1
 356 -147 l 1,8,-1
 356 38 l 1,9,10
 306 -6 306 -6 242 -6 c 0,11,12
 154 -6 154 -6 93.5 53.5 c 128,-1,13
 33 113 33 113 33 222 c 0,14,15
 33 330 33 330 96 390 c 128,-1,16
 159 450 159 450 250 450 c 0,17,18
 330 450 330 450 377 380 c 1,19,-1
 429 450 l 1,20,-1
 470 450 l 1,0,-1
362 132 m 2,21,-1
 362 290 l 2,22,23
 362 330 362 330 334 370 c 128,-1,24
 306 410 306 410 262 410 c 0,25,26
 221 410 221 410 191 364 c 128,-1,27
 161 318 161 318 161 221 c 0,28,29
 161 131 161 131 186.5 80.5 c 128,-1,30
 212 30 212 30 252 30 c 0,31,32
 295 30 295 30 329 64 c 1,33,34
 362 99 362 99 362 132 c 2,21,-1
EndSplineSet
EndChar

StartChar: r
Encoding: 114 114 43
Width: 427
VWidth: 1000
Flags: W
HStem: 3 44<16 85 193 280> 395 47<16 74.1627> 414 36<243.908 296.826>
VStem: 85 108<47 357.615> 278 122<324.018 413.354>
LayerCount: 2
Fore
SplineSet
193 226 m 2,0,-1
 193 47 l 1,1,-1
 280 47 l 1,2,-1
 280 0 l 1,3,4
 244 3 244 3 142 3 c 0,5,6
 121 3 121 3 16 0 c 1,7,-1
 16 47 l 1,8,-1
 85 47 l 1,9,-1
 85 356 l 2,10,11
 85 384 85 384 74.5 389.5 c 128,-1,12
 64 395 64 395 16 395 c 1,13,-1
 16 442 l 1,14,-1
 182 450 l 1,15,-1
 182 359 l 1,16,-1
 183 359 l 1,17,18
 213 450 213 450 293 450 c 0,19,20
 334 450 334 450 367 428.5 c 128,-1,21
 400 407 400 407 400 368 c 0,22,23
 400 340 400 340 381.5 323.5 c 128,-1,24
 363 307 363 307 339 307 c 128,-1,25
 315 307 315 307 296.5 323 c 128,-1,26
 278 339 278 339 278 368 c 0,27,28
 278 395 278 395 297 414 c 1,29,30
 265 414 265 414 243.5 396 c 128,-1,31
 222 378 222 378 211.5 347.5 c 128,-1,32
 201 317 201 317 197 288 c 128,-1,33
 193 259 193 259 193 226 c 2,0,-1
EndSplineSet
EndChar

StartChar: s
Encoding: 115 115 44
Width: 394
VWidth: 1000
Flags: W
HStem: -6 36<135.379 265.019> 421 32<125.973 255.679>
VStem: 33 71<315.932 399.399> 33 48<85.6235 154.84> 288 47<321.644 396.455> 289 71<55.0801 154.131>
LayerCount: 2
Fore
SplineSet
335 425 m 2,0,-1
 335 345 l 2,1,2
 335 326 335 326 331.5 321.5 c 128,-1,3
 328 317 328 317 311 317 c 0,4,5
 297 317 297 317 293 320.5 c 128,-1,6
 289 324 289 324 288 336 c 0,7,8
 287 350 287 350 284.5 359.5 c 128,-1,9
 282 369 282 369 273.5 385.5 c 128,-1,10
 265 402 265 402 244.5 411.5 c 128,-1,11
 224 421 224 421 193 421 c 0,12,13
 104 421 104 421 104 359 c 0,14,15
 104 342 104 342 112 329.5 c 128,-1,16
 120 317 120 317 138.5 309.5 c 128,-1,17
 157 302 157 302 168 298.5 c 128,-1,18
 179 295 179 295 205 290 c 0,19,20
 232 285 232 285 246 281.5 c 128,-1,21
 260 278 260 278 280 267.5 c 128,-1,22
 300 257 300 257 315 242 c 0,23,24
 360 200 360 200 360 139 c 0,25,26
 360 76 360 76 322.5 35 c 128,-1,27
 285 -6 285 -6 199 -6 c 0,28,29
 142 -6 142 -6 102 22 c 1,30,31
 86 12 86 12 78 6 c 0,32,33
 60 -6 60 -6 51 -6 c 0,34,35
 39 -6 39 -6 36 0 c 128,-1,36
 33 6 33 6 33 22 c 2,37,-1
 33 131 l 2,38,39
 33 150 33 150 36.5 155 c 128,-1,40
 40 160 40 160 57 160 c 0,41,42
 71 160 71 160 74.5 157 c 128,-1,43
 78 154 78 154 81 143 c 0,44,45
 95 88 95 88 122 59 c 128,-1,46
 149 30 149 30 199 30 c 0,47,48
 289 30 289 30 289 104 c 0,49,50
 289 133 289 133 270 151.5 c 128,-1,51
 251 170 251 170 234 175 c 128,-1,52
 217 180 217 180 188 186 c 128,-1,53
 159 192 159 192 143.5 196 c 128,-1,54
 128 200 128 200 107.5 210 c 128,-1,55
 87 220 87 220 72 235 c 0,56,57
 33 274 33 274 33 322 c 0,58,59
 33 360 33 360 47.5 387 c 128,-1,60
 62 414 62 414 86.5 427.5 c 128,-1,61
 111 441 111 441 137 447 c 128,-1,62
 163 453 163 453 193 453 c 0,63,64
 245 453 245 453 276 435 c 1,65,66
 309 453 309 453 317 453 c 0,67,68
 329 453 329 453 332 447.5 c 128,-1,69
 335 442 335 442 335 425 c 2,0,-1
EndSplineSet
EndChar

StartChar: t
Encoding: 116 116 45
Width: 390
VWidth: 1000
Flags: W
HStem: -6 40<209.142 271.713> 397 47<196 317> 397 36<19 77.625>
VStem: 82 114<42.2031 397> 149 47<517.814 635> 286 47<43.5753 177>
LayerCount: 2
Fore
SplineSet
196 397 m 1,0,-1
 196 118 l 2,1,2
 196 34 196 34 241 34 c 0,3,4
 262 34 262 34 274 58 c 128,-1,5
 286 82 286 82 286 123 c 2,6,-1
 286 177 l 1,7,-1
 333 177 l 1,8,-1
 333 122 l 2,9,10
 333 71 333 71 307 32.5 c 128,-1,11
 281 -6 281 -6 228 -6 c 0,12,13
 82 -6 82 -6 82 123 c 2,14,-1
 82 397 l 1,15,-1
 19 397 l 1,16,-1
 19 433 l 1,17,18
 87 436 87 436 117.5 496.5 c 128,-1,19
 148 557 148 557 149 635 c 1,20,-1
 196 635 l 1,21,-1
 196 444 l 1,22,-1
 317 444 l 1,23,-1
 317 397 l 1,24,-1
 196 397 l 1,0,-1
EndSplineSet
EndChar

StartChar: u
Encoding: 117 117 46
Width: 555
VWidth: 1000
Flags: W
HStem: -6 36<216.385 324.84> 0 47<494.837 553> 395 47<24 82.1627 301 359.163>
VStem: 93 114<45.4761 389.323> 370 114<74.111 389.323>
LayerCount: 2
Fore
SplineSet
301 442 m 1,0,-1
 484 450 l 1,1,-1
 484 86 l 2,2,3
 484 58 484 58 494.5 52.5 c 128,-1,4
 505 47 505 47 553 47 c 1,5,-1
 553 0 l 1,6,-1
 376 -6 l 1,7,-1
 376 62 l 1,8,-1
 375 62 l 1,9,10
 337 -6 337 -6 257 -6 c 0,11,12
 178 -6 178 -6 135.5 22.5 c 128,-1,13
 93 51 93 51 93 122 c 2,14,-1
 93 356 l 2,15,16
 93 384 93 384 82.5 389.5 c 128,-1,17
 72 395 72 395 24 395 c 1,18,-1
 24 442 l 1,19,-1
 207 450 l 1,20,-1
 207 105 l 2,21,22
 207 60 207 60 217 45 c 128,-1,23
 227 30 227 30 271 30 c 0,24,25
 317 30 317 30 343.5 68 c 128,-1,26
 370 106 370 106 370 163 c 2,27,-1
 370 356 l 2,28,29
 370 384 370 384 359.5 389.5 c 128,-1,30
 349 395 349 395 301 395 c 1,31,-1
 301 442 l 1,0,-1
EndSplineSet
EndChar

StartChar: v
Encoding: 118 118 47
Width: 527
VWidth: 1000
Flags: W
HStem: -4 21G<257 270> 397 47<22 84 200 257 336 386.988 451.352 505>
LayerCount: 2
Fore
SplineSet
435 375 m 2,0,-1
 299 23 l 2,1,2
 295 13 295 13 292.5 8.5 c 128,-1,3
 290 4 290 4 283 0 c 128,-1,4
 276 -4 276 -4 264 -4 c 0,5,6
 250 -4 250 -4 242 1 c 128,-1,7
 234 6 234 6 227 24 c 2,8,-1
 84 397 l 1,9,-1
 22 397 l 1,10,-1
 22 444 l 1,11,12
 124 441 124 441 134 441 c 0,13,14
 170 441 170 441 257 444 c 1,15,-1
 257 397 l 1,16,-1
 200 397 l 1,17,-1
 296 147 l 1,18,-1
 383 373 l 2,19,20
 387 383 387 383 387 385 c 0,21,22
 387 397 387 397 336 397 c 1,23,-1
 336 444 l 1,24,25
 378 441 378 441 426 441 c 0,26,27
 468 441 468 441 505 444 c 1,28,-1
 505 397 l 1,29,30
 462 397 462 397 451 392.5 c 128,-1,31
 440 388 440 388 435 375 c 2,0,-1
EndSplineSet
EndChar

StartChar: w
Encoding: 119 119 48
Width: 722
VWidth: 1000
Flags: W
HStem: -4 21G<236 250 470 489.5> 397 47<21 79 194 236 265 318.541 408 467 527 587.308 649.835 700>
LayerCount: 2
Fore
SplineSet
634 374 m 2,0,-1
 511 22 l 2,1,2
 502 -4 502 -4 477 -4 c 0,3,4
 463 -4 463 -4 455.5 0.5 c 128,-1,5
 448 5 448 5 442 22 c 2,6,-1
 360 256 l 1,7,-1
 278 21 l 2,8,9
 275 12 275 12 272.5 7.5 c 128,-1,10
 270 3 270 3 263 -0.5 c 128,-1,11
 256 -4 256 -4 244 -4 c 0,12,13
 228 -4 228 -4 221.5 2 c 128,-1,14
 215 8 215 8 210 23 c 2,15,-1
 79 397 l 1,16,-1
 21 397 l 1,17,-1
 21 444 l 1,18,19
 108 441 108 441 127 441 c 0,20,21
 152 441 152 441 236 444 c 1,22,-1
 236 397 l 1,23,-1
 194 397 l 1,24,-1
 277 160 l 1,25,-1
 331 315 l 1,26,27
 335 323 335 323 335 327 c 0,28,29
 335 329 335 329 311 397 c 1,30,-1
 265 397 l 1,31,-1
 265 444 l 1,32,33
 310 441 310 441 355 441 c 0,34,35
 377 441 377 441 467 444 c 1,36,-1
 467 397 l 1,37,-1
 408 397 l 1,38,-1
 500 135 l 1,39,-1
 584 372 l 1,40,-1
 588 387 l 1,41,42
 566 397 566 397 527 397 c 1,43,-1
 527 444 l 1,44,45
 599 441 599 441 623 441 c 0,46,47
 664 441 664 441 700 444 c 1,48,-1
 700 397 l 1,49,50
 660 397 660 397 649.5 392.5 c 128,-1,51
 639 388 639 388 634 374 c 2,0,-1
EndSplineSet
EndChar

StartChar: x
Encoding: 120 120 49
Width: 527
VWidth: 1000
Flags: W
HStem: 0 47<18 113.656 165.503 211 285 331 443 511> 397 47<22 90 201 247 299 345.435 396.531 493>
LayerCount: 2
Fore
SplineSet
304 249 m 1,0,-1
 443 47 l 1,1,-1
 511 47 l 1,2,-1
 511 0 l 1,3,4
 409 3 409 3 404 3 c 0,5,6
 375 3 375 3 285 0 c 1,7,-1
 285 47 l 1,8,-1
 331 47 l 1,9,-1
 246 170 l 1,10,-1
 165 58 l 1,11,12
 181 48 181 48 211 47 c 1,13,-1
 211 0 l 1,14,15
 148 3 148 3 109 3 c 0,16,17
 63 3 63 3 18 0 c 1,18,-1
 18 47 l 1,19,20
 48 47 48 47 61.5 47.5 c 128,-1,21
 75 48 75 48 90 52.5 c 128,-1,22
 105 57 105 57 112 66 c 2,23,-1
 218 211 l 1,24,-1
 90 397 l 1,25,-1
 22 397 l 1,26,-1
 22 444 l 1,27,28
 76 441 76 441 129 441 c 0,29,30
 160 441 160 441 247 444 c 1,31,-1
 247 397 l 1,32,-1
 201 397 l 1,33,-1
 276 289 l 1,34,-1
 346 386 l 1,35,36
 328 397 328 397 299 397 c 1,37,-1
 299 444 l 1,38,39
 383 441 383 441 402 441 c 0,40,41
 445 441 445 441 493 444 c 1,42,-1
 493 397 l 1,43,44
 455 397 455 397 435 394.5 c 128,-1,45
 415 392 415 392 409.5 388.5 c 128,-1,46
 404 385 404 385 398 377 c 2,47,-1
 304 249 l 1,0,-1
EndSplineSet
EndChar

StartChar: y
Encoding: 121 121 50
Width: 527
VWidth: 1000
Flags: W
HStem: -200 36<97.3623 162.386> 397 47<22 84 201 257 335 386.987 441.128 505>
VStem: 19 115<-153.43 -66.5022>
LayerCount: 2
Fore
SplineSet
433 373 m 2,0,-1
 256 -84 l 2,1,2
 239 -128 239 -128 201 -164 c 128,-1,3
 163 -200 163 -200 112 -200 c 0,4,5
 72 -200 72 -200 45.5 -172.5 c 128,-1,6
 19 -145 19 -145 19 -108 c 0,7,8
 19 -80 19 -80 36 -65 c 128,-1,9
 53 -50 53 -50 76 -50 c 0,10,11
 101 -50 101 -50 117.5 -66 c 128,-1,12
 134 -82 134 -82 134 -107 c 0,13,14
 134 -147 134 -147 97 -162 c 1,15,16
 105 -164 105 -164 113 -164 c 0,17,18
 161 -164 161 -164 194 -108 c 0,19,20
 207 -85 207 -85 238 0 c 1,21,-1
 84 397 l 1,22,-1
 22 397 l 1,23,-1
 22 444 l 1,24,25
 124 441 124 441 134 441 c 0,26,27
 170 441 170 441 257 444 c 1,28,-1
 257 397 l 1,29,-1
 201 397 l 1,30,31
 226 324 226 324 297 150 c 1,32,-1
 382 372 l 1,33,-1
 384 378 l 2,34,35
 386 384 386 384 387 385 c 0,36,37
 387 397 387 397 335 397 c 1,38,-1
 335 444 l 1,39,40
 374 441 374 441 426 441 c 0,41,42
 468 441 468 441 505 444 c 1,43,-1
 505 397 l 1,44,45
 474 397 474 397 459.5 394 c 128,-1,46
 445 391 445 391 441 387 c 128,-1,47
 437 383 437 383 433 373 c 2,0,-1
EndSplineSet
EndChar

StartChar: z
Encoding: 122 122 51
Width: 444
VWidth: 1000
Flags: W
HStem: 0 40<159 301.384> 408 36<132.469 269>
VStem: 42 47<269 367.372> 348 53<121.559 202>
LayerCount: 2
Fore
SplineSet
391 402 m 2,0,-1
 159 40 l 1,1,-1
 214 40 l 2,2,3
 250 40 250 40 275 48.5 c 128,-1,4
 300 57 300 57 314 68.5 c 128,-1,5
 328 80 328 80 336.5 104 c 128,-1,6
 345 128 345 128 348 147.5 c 128,-1,7
 351 167 351 167 354 202 c 1,8,-1
 401 202 l 1,9,-1
 383 0 l 1,10,-1
 60 0 l 2,11,12
 48 0 48 0 42.5 1 c 128,-1,13
 37 2 37 2 32.5 7 c 128,-1,14
 28 12 28 12 28 22 c 0,15,16
 28 33 28 33 36 44 c 2,17,-1
 269 408 l 1,18,-1
 216 408 l 2,19,20
 141 408 141 408 117.5 377 c 128,-1,21
 94 346 94 346 89 269 c 1,22,-1
 42 269 l 1,23,-1
 54 444 l 1,24,-1
 367 444 l 2,25,26
 379 444 379 444 384 443.5 c 128,-1,27
 389 443 389 443 394 438 c 128,-1,28
 399 433 399 433 399 423 c 0,29,30
 399 414 399 414 391 402 c 2,0,-1
EndSplineSet
EndChar

StartChar: exclamation
Encoding: 33 33 52
Width: 305
VWidth: 1000
Flags: W
HStem: 0 156<98.7209 207.279> 685 20G<137 169>
VStem: 75 156<23.7209 132.279 469.469 683.996>
LayerCount: 2
Fore
SplineSet
230 621 m 2,0,-1
 178 248 l 2,1,2
 176 233 176 233 171.5 229.5 c 128,-1,3
 167 226 167 226 153 226 c 0,4,5
 137 226 137 226 133.5 230 c 128,-1,6
 130 234 130 234 128 252 c 2,7,-1
 76 616 l 2,8,9
 74 626 74 626 74 634 c 0,10,11
 74 663 74 663 97.5 684 c 128,-1,12
 121 705 121 705 153 705 c 128,-1,13
 185 705 185 705 208.5 684 c 128,-1,14
 232 663 232 663 232 634 c 0,15,16
 232 633 232 633 231 627.5 c 128,-1,17
 230 622 230 622 230 621 c 2,0,-1
231 78 m 128,-1,19
 231 46 231 46 208 23 c 128,-1,20
 185 0 185 0 153 0 c 128,-1,21
 121 0 121 0 98 23 c 128,-1,22
 75 46 75 46 75 78 c 128,-1,23
 75 110 75 110 98 133 c 128,-1,24
 121 156 121 156 153 156 c 128,-1,25
 185 156 185 156 208 133 c 128,-1,18
 231 110 231 110 231 78 c 128,-1,19
EndSplineSet
EndChar

StartChar: dquote
Encoding: 34 34 53
Width: 544
VWidth: 1000
Flags: W
HStem: 538 156<55.1749 165.554 294.175 404.554>
VStem: 33 170<561.721 653.148> 272 170<561.721 653.148>
LayerCount: 2
Fore
SplineSet
167 559 m 1,0,1
 146 538 146 538 111 538 c 0,2,3
 75 538 75 538 54 561 c 128,-1,4
 33 584 33 584 33 616 c 0,5,6
 33 649 33 649 54.5 671.5 c 128,-1,7
 76 694 76 694 110 694 c 0,8,9
 152 694 152 694 177.5 658 c 128,-1,10
 203 622 203 622 203 569 c 0,11,12
 203 507 203 507 176 451.5 c 128,-1,13
 149 396 149 396 122.5 370 c 128,-1,14
 96 344 96 344 86 344 c 0,15,16
 80 344 80 344 73.5 350.5 c 128,-1,17
 67 357 67 357 67 364 c 0,18,19
 67 370 67 370 81 383 c 0,20,21
 160 450 160 450 167 559 c 1,0,1
406 559 m 1,22,23
 385 538 385 538 350 538 c 0,24,25
 314 538 314 538 293 561 c 128,-1,26
 272 584 272 584 272 616 c 0,27,28
 272 649 272 649 293.5 671.5 c 128,-1,29
 315 694 315 694 349 694 c 0,30,31
 391 694 391 694 416.5 658 c 128,-1,32
 442 622 442 622 442 569 c 0,33,34
 442 507 442 507 415 451.5 c 128,-1,35
 388 396 388 396 361.5 370 c 128,-1,36
 335 344 335 344 325 344 c 0,37,38
 319 344 319 344 312.5 350.5 c 128,-1,39
 306 357 306 357 306 364 c 0,40,41
 306 370 306 370 320 383 c 0,42,43
 399 450 399 450 406 559 c 1,22,23
EndSplineSet
EndChar

StartChar: number
Encoding: 35 35 54
Width: 833
VWidth: 1000
Flags: W
HStem: 108 61<57.2112 237 317 456 536 774.789> 332 61<57.2112 296 376 515 595 774.789> 674 20G<403 422 622 641>
VStem: 386 62<-184.718 -144.201 637.39 684.718>
LayerCount: 2
Fore
SplineSet
519 108 m 1,0,-1
 448 -164 l 2,1,2
 441 -194 441 -194 417 -194 c 0,3,4
 403 -194 403 -194 394.5 -185 c 128,-1,5
 386 -176 386 -176 386 -164 c 0,6,7
 386 -159 386 -159 390 -144 c 2,8,-1
 456 108 l 1,9,-1
 300 108 l 1,10,-1
 229 -164 l 2,11,12
 222 -194 222 -194 198 -194 c 0,13,14
 184 -194 184 -194 175.5 -185 c 128,-1,15
 167 -176 167 -176 167 -164 c 0,16,17
 167 -159 167 -159 171 -144 c 2,18,-1
 237 108 l 1,19,-1
 102 108 l 2,20,21
 56 108 56 108 56 139 c 0,22,23
 56 169 56 169 97 169 c 2,24,-1
 254 169 l 1,25,-1
 296 332 l 1,26,-1
 97 332 l 2,27,28
 56 332 56 332 56 362 c 0,29,30
 56 393 56 393 102 393 c 2,31,-1
 313 393 l 1,32,-1
 384 664 l 2,33,34
 391 694 391 694 415 694 c 0,35,36
 429 694 429 694 437.5 685 c 128,-1,37
 446 676 446 676 446 664 c 0,38,39
 446 659 446 659 442 644 c 2,40,-1
 376 393 l 1,41,-1
 532 393 l 1,42,-1
 603 664 l 2,43,44
 610 694 610 694 634 694 c 0,45,46
 648 694 648 694 656.5 685 c 128,-1,47
 665 676 665 676 665 664 c 0,48,49
 665 659 665 659 661 644 c 2,50,-1
 595 393 l 1,51,-1
 730 393 l 2,52,53
 776 393 776 393 776 362 c 0,54,55
 776 332 776 332 735 332 c 2,56,-1
 578 332 l 1,57,-1
 536 169 l 1,58,-1
 735 169 l 2,59,60
 776 169 776 169 776 139 c 0,61,62
 776 108 776 108 730 108 c 2,63,-1
 519 108 l 1,0,-1
317 169 m 1,64,-1
 473 169 l 1,65,-1
 515 332 l 1,66,-1
 359 332 l 1,67,-1
 317 169 l 1,64,-1
EndSplineSet
EndChar

StartChar: dollar
Encoding: 36 36 55
Width: 500
VWidth: 1000
Flags: W
HStem: -5 47<162.234 226 273 322.373> 652 47<273 341.305>
VStem: 56 125<141.254 236.012> 56 80<481.663 599.317> 226 47<-56 -1.7948 43 282 440 651 696.336 750> 318 125<472.504 560.89> 363 80<101.774 234.856>
LayerCount: 2
Fore
SplineSet
273 652 m 1,0,-1
 273 428 l 1,1,2
 325 417 325 417 361 390 c 128,-1,3
 397 363 397 363 413.5 328.5 c 128,-1,4
 430 294 430 294 436.5 265.5 c 128,-1,5
 443 237 443 237 443 210 c 0,6,7
 443 128 443 128 401.5 67.5 c 128,-1,8
 360 7 360 7 273 -5 c 1,9,-1
 273 -56 l 1,10,-1
 226 -56 l 1,11,-1
 226 -5 l 1,12,13
 180 0 180 0 145 19 c 128,-1,14
 110 38 110 38 91.5 66.5 c 128,-1,15
 73 95 73 95 64.5 124.5 c 128,-1,16
 56 154 56 154 56 185 c 0,17,18
 56 214 56 214 71.5 230.5 c 128,-1,19
 87 247 87 247 98.5 249.5 c 128,-1,20
 110 252 110 252 119 252 c 0,21,22
 141 252 141 252 161 236.5 c 128,-1,23
 181 221 181 221 181 189 c 0,24,25
 181 176 181 176 176.5 163.5 c 128,-1,26
 172 151 172 151 156 139 c 128,-1,27
 140 127 140 127 114 127 c 1,28,29
 140 53 140 53 226 42 c 1,30,-1
 226 294 l 1,31,32
 136 312 136 312 96 372.5 c 128,-1,33
 56 433 56 433 56 498 c 0,34,35
 56 578 56 578 100 634 c 128,-1,36
 144 690 144 690 226 699 c 1,37,-1
 226 750 l 1,38,-1
 273 750 l 1,39,-1
 273 699 l 1,40,41
 358 691 358 691 400.5 640.5 c 128,-1,42
 443 590 443 590 443 522 c 0,43,44
 443 485 443 485 422 470.5 c 128,-1,45
 401 456 401 456 380 456 c 0,46,47
 357 456 357 456 337.5 472 c 128,-1,48
 318 488 318 488 318 519 c 0,49,50
 318 542 318 542 333.5 561.5 c 128,-1,51
 349 581 349 581 383 581 c 1,52,53
 355 643 355 643 273 652 c 1,0,-1
226 440 m 1,54,-1
 226 651 l 1,55,56
 174 642 174 642 155 610 c 128,-1,57
 136 578 136 578 136 546 c 0,58,59
 136 512 136 512 158 481.5 c 128,-1,60
 180 451 180 451 226 440 c 1,54,-1
273 282 m 1,61,-1
 273 43 l 1,62,63
 363 62 363 62 363 161 c 0,64,65
 363 202 363 202 340 236 c 128,-1,66
 317 270 317 270 273 282 c 1,61,-1
EndSplineSet
EndChar

StartChar: percent
Encoding: 37 37 56
Width: 833
VWidth: 1000
Flags: W
HStem: -56 36<621.719 688.123> 311 36<621.312 687.846> 347 36<178.719 244.846> 611 35<370.673 549.375> 714 36<178.312 245.017>
VStem: 56 103<431.33 664.436> 286 47<425.728 646.15> 499 103<28.3301 261.436> 729 47<23.3529 266.742>
LayerCount: 2
Fore
SplineSet
684 696 m 2,0,-1
 198 -37 l 2,1,2
 185 -56 185 -56 170 -56 c 0,3,4
 157 -56 157 -56 148 -47 c 128,-1,5
 139 -38 139 -38 139 -25 c 0,6,7
 139 -17 139 -17 150 0 c 2,8,-1
 568 632 l 1,9,10
 521 611 521 611 463 611 c 0,11,12
 391 611 391 611 321 647 c 1,13,14
 333 605 333 605 333 549 c 0,15,16
 333 445 333 445 295.5 396 c 128,-1,17
 258 347 258 347 207 347 c 0,18,19
 150 347 150 347 103 395.5 c 128,-1,20
 56 444 56 444 56 549 c 0,21,22
 56 651 56 651 102 700.5 c 128,-1,23
 148 750 148 750 207 750 c 0,24,25
 245 750 245 750 279 721 c 1,26,27
 362 646 362 646 462 646 c 0,28,29
 571 646 571 646 635 733 c 0,30,31
 647 750 647 750 663 750 c 0,32,33
 674 750 674 750 683.5 741.5 c 128,-1,34
 693 733 693 733 693 719 c 0,35,36
 693 709 693 709 684 696 c 2,0,-1
209 383 m 0,37,38
 238 383 238 383 262 423 c 128,-1,39
 286 463 286 463 286 549 c 0,40,41
 286 632 286 632 262 673 c 128,-1,42
 238 714 238 714 209 714 c 0,43,44
 197 714 197 714 188 707.5 c 128,-1,45
 179 701 179 701 174 686.5 c 128,-1,46
 169 672 169 672 165.5 659 c 128,-1,47
 162 646 162 646 161 623 c 128,-1,48
 160 600 160 600 159.5 586.5 c 128,-1,49
 159 573 159 573 159 548 c 128,-1,50
 159 523 159 523 159.5 510 c 128,-1,51
 160 497 160 497 161 474 c 128,-1,52
 162 451 162 451 165.5 438 c 128,-1,53
 169 425 169 425 174 410.5 c 128,-1,54
 179 396 179 396 188 389.5 c 128,-1,55
 197 383 197 383 209 383 c 0,37,38
776 145 m 0,56,57
 776 44 776 44 739 -6 c 128,-1,58
 702 -56 702 -56 650 -56 c 0,59,60
 593 -56 593 -56 546 -7.5 c 128,-1,61
 499 41 499 41 499 146 c 0,62,63
 499 248 499 248 545 297.5 c 128,-1,64
 591 347 591 347 650 347 c 0,65,66
 701 347 701 347 738.5 298 c 128,-1,67
 776 249 776 249 776 145 c 0,56,57
652 -20 m 0,68,69
 681 -20 681 -20 705 20 c 128,-1,70
 729 60 729 60 729 146 c 0,71,72
 729 229 729 229 705 270 c 128,-1,73
 681 311 681 311 652 311 c 0,74,75
 640 311 640 311 631 304.5 c 128,-1,76
 622 298 622 298 617 283.5 c 128,-1,77
 612 269 612 269 608.5 256 c 128,-1,78
 605 243 605 243 604 220 c 128,-1,79
 603 197 603 197 602.5 183.5 c 128,-1,80
 602 170 602 170 602 145 c 128,-1,81
 602 120 602 120 602.5 107 c 128,-1,82
 603 94 603 94 604 71 c 128,-1,83
 605 48 605 48 608.5 35 c 128,-1,84
 612 22 612 22 617 7.5 c 128,-1,85
 622 -7 622 -7 631 -13.5 c 128,-1,86
 640 -20 640 -20 652 -20 c 0,68,69
EndSplineSet
EndChar

StartChar: ampersand
Encoding: 38 38 57
Width: 777
VWidth: 1000
Flags: W
HStem: -11 47<190.964 324.028 527.949 646.165> 397 47<506 582.981 641.643 727> 669 36<273.91 343.047>
VStem: 42 128<64.3179 208.599> 143 104<430.5 620.403> 361 47<506.424 656.932> 674 47<63.3643 118>
LayerCount: 2
Fore
SplineSet
674 118 m 1,0,-1
 721 118 l 1,1,2
 720 61 720 61 679.5 25 c 128,-1,3
 639 -11 639 -11 579 -11 c 0,4,5
 483 -11 483 -11 398 53 c 1,6,7
 316 -11 316 -11 223 -11 c 0,8,9
 148 -11 148 -11 95 31.5 c 128,-1,10
 42 74 42 74 42 137 c 0,11,12
 42 178 42 178 67 213 c 0,13,14
 72 221 72 221 122 271 c 0,15,16
 180 329 180 329 184 332 c 1,17,18
 143 432 143 432 143 528 c 0,19,20
 143 609 143 609 194.5 657 c 128,-1,21
 246 705 246 705 309 705 c 0,22,23
 359 705 359 705 383.5 663.5 c 128,-1,24
 408 622 408 622 408 574 c 0,25,26
 408 505 408 505 286 383 c 1,27,28
 326 285 326 285 436 153 c 1,29,30
 479 203 479 203 516 269 c 0,31,32
 518 272 518 272 536 302.5 c 128,-1,33
 554 333 554 333 568.5 358 c 128,-1,34
 583 383 583 383 583 385 c 0,35,36
 583 397 583 397 506 397 c 1,37,-1
 506 444 l 1,38,39
 546 441 546 441 628 441 c 0,40,41
 679 441 679 441 727 444 c 1,42,-1
 727 397 l 1,43,44
 684 397 684 397 662 394 c 0,45,46
 646 392 646 392 641.5 388 c 128,-1,47
 637 384 637 384 626 366 c 0,48,49
 610 341 610 341 603 326 c 1,50,51
 517 179 517 179 465 118 c 1,52,53
 533 36 533 36 585 36 c 0,54,55
 612 36 612 36 641.5 55 c 128,-1,56
 671 74 671 74 674 118 c 1,0,-1
272 421 m 1,57,58
 361 515 361 515 361 575 c 0,59,60
 361 583 361 583 359.5 594 c 128,-1,61
 358 605 358 605 354 624.5 c 128,-1,62
 350 644 350 644 339 656.5 c 128,-1,63
 328 669 328 669 311 669 c 0,64,65
 287 669 287 669 267 644.5 c 128,-1,66
 247 620 247 620 247 565 c 0,67,68
 247 493 247 493 272 421 c 1,57,58
200 297 m 1,69,70
 170 258 170 258 170 174 c 0,71,72
 170 129 170 129 175.5 100 c 128,-1,73
 181 71 181 71 191 58 c 128,-1,74
 201 45 201 45 210.5 40.5 c 128,-1,75
 220 36 220 36 233 36 c 0,76,77
 298 36 298 36 362 81 c 1,78,79
 260 174 260 174 200 297 c 1,69,70
EndSplineSet
EndChar

StartChar: quote
Encoding: 39 39 58
Width: 277
VWidth: 1000
Flags: W
HStem: 538 156<83.1749 193.554>
VStem: 61 170<561.721 653.148>
LayerCount: 2
Fore
SplineSet
195 559 m 1,0,1
 174 538 174 538 139 538 c 0,2,3
 103 538 103 538 82 561 c 128,-1,4
 61 584 61 584 61 616 c 0,5,6
 61 649 61 649 82.5 671.5 c 128,-1,7
 104 694 104 694 138 694 c 0,8,9
 180 694 180 694 205.5 658 c 128,-1,10
 231 622 231 622 231 569 c 0,11,12
 231 507 231 507 204 451.5 c 128,-1,13
 177 396 177 396 150.5 370 c 128,-1,14
 124 344 124 344 114 344 c 0,15,16
 108 344 108 344 101.5 350.5 c 128,-1,17
 95 357 95 357 95 364 c 0,18,19
 95 370 95 370 109 383 c 0,20,21
 188 450 188 450 195 559 c 1,0,1
EndSplineSet
EndChar

StartChar: lparen
Encoding: 40 40 59
Width: 388
VWidth: 1000
Flags: W
VStem: 92 97<62.2112 440.973>
LayerCount: 2
Fore
SplineSet
332 -235 m 0,0,1
 332 -249 332 -249 314 -249 c 0,2,3
 295 -249 295 -249 246.5 -195.5 c 128,-1,4
 198 -142 198 -142 168 -85 c 0,5,6
 92 64 92 64 92 250 c 0,7,8
 92 528 92 528 248 699 c 1,9,10
 299 750 299 750 314 750 c 0,11,12
 332 750 332 750 332 736 c 0,13,14
 332 730 332 730 325 723 c 0,15,16
 189 562 189 562 189 250 c 0,17,18
 189 -63 189 -63 322 -218 c 0,19,20
 332 -229 332 -229 332 -235 c 0,0,1
EndSplineSet
EndChar

StartChar: rparen
Encoding: 41 41 60
Width: 388
VWidth: 1000
Flags: W
VStem: 199 97<57.8013 441.521>
LayerCount: 2
Fore
SplineSet
296 250 m 0,0,1
 296 -27 296 -27 140 -198 c 1,2,3
 89 -249 89 -249 74 -249 c 0,4,5
 56 -249 56 -249 56 -235 c 0,6,7
 56 -229 56 -229 69 -214 c 0,8,9
 199 -54 199 -54 199 251 c 0,10,11
 199 563 199 563 66 719 c 0,12,13
 56 730 56 730 56 736 c 0,14,15
 56 750 56 750 74 750 c 0,16,17
 93 750 93 750 143.5 694.5 c 128,-1,18
 194 639 194 639 229 568 c 0,19,20
 296 430 296 430 296 250 c 0,0,1
EndSplineSet
EndChar

StartChar: asterisk
Encoding: 42 42 61
Width: 500
VWidth: 1000
Flags: W
HStem: 394 86<69.7102 91 408 429.29> 576 86<69.7102 91 408 429.29>
VStem: 205 89<317.345 481.531 574.469 738.655>
LayerCount: 2
Fore
SplineSet
270 492 m 1,0,-1
 291 365 l 2,1,2
 294 346 294 346 294 345 c 0,3,4
 294 328 294 328 280.5 317 c 128,-1,5
 267 306 267 306 249 306 c 0,6,7
 232 306 232 306 218.5 316.5 c 128,-1,8
 205 327 205 327 205 345 c 0,9,10
 205 346 205 346 205.5 347.5 c 128,-1,11
 206 349 206 349 206.5 352 c 128,-1,12
 207 355 207 355 207 358 c 2,13,-1
 229 492 l 1,14,-1
 135 407 l 2,15,16
 120 394 120 394 107 394 c 0,17,18
 91 394 91 394 76.5 408 c 128,-1,19
 62 422 62 422 62 443 c 0,20,21
 62 470 62 470 91 480 c 1,22,-1
 212 528 l 1,23,-1
 91 576 l 1,24,25
 62 586 62 586 62 613 c 0,26,27
 62 634 62 634 76.5 648 c 128,-1,28
 91 662 91 662 107 662 c 0,29,30
 120 662 120 662 135 648 c 2,31,-1
 229 564 l 1,32,-1
 208 691 l 2,33,34
 205 710 205 710 205 711 c 0,35,36
 205 728 205 728 218.5 739 c 128,-1,37
 232 750 232 750 250 750 c 0,38,39
 267 750 267 750 280.5 739.5 c 128,-1,40
 294 729 294 729 294 711 c 0,41,42
 294 710 294 710 293.5 708.5 c 128,-1,43
 293 707 293 707 292.5 704 c 128,-1,44
 292 701 292 701 292 698 c 2,45,-1
 270 564 l 1,46,-1
 364 649 l 2,47,48
 379 662 379 662 392 662 c 0,49,50
 408 662 408 662 422.5 648 c 128,-1,51
 437 634 437 634 437 613 c 0,52,53
 437 586 437 586 408 576 c 1,54,-1
 287 528 l 1,55,-1
 408 480 l 1,56,57
 437 470 437 470 437 443 c 0,58,59
 437 422 437 422 422.5 408 c 128,-1,60
 408 394 408 394 392 394 c 0,61,62
 379 394 379 394 364 408 c 2,63,-1
 270 492 l 1,0,-1
EndSplineSet
EndChar

StartChar: plus
Encoding: 43 43 62
Width: 777
VWidth: 1000
Flags: W
HStem: 220 61<57.0498 358 419 719.95>
VStem: 358 61<-80.9746 220 281 581.975>
LayerCount: 2
Fore
SplineSet
419 220 m 1,0,-1
 419 -40 l 2,1,2
 419 -82 419 -82 388 -82 c 0,3,4
 358 -82 358 -82 358 -40 c 2,5,-1
 358 220 l 1,6,-1
 99 220 l 2,7,8
 56 220 56 220 56 251 c 0,9,10
 56 281 56 281 99 281 c 2,11,-1
 358 281 l 1,12,-1
 358 541 l 2,13,14
 358 583 358 583 389 583 c 0,15,16
 419 583 419 583 419 541 c 2,17,-1
 419 281 l 1,18,-1
 678 281 l 2,19,20
 721 281 721 281 721 250 c 0,21,22
 721 220 721 220 678 220 c 2,23,-1
 419 220 l 1,0,-1
EndSplineSet
EndChar

StartChar: comma
Encoding: 44 44 63
Width: 277
VWidth: 1000
Flags: W
HStem: 0 156<83.1749 190.434>
VStem: 61 167<23.7209 117.604>
LayerCount: 2
Fore
SplineSet
191 18 m 1,0,1
 173 0 173 0 139 0 c 0,2,3
 103 0 103 0 82 23 c 128,-1,4
 61 46 61 46 61 78 c 0,5,6
 61 111 61 111 82.5 133.5 c 128,-1,7
 104 156 104 156 138 156 c 0,8,9
 180 156 180 156 204 120 c 128,-1,10
 228 84 228 84 228 31 c 0,11,12
 228 -30 228 -30 202 -85.5 c 128,-1,13
 176 -141 176 -141 150 -167.5 c 128,-1,14
 124 -194 124 -194 114 -194 c 0,15,16
 108 -194 108 -194 101.5 -187.5 c 128,-1,17
 95 -181 95 -181 95 -174 c 0,18,19
 95 -168 95 -168 107 -157 c 0,20,21
 185 -88 185 -88 191 18 c 1,0,1
EndSplineSet
EndChar

StartChar: hyphen
Encoding: 45 45 64
Width: 333
VWidth: 1000
Flags: W
HStem: 174 97<11 276>
VStem: 11 265<174 271>
LayerCount: 2
Fore
SplineSet
276 174 m 1,0,-1
 11 174 l 1,1,-1
 11 271 l 1,2,-1
 276 271 l 1,3,-1
 276 174 l 1,0,-1
EndSplineSet
EndChar

StartChar: period
Encoding: 46 46 65
Width: 277
VWidth: 1000
Flags: W
HStem: 0 156<84.7209 193.279>
VStem: 61 156<23.7209 132.279>
LayerCount: 2
Fore
SplineSet
217 78 m 128,-1,1
 217 46 217 46 194 23 c 128,-1,2
 171 0 171 0 139 0 c 128,-1,3
 107 0 107 0 84 23 c 128,-1,4
 61 46 61 46 61 78 c 128,-1,5
 61 110 61 110 84 133 c 128,-1,6
 107 156 107 156 139 156 c 128,-1,7
 171 156 171 156 194 133 c 128,-1,0
 217 110 217 110 217 78 c 128,-1,1
EndSplineSet
EndChar

StartChar: slash
Encoding: 47 47 66
Width: 500
VWidth: 1000
Flags: W
VStem: 56 63<-241.233 -220> 381 62<722 741.233>
LayerCount: 2
Fore
SplineSet
438 700 m 2,0,-1
 119 -220 l 1,1,2
 110 -250 110 -250 86 -250 c 0,3,4
 75 -250 75 -250 65.5 -241.5 c 128,-1,5
 56 -233 56 -233 56 -219 c 0,6,7
 56 -213 56 -213 61 -200 c 2,8,-1
 381 722 l 2,9,10
 391 750 391 750 413 750 c 0,11,12
 424 750 424 750 433.5 741.5 c 128,-1,13
 443 733 443 733 443 719 c 0,14,15
 443 713 443 713 438 700 c 2,0,-1
EndSplineSet
EndChar

StartChar: digit0
Encoding: 48 48 67
Width: 500
VWidth: 1000
Flags: W
HStem: -11 36<205.204 293.365> 619 36<202.712 294.602>
VStem: 39 128<130.238 510.644> 328 132<128.531 509.644>
LayerCount: 2
Fore
SplineSet
460 319 m 0,0,1
 460 296 460 296 460 282 c 128,-1,2
 460 268 460 268 458 239 c 128,-1,3
 456 210 456 210 452.5 190 c 128,-1,4
 449 170 449 170 441.5 142 c 128,-1,5
 434 114 434 114 424 94.5 c 128,-1,6
 414 75 414 75 397.5 53.5 c 128,-1,7
 381 32 381 32 360.5 19 c 128,-1,8
 340 6 340 6 311.5 -2.5 c 128,-1,9
 283 -11 283 -11 249 -11 c 0,10,11
 206 -11 206 -11 171.5 3 c 128,-1,12
 137 17 137 17 115.5 37 c 128,-1,13
 94 57 94 57 78.5 89.5 c 128,-1,14
 63 122 63 122 55.5 148 c 128,-1,15
 48 174 48 174 44 212.5 c 128,-1,16
 40 251 40 251 39.5 270 c 128,-1,17
 39 289 39 289 39 319 c 0,18,19
 39 350 39 350 39.5 369 c 128,-1,20
 40 388 40 388 44 427 c 128,-1,21
 48 466 48 466 55.5 492.5 c 128,-1,22
 63 519 63 519 78.5 552.5 c 128,-1,23
 94 586 94 586 115.5 606 c 128,-1,24
 137 626 137 626 172 640.5 c 128,-1,25
 207 655 207 655 250 655 c 128,-1,26
 293 655 293 655 327.5 640.5 c 128,-1,27
 362 626 362 626 383.5 605.5 c 128,-1,28
 405 585 405 585 420.5 551.5 c 128,-1,29
 436 518 436 518 443.5 491.5 c 128,-1,30
 451 465 451 465 455 426 c 128,-1,31
 459 387 459 387 459.5 368 c 128,-1,32
 460 349 460 349 460 319 c 0,0,1
250 25 m 0,33,34
 264 25 264 25 278 31 c 128,-1,35
 292 37 292 37 308.5 61.5 c 128,-1,36
 325 86 325 86 328 126 c 0,37,38
 332 174 332 174 332 331 c 0,39,40
 332 476 332 476 328 521 c 0,41,42
 324 575 324 575 300 597 c 128,-1,43
 276 619 276 619 249 619 c 0,44,45
 242 619 242 619 233 616.5 c 128,-1,46
 224 614 224 614 209.5 606 c 128,-1,47
 195 598 195 598 184 575.5 c 128,-1,48
 173 553 173 553 170 520 c 0,49,50
 167 477 167 477 167 330 c 0,51,52
 167 182 167 182 171 131 c 0,53,54
 173 98 173 98 182.5 75 c 128,-1,55
 192 52 192 52 206 42 c 128,-1,56
 220 32 220 32 230 28.5 c 128,-1,57
 240 25 240 25 250 25 c 0,33,34
EndSplineSet
EndChar

StartChar: digit1
Encoding: 49 49 68
Width: 500
VWidth: 1000
Flags: W
HStem: 3 44<83 195 314 430> 544 47<69 193.339>
VStem: 195 119<47 561>
LayerCount: 2
Fore
SplineSet
314 623 m 2,0,-1
 314 47 l 1,1,-1
 430 47 l 1,2,-1
 430 0 l 1,3,4
 392 3 392 3 255 3 c 0,5,6
 121 3 121 3 83 0 c 1,7,-1
 83 47 l 1,8,-1
 195 47 l 1,9,-1
 195 561 l 1,10,11
 142 544 142 544 69 544 c 1,12,-1
 69 591 l 1,13,14
 209 591 209 591 275 655 c 1,15,16
 302 655 302 655 308 650.5 c 128,-1,17
 314 646 314 646 314 623 c 2,0,-1
EndSplineSet
EndChar

StartChar: digit2
Encoding: 50 50 69
Width: 500
VWidth: 1000
Flags: W
HStem: 0 125<169 379.824> 608 47<146.23 273.204>
VStem: 50 144<448.082 548.919> 311 138<381.368 555.221> 402 47<170.668 222>
LayerCount: 2
Fore
SplineSet
449 222 m 1,0,-1
 418 0 l 1,1,-1
 50 0 l 1,2,-1
 50 18 l 2,3,4
 50 39 50 39 60 51 c 2,5,-1
 218 249 l 2,6,7
 311 365 311 365 311 466 c 0,8,9
 311 486 311 486 307.5 506.5 c 128,-1,10
 304 527 304 527 295 552 c 128,-1,11
 286 577 286 577 265.5 592.5 c 128,-1,12
 245 608 245 608 215 608 c 0,13,14
 164 608 164 608 133 573 c 1,15,16
 160 568 160 568 177 549.5 c 128,-1,17
 194 531 194 531 194 501 c 0,18,19
 194 466 194 466 171.5 447.5 c 128,-1,20
 149 429 149 429 122 429 c 0,21,22
 97 429 97 429 73.5 446.5 c 128,-1,23
 50 464 50 464 50 503 c 0,24,25
 50 566 50 566 104 610.5 c 128,-1,26
 158 655 158 655 237 655 c 0,27,28
 329 655 329 655 389 601.5 c 128,-1,29
 449 548 449 548 449 466 c 0,30,31
 449 389 449 389 379 318 c 0,32,33
 369 308 369 308 333 277 c 128,-1,34
 297 246 297 246 287 236 c 0,35,36
 274 224 274 224 228 180.5 c 128,-1,37
 182 137 182 137 169 125 c 1,38,-1
 289 125 l 2,39,40
 375 125 375 125 380 133 c 0,41,42
 393 150 393 150 402 222 c 1,43,-1
 449 222 l 1,0,-1
EndSplineSet
EndChar

StartChar: digit3
Encoding: 51 51 70
Width: 500
VWidth: 1000
Flags: W
HStem: -11 43<149.459 277.403> 330.5 32.5<171.125 194.658> 616 39<164.725 276.121>
VStem: 42 153<86.5083 195.341> 69 139<461.627 553.343> 293 137<434.714 586.283> 304 153<90.2743 263.529>
LayerCount: 2
Fore
SplineSet
221 330 m 2,0,-1
 195 330 l 2,1,2
 184 330 184 330 179.5 330.5 c 128,-1,3
 175 331 175 331 171 335 c 128,-1,4
 167 339 167 339 167 348 c 0,5,6
 167 360 167 360 173 363 c 128,-1,7
 179 366 179 366 199 368 c 0,8,9
 216 369 216 369 225 370.5 c 128,-1,10
 234 372 234 372 245 376.5 c 128,-1,11
 256 381 256 381 263.5 391 c 128,-1,12
 271 401 271 401 278 417 c 1,13,14
 293 458 293 458 293 520 c 0,15,16
 293 538 293 538 291.5 550 c 128,-1,17
 290 562 290 562 285 579.5 c 128,-1,18
 280 597 280 597 266 606.5 c 128,-1,19
 252 616 252 616 230 616 c 0,20,21
 179 616 179 616 144 579 c 1,22,23
 180 575 180 575 194 554 c 128,-1,24
 208 533 208 533 208 510 c 0,25,26
 208 481 208 481 189 461 c 128,-1,27
 170 441 170 441 138 441 c 0,28,29
 109 441 109 441 89 459.5 c 128,-1,30
 69 478 69 478 69 512 c 0,31,32
 69 568 69 568 115 611.5 c 128,-1,33
 161 655 161 655 236 655 c 0,34,35
 325 655 325 655 377.5 616.5 c 128,-1,36
 430 578 430 578 430 516 c 0,37,38
 430 455 430 455 391 412.5 c 128,-1,39
 352 370 352 370 304 351 c 1,40,41
 387 332 387 332 422 283.5 c 128,-1,42
 457 235 457 235 457 180 c 0,43,44
 457 98 457 98 397.5 43.5 c 128,-1,45
 338 -11 338 -11 234 -11 c 0,46,47
 151 -11 151 -11 96.5 33 c 128,-1,48
 42 77 42 77 42 139 c 0,49,50
 42 176 42 176 64 196.5 c 128,-1,51
 86 217 86 217 119 217 c 128,-1,52
 152 217 152 217 173.5 196 c 128,-1,53
 195 175 195 175 195 141 c 0,54,55
 195 109 195 109 176.5 89.5 c 128,-1,56
 158 70 158 70 132 65 c 1,57,58
 173 32 173 32 229 32 c 0,59,60
 250 32 250 32 265.5 43 c 128,-1,61
 281 54 281 54 288 68 c 128,-1,62
 295 82 295 82 299 106 c 128,-1,63
 303 130 303 130 303.5 144 c 128,-1,64
 304 158 304 158 304 181 c 0,65,66
 304 208 304 208 303 225.5 c 128,-1,67
 302 243 302 243 297.5 265 c 128,-1,68
 293 287 293 287 284.5 299.5 c 128,-1,69
 276 312 276 312 260 321 c 128,-1,70
 244 330 244 330 221 330 c 2,0,-1
EndSplineSet
EndChar

StartChar: digit4
Encoding: 52 52 71
Width: 500
VWidth: 1000
Flags: W
HStem: 3 44<173 270 395 471> 156 47<77 270 395 471>
VStem: 270 125<47 156> 281 114<203 493>
LayerCount: 2
Fore
SplineSet
395 156 m 1,0,-1
 395 47 l 1,1,-1
 471 47 l 1,2,-1
 471 0 l 1,3,4
 432 3 432 3 329 3 c 0,5,6
 208 3 208 3 173 0 c 1,7,-1
 173 47 l 1,8,-1
 270 47 l 1,9,-1
 270 156 l 1,10,-1
 28 156 l 1,11,-1
 28 203 l 1,12,-1
 335 641 l 2,13,14
 342 652 342 652 347.5 654 c 128,-1,15
 353 656 353 656 366 656 c 0,16,17
 386 656 386 656 390.5 650 c 128,-1,18
 395 644 395 644 395 624 c 2,19,-1
 395 203 l 1,20,-1
 471 203 l 1,21,-1
 471 156 l 1,22,-1
 395 156 l 1,0,-1
281 493 m 1,23,-1
 77 203 l 1,24,-1
 281 203 l 1,25,-1
 281 493 l 1,23,-1
EndSplineSet
EndChar

StartChar: digit5
Encoding: 53 53 72
Width: 500
VWidth: 1000
Flags: W
HStem: -11 43<152.04 273.874> 373 36<175.662 284.278> 499 124<143.579 295.94>
VStem: 50 134<114.596 211.98> 90 53<378 504> 307 142<102.224 304.188>
LayerCount: 2
Fore
SplineSet
143 504 m 1,0,-1
 143 378 l 1,1,2
 188 409 188 409 248 409 c 0,3,4
 338 409 338 409 393.5 352 c 128,-1,5
 449 295 449 295 449 202 c 0,6,7
 449 104 449 104 384.5 46.5 c 128,-1,8
 320 -11 320 -11 220 -11 c 0,9,10
 143 -11 143 -11 96.5 41.5 c 128,-1,11
 50 94 50 94 50 159 c 0,12,13
 50 187 50 187 64.5 204 c 128,-1,14
 79 221 79 221 92.5 225 c 128,-1,15
 106 229 106 229 117 229 c 0,16,17
 141 229 141 229 162.5 212.5 c 128,-1,18
 184 196 184 196 184 161 c 0,19,20
 184 133 184 133 166.5 114 c 128,-1,21
 149 95 149 95 115 94 c 1,22,23
 132 64 132 64 160 48 c 128,-1,24
 188 32 188 32 216 32 c 0,25,26
 242 32 242 32 264.5 46 c 128,-1,27
 287 60 287 60 296 87 c 0,28,29
 307 117 307 117 307 208 c 0,30,31
 307 238 307 238 306.5 253 c 128,-1,32
 306 268 306 268 304.5 291 c 128,-1,33
 303 314 303 314 299 325.5 c 128,-1,34
 295 337 295 337 288.5 350 c 128,-1,35
 282 363 282 363 270.5 368 c 128,-1,36
 259 373 259 373 244 373 c 0,37,38
 173 373 173 373 133 315 c 0,39,40
 126 305 126 305 113 305 c 0,41,42
 97 305 97 305 93.5 312.5 c 128,-1,43
 90 320 90 320 90 338 c 2,44,-1
 90 626 l 2,45,46
 90 636 90 636 90.5 641 c 128,-1,47
 91 646 91 646 94.5 650.5 c 128,-1,48
 98 655 98 655 105 655 c 1,49,-1
 117 651 l 1,50,51
 182 623 182 623 250 623 c 128,-1,52
 318 623 318 623 383 650 c 1,53,54
 391 655 391 655 396 655 c 0,55,56
 410 655 410 655 410 637 c 0,57,58
 410 626 410 626 395 604.5 c 128,-1,59
 380 583 380 583 354 558.5 c 128,-1,60
 328 534 328 534 285 516.5 c 128,-1,61
 242 499 242 499 195 499 c 0,62,63
 163 499 163 499 143 504 c 1,0,-1
EndSplineSet
EndChar

StartChar: digit6
Encoding: 54 54 73
Width: 500
VWidth: 1000
Flags: W
HStem: -11 43<206.121 297.817> 382 36<212.642 298.802> 616 39<244.612 359.156>
VStem: 42 137<141.073 349.855 369 468.676> 307 125<484.564 571.497> 321 136<95.506 316.09>
LayerCount: 2
Fore
SplineSet
178 369 m 1,0,1
 205 418 205 418 263 418 c 0,2,3
 344 418 344 418 400.5 363.5 c 128,-1,4
 457 309 457 309 457 205 c 128,-1,5
 457 101 457 101 398.5 45 c 128,-1,6
 340 -11 340 -11 253 -11 c 0,7,8
 210 -11 210 -11 175 4.5 c 128,-1,9
 140 20 140 20 118.5 42 c 128,-1,10
 97 64 97 64 81.5 98 c 128,-1,11
 66 132 66 132 58.5 159 c 128,-1,12
 51 186 51 186 47 223 c 128,-1,13
 43 260 43 260 42.5 276.5 c 128,-1,14
 42 293 42 293 42 316 c 0,15,16
 42 396 42 396 61 459 c 128,-1,17
 80 522 80 522 108 557.5 c 128,-1,18
 136 593 136 593 173 616 c 128,-1,19
 210 639 210 639 241.5 647 c 128,-1,20
 273 655 273 655 303 655 c 0,21,22
 369 655 369 655 400.5 617 c 128,-1,23
 432 579 432 579 432 531 c 0,24,25
 432 500 432 500 414.5 483 c 128,-1,26
 397 466 397 466 369 466 c 128,-1,27
 341 466 341 466 324 484 c 128,-1,28
 307 502 307 502 307 528 c 0,29,30
 307 556 307 556 324.5 572 c 128,-1,31
 342 588 342 588 365 591 c 1,32,33
 344 616 344 616 305 616 c 0,34,35
 292 616 292 616 278 612 c 128,-1,36
 264 608 264 608 243.5 596 c 128,-1,37
 223 584 223 584 207 555 c 128,-1,38
 191 526 191 526 185 483 c 0,39,40
 178 435 178 435 178 369 c 1,0,1
251 32 m 0,41,42
 279 32 279 32 296.5 48 c 128,-1,43
 314 64 314 64 318 92 c 1,44,45
 321 122 321 122 321 209 c 0,46,47
 321 298 321 298 318 324 c 0,48,49
 315 349 315 349 298.5 365.5 c 128,-1,50
 282 382 282 382 256 382 c 0,51,52
 229 382 229 382 212 364.5 c 128,-1,53
 195 347 195 347 188.5 313.5 c 128,-1,54
 182 280 182 280 180.5 258.5 c 128,-1,55
 179 237 179 237 179 204 c 0,56,57
 179 109 179 109 187 88 c 0,58,59
 207 32 207 32 251 32 c 0,41,42
EndSplineSet
EndChar

StartChar: digit7
Encoding: 55 55 74
Width: 500
VWidth: 1000
Flags: W
HStem: -11 21G<219 228> 519 125<142.58 357>
VStem: 56 47<422 474.019> 91 47<663.126 676> 160 125<2.57678 204.602>
LayerCount: 2
Fore
SplineSet
476 598 m 2,0,-1
 340 413 l 2,1,2
 285 339 285 339 285 113 c 2,3,-1
 285 60 l 2,4,5
 285 30 285 30 271.5 12.5 c 128,-1,6
 258 -5 258 -5 246 -8 c 128,-1,7
 234 -11 234 -11 222 -11 c 0,8,9
 216 -11 216 -11 209 -9.5 c 128,-1,10
 202 -8 202 -8 189 -2.5 c 128,-1,11
 176 3 176 3 168 19 c 128,-1,12
 160 35 160 35 160 60 c 0,13,14
 160 115 160 115 173.5 173 c 128,-1,15
 187 231 187 231 203.5 272 c 128,-1,16
 220 313 220 313 242 352.5 c 128,-1,17
 264 392 264 392 273 405.5 c 128,-1,18
 282 419 282 419 288 427 c 2,19,-1
 357 519 l 1,20,-1
 223 519 l 2,21,22
 131 519 131 519 126 511 c 1,23,24
 114 496 114 496 103 422 c 1,25,-1
 56 422 l 1,26,-1
 91 676 l 1,27,-1
 138 676 l 1,28,29
 140 667 140 667 142.5 663 c 128,-1,30
 145 659 145 659 155.5 654.5 c 128,-1,31
 166 650 166 650 187 648 c 0,32,33
 222 644 222 644 267 644 c 2,34,-1
 485 644 l 1,35,-1
 485 617 l 2,36,37
 485 609 485 609 476 598 c 2,0,-1
EndSplineSet
EndChar

StartChar: digit8
Encoding: 56 56 75
Width: 500
VWidth: 1000
Flags: W
HStem: -11 43<177.12 329.016> 616 39<175.464 314.759>
VStem: 42 86<81.4904 248.787> 69 75<429.5 569.726> 355 75<433.273 578.502> 371 86<92.1862 192.987>
LayerCount: 2
Fore
SplineSet
344 371 m 1,0,1
 364 358 364 358 377.5 347.5 c 128,-1,2
 391 337 391 337 412.5 314.5 c 128,-1,3
 434 292 434 292 445.5 260 c 128,-1,4
 457 228 457 228 457 189 c 0,5,6
 457 103 457 103 402 46 c 128,-1,7
 347 -11 347 -11 248 -11 c 0,8,9
 158 -11 158 -11 100 34.5 c 128,-1,10
 42 80 42 80 42 162 c 0,11,12
 42 223 42 223 72 260 c 128,-1,13
 102 297 102 297 151 327 c 1,14,15
 69 381 69 381 69 478 c 0,16,17
 69 553 69 553 116.5 604 c 128,-1,18
 164 655 164 655 251 655 c 0,19,20
 330 655 330 655 380 615.5 c 128,-1,21
 430 576 430 576 430 507 c 0,22,23
 430 429 430 429 344 371 c 1,0,1
185 474 m 2,24,-1
 303 398 l 1,25,26
 355 439 355 439 355 507 c 0,27,28
 355 553 355 553 328 584.5 c 128,-1,29
 301 616 301 616 248 616 c 0,30,31
 204 616 204 616 174 596 c 128,-1,32
 144 576 144 576 144 538 c 128,-1,33
 144 500 144 500 185 474 c 2,24,-1
193 299 m 1,34,35
 128 245 128 245 128 163 c 0,36,37
 128 105 128 105 160 68.5 c 128,-1,38
 192 32 192 32 251 32 c 0,39,40
 303 32 303 32 337 58.5 c 128,-1,41
 371 85 371 85 371 133 c 0,42,43
 371 157 371 157 359.5 177 c 128,-1,44
 348 197 348 197 336 206 c 128,-1,45
 324 215 324 215 299 232 c 1,46,-1
 193 299 l 1,34,35
EndSplineSet
EndChar

StartChar: digit9
Encoding: 57 57 76
Width: 500
VWidth: 1000
Flags: W
HStem: -11 43<141.111 265.945> 227 36<199.747 286.899> 616 39<203.92 293.17>
VStem: 42 136<329.832 544.959> 67 125<67.7656 159.436> 321 136<170.672 276 296.947 507.234>
LayerCount: 2
Fore
SplineSet
321 276 m 1,0,1
 295 227 295 227 236 227 c 0,2,3
 154 227 154 227 98 282 c 128,-1,4
 42 337 42 337 42 440 c 0,5,6
 42 538 42 538 101 596 c 0,7,8
 160 655 160 655 251 655 c 0,9,10
 293 655 293 655 327 640 c 128,-1,11
 361 625 361 625 382 603 c 128,-1,12
 403 581 403 581 418.5 547 c 128,-1,13
 434 513 434 513 441 486 c 128,-1,14
 448 459 448 459 452 422.5 c 128,-1,15
 456 386 456 386 456.5 369.5 c 128,-1,16
 457 353 457 353 457 330 c 0,17,18
 457 249 457 249 439.5 186 c 128,-1,19
 422 123 422 123 395 87 c 128,-1,20
 368 51 368 51 333 28 c 128,-1,21
 298 5 298 5 268 -3 c 128,-1,22
 238 -11 238 -11 208 -11 c 0,23,24
 140 -11 140 -11 103.5 25 c 128,-1,25
 67 61 67 61 67 113 c 0,26,27
 67 144 67 144 84.5 161 c 128,-1,28
 102 178 102 178 130 178 c 128,-1,29
 158 178 158 178 175 160 c 128,-1,30
 192 142 192 142 192 116 c 0,31,32
 192 91 192 91 177.5 74.5 c 128,-1,33
 163 58 163 58 140 54 c 1,34,35
 164 32 164 32 206 32 c 0,36,37
 261 32 261 32 293 85 c 1,38,39
 313 121 313 121 318 198 c 1,40,-1
 321 276 l 1,0,1
243 263 m 0,41,42
 289 263 289 263 305 312.5 c 128,-1,43
 321 362 321 362 321 446 c 0,44,45
 321 536 321 536 314 557 c 0,46,47
 295 616 295 616 253 616 c 0,48,49
 222 616 222 616 205 599 c 128,-1,50
 188 582 188 582 184 562 c 0,51,52
 178 535 178 535 178 435 c 0,53,54
 178 346 178 346 181 320 c 0,55,56
 184 296 184 296 200 279.5 c 128,-1,57
 216 263 216 263 243 263 c 0,41,42
EndSplineSet
EndChar

StartChar: colon
Encoding: 58 58 77
Width: 277
VWidth: 1000
Flags: W
HStem: 0 156<84.7209 193.279> 288 156<84.7209 193.279>
VStem: 61 156<23.7209 132.279 311.721 420.279>
LayerCount: 2
Fore
SplineSet
217 366 m 128,-1,1
 217 334 217 334 194 311 c 128,-1,2
 171 288 171 288 139 288 c 128,-1,3
 107 288 107 288 84 311 c 128,-1,4
 61 334 61 334 61 366 c 128,-1,5
 61 398 61 398 84 421 c 128,-1,6
 107 444 107 444 139 444 c 128,-1,7
 171 444 171 444 194 421 c 128,-1,0
 217 398 217 398 217 366 c 128,-1,1
217 78 m 128,-1,9
 217 46 217 46 194 23 c 128,-1,10
 171 0 171 0 139 0 c 128,-1,11
 107 0 107 0 84 23 c 128,-1,12
 61 46 61 46 61 78 c 128,-1,13
 61 110 61 110 84 133 c 128,-1,14
 107 156 107 156 139 156 c 128,-1,15
 171 156 171 156 194 133 c 128,-1,8
 217 110 217 110 217 78 c 128,-1,9
EndSplineSet
EndChar

StartChar: semicolon
Encoding: 59 59 78
Width: 277
VWidth: 1000
Flags: W
HStem: 0 156<83.1749 182.374> 288 156<84.7209 193.279>
VStem: 61 159<23.7209 122.085 315.392 416.608>
LayerCount: 2
Fore
SplineSet
217 366 m 128,-1,1
 217 334 217 334 194 311 c 128,-1,2
 171 288 171 288 139 288 c 128,-1,3
 107 288 107 288 84 311 c 128,-1,4
 61 334 61 334 61 366 c 128,-1,5
 61 398 61 398 84 421 c 128,-1,6
 107 444 107 444 139 444 c 128,-1,7
 171 444 171 444 194 421 c 128,-1,0
 217 398 217 398 217 366 c 128,-1,1
183 12 m 1,8,9
 163 0 163 0 139 0 c 0,10,11
 103 0 103 0 82 23 c 128,-1,12
 61 46 61 46 61 78 c 0,13,14
 61 111 61 111 82.5 133.5 c 128,-1,15
 104 156 104 156 138 156 c 0,16,17
 177 156 177 156 198.5 121 c 128,-1,18
 220 86 220 86 220 31 c 0,19,20
 220 -6 220 -6 210.5 -42.5 c 128,-1,21
 201 -79 201 -79 187 -105.5 c 128,-1,22
 173 -132 173 -132 158 -152.5 c 128,-1,23
 143 -173 143 -173 131 -183.5 c 128,-1,24
 119 -194 119 -194 114 -194 c 0,25,26
 108 -194 108 -194 101.5 -187.5 c 128,-1,27
 95 -181 95 -181 95 -174 c 128,-1,28
 95 -167 95 -167 110 -153 c 1,29,30
 174 -86 174 -86 183 12 c 1,8,9
EndSplineSet
EndChar

StartChar: equal
Encoding: 61 61 79
Width: 777
VWidth: 1000
Flags: W
HStem: 108 61<57.2112 719.789> 332 61<57.2112 719.789>
LayerCount: 2
Fore
SplineSet
680 332 m 2,0,-1
 97 332 l 2,1,2
 56 332 56 332 56 362 c 0,3,4
 56 393 56 393 102 393 c 2,5,-1
 675 393 l 2,6,7
 721 393 721 393 721 362 c 0,8,9
 721 332 721 332 680 332 c 2,0,-1
675 108 m 2,10,-1
 102 108 l 2,11,12
 56 108 56 108 56 139 c 0,13,14
 56 169 56 169 97 169 c 2,15,-1
 680 169 l 2,16,17
 721 169 721 169 721 139 c 0,18,19
 721 108 721 108 675 108 c 2,10,-1
EndSplineSet
EndChar

StartChar: question
Encoding: 63 63 80
Width: 472
VWidth: 1000
Flags: W
HStem: 0 156<167.721 276.279> 664 36<151.822 276.416>
VStem: 56 125<526.534 619.356> 144 156<23.7209 132.279> 199 47<231.16 373.077> 287 128<501.221 644.002>
LayerCount: 2
Fore
SplineSet
246 285 m 2,0,-1
 246 256 l 2,1,2
 246 236 246 236 242.5 231 c 128,-1,3
 239 226 239 226 222 226 c 0,4,5
 206 226 206 226 202.5 230.5 c 128,-1,6
 199 235 199 235 199 253 c 2,7,-1
 199 294 l 2,8,9
 199 396 199 396 265 494 c 0,10,11
 278 512 278 512 282.5 527 c 128,-1,12
 287 542 287 542 287 579 c 0,13,14
 287 605 287 605 286 616.5 c 128,-1,15
 285 628 285 628 279 641.5 c 128,-1,16
 273 655 273 655 259.5 659.5 c 128,-1,17
 246 664 246 664 222 664 c 0,18,19
 168 664 168 664 133 633 c 1,20,21
 154 627 154 627 167.5 611.5 c 128,-1,22
 181 596 181 596 181 572 c 0,23,24
 181 543 181 543 162.5 526 c 128,-1,25
 144 509 144 509 118 509 c 0,26,27
 95 509 95 509 75.5 524.5 c 128,-1,28
 56 540 56 540 56 573 c 0,29,30
 56 624 56 624 101.5 662 c 128,-1,31
 147 700 147 700 228 700 c 0,32,33
 242 700 242 700 253.5 699 c 128,-1,34
 265 698 265 698 290 695 c 128,-1,35
 315 692 315 692 334 683.5 c 128,-1,36
 353 675 353 675 373 662 c 128,-1,37
 393 649 393 649 404 625.5 c 128,-1,38
 415 602 415 602 415 571 c 0,39,40
 415 509 415 509 363 474 c 0,41,42
 246 394 246 394 246 285 c 2,0,-1
300 78 m 128,-1,44
 300 46 300 46 277 23 c 128,-1,45
 254 0 254 0 222 0 c 128,-1,46
 190 0 190 0 167 23 c 128,-1,47
 144 46 144 46 144 78 c 128,-1,48
 144 110 144 110 167 133 c 128,-1,49
 190 156 190 156 222 156 c 128,-1,50
 254 156 254 156 277 133 c 128,-1,43
 300 110 300 110 300 78 c 128,-1,44
EndSplineSet
EndChar

StartChar: atmark
Encoding: 64 64 81
Width: 777
VWidth: 1000
Flags: W
HStem: -6 36<283.94 530.618> 128 36<349.428 443.845 593.204 648.095> 530 36<349.428 444.795> 664 36<285.554 493.463>
VStem: 56 47<208.541 485.059> 189 114<234.919 459.081> 474 114<188.548 477.779> 674 47<193.171 478.283>
LayerCount: 2
Fore
SplineSet
588 453 m 2,0,-1
 588 221 l 2,1,2
 588 164 588 164 614 164 c 0,3,4
 634 164 634 164 647 178 c 128,-1,5
 660 192 660 192 665.5 219 c 128,-1,6
 671 246 671 246 672.5 270.5 c 128,-1,7
 674 295 674 295 674 332 c 0,8,9
 674 487 674 487 600 573 c 0,10,11
 522 664 522 664 388 664 c 0,12,13
 265 664 265 664 184 581 c 128,-1,14
 103 498 103 498 103 347 c 0,15,16
 103 201 103 201 181.5 115.5 c 128,-1,17
 260 30 260 30 391 30 c 0,18,19
 515 30 515 30 638 86 c 0,20,21
 651 93 651 93 669 93 c 2,22,-1
 693 93 l 2,23,24
 721 93 721 93 721 79 c 0,25,26
 722 76 722 76 720 72 c 2,27,-1
 718 69 l 1,28,29
 650 32 650 32 546 11 c 0,30,31
 466 -6 466 -6 392 -6 c 0,32,33
 237 -6 237 -6 146.5 91.5 c 128,-1,34
 56 189 56 189 56 347 c 0,35,36
 56 511 56 511 149 605.5 c 128,-1,37
 242 700 242 700 388 700 c 0,38,39
 531 700 531 700 626 607.5 c 128,-1,40
 721 515 721 515 721 343 c 0,41,42
 721 237 721 237 694 182.5 c 128,-1,43
 667 128 667 128 605 128 c 0,44,45
 527 128 527 128 491 168 c 1,46,47
 446 128 446 128 387 128 c 0,48,49
 304 128 304 128 246.5 185 c 128,-1,50
 189 242 189 242 189 347 c 128,-1,51
 189 452 189 452 246.5 509 c 128,-1,52
 304 566 304 566 387 566 c 0,53,54
 480 566 480 566 524 482 c 1,55,-1
 558 482 l 2,56,57
 580 482 580 482 584 478 c 128,-1,58
 588 474 588 474 588 453 c 2,0,-1
474 211 m 1,59,-1
 474 453 l 2,60,61
 474 471 474 471 477 478 c 1,62,63
 442 530 442 530 390 530 c 0,64,65
 353 530 353 530 328 483 c 128,-1,66
 303 436 303 436 303 347 c 128,-1,67
 303 258 303 258 328 211 c 128,-1,68
 353 164 353 164 390 164 c 0,69,70
 437 164 437 164 474 211 c 1,59,-1
EndSplineSet
EndChar

StartChar: iexclamation
Encoding: 161 161 82
Width: 305
VWidth: 1000
Flags: W
HStem: 344 156<98.7209 207.279>
VStem: 75 156<-183.996 27.75 367.721 476.279>
LayerCount: 2
Fore
SplineSet
231 422 m 128,-1,1
 231 390 231 390 208 367 c 128,-1,2
 185 344 185 344 153 344 c 128,-1,3
 121 344 121 344 98 367 c 128,-1,4
 75 390 75 390 75 422 c 128,-1,5
 75 454 75 454 98 477 c 128,-1,6
 121 500 121 500 153 500 c 128,-1,7
 185 500 185 500 208 477 c 128,-1,0
 231 454 231 454 231 422 c 128,-1,1
76 -121 m 2,8,-1
 128 249 l 2,9,10
 130 266 130 266 134 270 c 128,-1,11
 138 274 138 274 153 274 c 0,12,13
 167 274 167 274 171.5 270 c 128,-1,14
 176 266 176 266 178 252 c 2,15,-1
 230 -116 l 2,16,17
 232 -126 232 -126 232 -134 c 0,18,19
 232 -163 232 -163 208.5 -184 c 128,-1,20
 185 -205 185 -205 153 -205 c 128,-1,21
 121 -205 121 -205 97.5 -184 c 128,-1,22
 74 -163 74 -163 74 -134 c 0,23,24
 74 -133 74 -133 75 -127.5 c 128,-1,25
 76 -122 76 -122 76 -121 c 2,8,-1
EndSplineSet
EndChar

StartChar: iquestion
Encoding: 191 191 83
Width: 472
VWidth: 1000
Flags: W
HStem: -200 36<189.537 311.249> -29 20G<340 364.5> 344 156<167.721 276.279>
VStem: 56 128<-145.247 2.16833> 144 156<367.721 476.279> 199 47<120.85 271.421> 290 125<-120.737 -26.5342>
LayerCount: 2
Fore
SplineSet
300 422 m 128,-1,1
 300 390 300 390 277 367 c 128,-1,2
 254 344 254 344 222 344 c 128,-1,3
 190 344 190 344 167 367 c 128,-1,4
 144 390 144 390 144 422 c 128,-1,5
 144 454 144 454 167 477 c 128,-1,6
 190 500 190 500 222 500 c 128,-1,7
 254 500 254 500 277 477 c 128,-1,0
 300 454 300 454 300 422 c 128,-1,1
199 235 m 2,8,-1
 199 247 l 2,9,10
 199 260 199 260 200 264.5 c 128,-1,11
 201 269 201 269 205.5 271.5 c 128,-1,12
 210 274 210 274 222 274 c 0,13,14
 239 274 239 274 242.5 268.5 c 128,-1,15
 246 263 246 263 246 237 c 0,16,17
 246 112 246 112 198 8 c 0,18,19
 184 -23 184 -23 184 -85 c 0,20,21
 184 -137 184 -137 190 -150.5 c 128,-1,22
 196 -164 196 -164 226 -164 c 0,23,24
 290 -164 290 -164 335 -133 c 1,25,-1
 334 -132 l 2,26,27
 332 -132 332 -132 329.5 -131 c 128,-1,28
 327 -130 327 -130 324 -128.5 c 128,-1,29
 321 -127 321 -127 318 -125 c 128,-1,30
 315 -123 315 -123 311.5 -120 c 128,-1,31
 308 -117 308 -117 305 -113.5 c 128,-1,32
 302 -110 302 -110 299.5 -105.5 c 128,-1,33
 297 -101 297 -101 294.5 -96 c 128,-1,34
 292 -91 292 -91 291 -85 c 128,-1,35
 290 -79 290 -79 290 -72 c 0,36,37
 290 -43 290 -43 308.5 -26 c 128,-1,38
 327 -9 327 -9 353 -9 c 0,39,40
 376 -9 376 -9 395.5 -24.5 c 128,-1,41
 415 -40 415 -40 415 -73 c 0,42,43
 415 -131 415 -131 360.5 -165.5 c 128,-1,44
 306 -200 306 -200 221 -200 c 0,45,46
 204 -200 204 -200 191 -199 c 128,-1,47
 178 -198 178 -198 150.5 -191.5 c 128,-1,48
 123 -185 123 -185 104.5 -172.5 c 128,-1,49
 86 -160 86 -160 71 -133.5 c 128,-1,50
 56 -107 56 -107 56 -71 c 0,51,52
 56 -10 56 -10 101 26 c 0,53,54
 145 61 145 61 168.5 105 c 128,-1,55
 192 149 192 149 195.5 174.5 c 128,-1,56
 199 200 199 200 199 235 c 2,8,-1
EndSplineSet
EndChar

StartChar: lbracket
Encoding: 91 91 84
Width: 280
VWidth: 1000
Flags: W
HStem: -250 61<168 257> 689 61<168 257>
VStem: 107 150<-250 -189 689 750> 107 61<-189 689>
LayerCount: 2
Fore
SplineSet
257 -250 m 1,0,-1
 107 -250 l 1,1,-1
 107 750 l 1,2,-1
 257 750 l 1,3,-1
 257 689 l 1,4,-1
 168 689 l 1,5,-1
 168 -189 l 1,6,-1
 257 -189 l 1,7,-1
 257 -250 l 1,0,-1
EndSplineSet
EndChar

StartChar: rbracket
Encoding: 93 93 85
Width: 280
VWidth: 1000
Flags: W
HStem: -250 61<22 111> 689 61<22 111>
VStem: 22 150<-250 -189 689 750> 111 61<-189 689>
LayerCount: 2
Fore
SplineSet
172 750 m 1,0,-1
 172 -250 l 1,1,-1
 22 -250 l 1,2,-1
 22 -189 l 1,3,-1
 111 -189 l 1,4,-1
 111 689 l 1,5,-1
 22 689 l 1,6,-1
 22 750 l 1,7,-1
 172 750 l 1,0,-1
EndSplineSet
EndChar

StartChar: oslash
Encoding: 248 248 86
Width: 500
VWidth: 1000
Flags: W
HStem: -6 36<189.709 310.863> 417 36<190.995 308.973>
VStem: 28 114<108.872 332.009> 357 114<110.008 329.486>
LayerCount: 2
Fore
SplineSet
430 534 m 1,0,-1
 372 420 l 1,1,2
 419 391 419 391 445 337.5 c 128,-1,3
 471 284 471 284 471 219 c 0,4,5
 471 115 471 115 410 54.5 c 128,-1,6
 349 -6 349 -6 249 -6 c 0,7,8
 202 -6 202 -6 160 9 c 1,9,-1
 101 -105 l 1,10,-1
 69 -89 l 1,11,-1
 127 25 l 1,12,13
 28 85 28 85 28 219 c 0,14,15
 28 325 28 325 88.5 389 c 128,-1,16
 149 453 149 453 250 453 c 0,17,18
 298 453 298 453 340 437 c 1,19,-1
 398 550 l 1,20,-1
 430 534 l 1,0,-1
158 85 m 1,21,-1
 317 393 l 1,22,23
 289 417 289 417 250 417 c 0,24,25
 219 417 219 417 192 400 c 128,-1,26
 165 383 165 383 154 350 c 0,27,28
 142 314 142 314 142 219 c 0,29,30
 142 120 142 120 158 85 c 1,21,-1
341 360 m 1,31,-1
 183 53 l 1,32,33
 210 30 210 30 250 30 c 0,34,35
 314 30 314 30 340 83 c 0,36,37
 357 117 357 117 357 219 c 0,38,39
 357 322 357 322 341 360 c 1,31,-1
EndSplineSet
EndChar

StartChar: bquotet
Encoding: 96 96 87
Width: 277
VWidth: 1000
Flags: W
HStem: 344 156<84.4458 194.825> 674 20G<159 167>
VStem: 47 170<384.852 476.279>
LayerCount: 2
Fore
SplineSet
83 479 m 1,0,1
 104 500 104 500 139 500 c 0,2,3
 175 500 175 500 196 477 c 128,-1,4
 217 454 217 454 217 422 c 0,5,6
 217 389 217 389 195.5 366.5 c 128,-1,7
 174 344 174 344 140 344 c 0,8,9
 98 344 98 344 72.5 380 c 128,-1,10
 47 416 47 416 47 469 c 0,11,12
 47 531 47 531 74 586.5 c 128,-1,13
 101 642 101 642 127.5 668 c 128,-1,14
 154 694 154 694 164 694 c 0,15,16
 170 694 170 694 176.5 687.5 c 128,-1,17
 183 681 183 681 183 674 c 0,18,19
 183 668 183 668 169 655 c 0,20,21
 90 588 90 588 83 479 c 1,0,1
EndSplineSet
EndChar

StartChar: NameMe.8216
Encoding: 8216 -1 88
Width: 277
VWidth: 1000
Flags: W
HStem: 344 156<84.4458 194.825> 674 20G<159 167>
VStem: 47 170<384.852 476.279>
LayerCount: 2
Fore
SplineSet
83 479 m 1,0,1
 104 500 104 500 139 500 c 0,2,3
 175 500 175 500 196 477 c 128,-1,4
 217 454 217 454 217 422 c 0,5,6
 217 389 217 389 195.5 366.5 c 128,-1,7
 174 344 174 344 140 344 c 0,8,9
 98 344 98 344 72.5 380 c 128,-1,10
 47 416 47 416 47 469 c 0,11,12
 47 531 47 531 74 586.5 c 128,-1,13
 101 642 101 642 127.5 668 c 128,-1,14
 154 694 154 694 164 694 c 0,15,16
 170 694 170 694 176.5 687.5 c 128,-1,17
 183 681 183 681 183 674 c 0,18,19
 183 668 183 668 169 655 c 0,20,21
 90 588 90 588 83 479 c 1,0,1
EndSplineSet
EndChar

StartChar: NameMe.8217
Encoding: 8217 -1 89
Width: 277
VWidth: 1000
Flags: W
HStem: 538 156<83.1749 193.554>
VStem: 61 170<561.721 653.148>
LayerCount: 2
Fore
SplineSet
195 559 m 1,0,1
 174 538 174 538 139 538 c 0,2,3
 103 538 103 538 82 561 c 128,-1,4
 61 584 61 584 61 616 c 0,5,6
 61 649 61 649 82.5 671.5 c 128,-1,7
 104 694 104 694 138 694 c 0,8,9
 180 694 180 694 205.5 658 c 128,-1,10
 231 622 231 622 231 569 c 0,11,12
 231 507 231 507 204 451.5 c 128,-1,13
 177 396 177 396 150.5 370 c 128,-1,14
 124 344 124 344 114 344 c 0,15,16
 108 344 108 344 101.5 350.5 c 128,-1,17
 95 357 95 357 95 364 c 0,18,19
 95 370 95 370 109 383 c 0,20,21
 188 450 188 450 195 559 c 1,0,1
EndSplineSet
EndChar

StartChar: NameMe.8220
Encoding: 8220 -1 90
Width: 544
VWidth: 1000
Flags: W
HStem: 344 156<138.446 248.825 377.446 487.825> 674 20G<213 221 452 460>
VStem: 101 170<384.852 476.279> 340 170<384.852 476.279>
LayerCount: 2
Fore
SplineSet
137 479 m 1,0,1
 158 500 158 500 193 500 c 0,2,3
 229 500 229 500 250 477 c 128,-1,4
 271 454 271 454 271 422 c 0,5,6
 271 389 271 389 249.5 366.5 c 128,-1,7
 228 344 228 344 194 344 c 0,8,9
 152 344 152 344 126.5 380 c 128,-1,10
 101 416 101 416 101 469 c 0,11,12
 101 531 101 531 128 586.5 c 128,-1,13
 155 642 155 642 181.5 668 c 128,-1,14
 208 694 208 694 218 694 c 0,15,16
 224 694 224 694 230.5 687.5 c 128,-1,17
 237 681 237 681 237 674 c 0,18,19
 237 668 237 668 223 655 c 0,20,21
 144 588 144 588 137 479 c 1,0,1
376 479 m 1,22,23
 397 500 397 500 432 500 c 0,24,25
 468 500 468 500 489 477 c 128,-1,26
 510 454 510 454 510 422 c 0,27,28
 510 389 510 389 488.5 366.5 c 128,-1,29
 467 344 467 344 433 344 c 0,30,31
 391 344 391 344 365.5 380 c 128,-1,32
 340 416 340 416 340 469 c 0,33,34
 340 531 340 531 367 586.5 c 128,-1,35
 394 642 394 642 420.5 668 c 128,-1,36
 447 694 447 694 457 694 c 0,37,38
 463 694 463 694 469.5 687.5 c 128,-1,39
 476 681 476 681 476 674 c 0,40,41
 476 668 476 668 462 655 c 0,42,43
 383 588 383 588 376 479 c 1,22,23
EndSplineSet
EndChar

StartChar: NameMe.8221
Encoding: 8221 -1 91
Width: 544
VWidth: 1000
Flags: W
HStem: 538 156<55.1749 165.554 294.175 404.554>
VStem: 33 170<561.721 653.148> 272 170<561.721 653.148>
LayerCount: 2
Fore
SplineSet
167 559 m 1,0,1
 146 538 146 538 111 538 c 0,2,3
 75 538 75 538 54 561 c 128,-1,4
 33 584 33 584 33 616 c 0,5,6
 33 649 33 649 54.5 671.5 c 128,-1,7
 76 694 76 694 110 694 c 0,8,9
 152 694 152 694 177.5 658 c 128,-1,10
 203 622 203 622 203 569 c 0,11,12
 203 507 203 507 176 451.5 c 128,-1,13
 149 396 149 396 122.5 370 c 128,-1,14
 96 344 96 344 86 344 c 0,15,16
 80 344 80 344 73.5 350.5 c 128,-1,17
 67 357 67 357 67 364 c 0,18,19
 67 370 67 370 81 383 c 0,20,21
 160 450 160 450 167 559 c 1,0,1
406 559 m 1,22,23
 385 538 385 538 350 538 c 0,24,25
 314 538 314 538 293 561 c 128,-1,26
 272 584 272 584 272 616 c 0,27,28
 272 649 272 649 293.5 671.5 c 128,-1,29
 315 694 315 694 349 694 c 0,30,31
 391 694 391 694 416.5 658 c 128,-1,32
 442 622 442 622 442 569 c 0,33,34
 442 507 442 507 415 451.5 c 128,-1,35
 388 396 388 396 361.5 370 c 128,-1,36
 335 344 335 344 325 344 c 0,37,38
 319 344 319 344 312.5 350.5 c 128,-1,39
 306 357 306 357 306 364 c 0,40,41
 306 370 306 370 320 383 c 0,42,43
 399 450 399 450 406 559 c 1,22,23
EndSplineSet
EndChar

StartChar: Alpha
Encoding: 913 913 92
Width: 755
VWidth: 1000
Flags: W
HStem: 3 44<35 118.84 181.019 259 407 490 635 720> 182 47<240 426> 678 20G<370 383.5>
LayerCount: 2
Fore
SplineSet
415 672 m 2,0,-1
 635 47 l 1,1,-1
 720 47 l 1,2,-1
 720 0 l 1,3,4
 684 3 684 3 570 3 c 0,5,6
 443 3 443 3 407 0 c 1,7,-1
 407 47 l 1,8,-1
 490 47 l 1,9,-1
 443 182 l 1,10,-1
 224 182 l 1,11,-1
 185 71 l 2,12,13
 181 59 l 1,14,15
 181 47 181 47 259 47 c 1,16,-1
 259 0 l 1,17,18
 187 3 187 3 141 3 c 0,19,20
 122 3 122 3 35 0 c 1,21,-1
 35 47 l 1,22,23
 73 47 73 47 93 49 c 0,24,25
 114 51 114 51 119 54.5 c 128,-1,26
 124 58 124 58 128 70 c 2,27,-1
 340 672 l 2,28,29
 346 690 346 690 354 694 c 128,-1,30
 362 698 362 698 378 698 c 0,31,32
 389 698 389 698 394 697 c 128,-1,33
 399 696 399 696 405 690 c 128,-1,34
 411 684 411 684 415 672 c 2,0,-1
333 493 m 1,35,-1
 240 229 l 1,36,-1
 426 229 l 1,37,-1
 333 493 l 1,35,-1
EndSplineSet
EndChar

StartChar: Beta
Encoding: 914 914 93
Width: 711
VWidth: 1000
Flags: W
HStem: 0 47<34 128 259 466.301> 339 36<259 437.956> 639 47<34 128 259 454.813>
VStem: 128 131<47 339 375 639> 485 142<436.604 595.169> 507 147<97.293 269.485>
LayerCount: 2
Fore
SplineSet
34 686 m 1,0,-1
 412 686 l 2,1,2
 515 686 515 686 571 636 c 128,-1,3
 627 586 627 586 627 514 c 0,4,5
 627 457 627 457 588 415 c 128,-1,6
 549 373 549 373 479 359 c 1,7,8
 564 348 564 348 609 300 c 128,-1,9
 654 252 654 252 654 186 c 0,10,11
 654 108 654 108 598 54 c 128,-1,12
 542 0 542 0 438 0 c 2,13,-1
 34 0 l 1,14,-1
 34 47 l 1,15,-1
 128 47 l 1,16,-1
 128 639 l 1,17,-1
 34 639 l 1,18,-1
 34 686 l 1,0,-1
259 375 m 1,19,-1
 376 375 l 2,20,21
 433 375 433 375 459 414 c 128,-1,22
 485 453 485 453 485 514 c 0,23,24
 485 639 485 639 399 639 c 2,25,-1
 259 639 l 1,26,-1
 259 375 l 1,19,-1
259 47 m 1,27,-1
 401 47 l 2,28,29
 458 47 458 47 485 92 c 0,30,31
 507 129 507 129 507 188 c 0,32,33
 507 252 507 252 486 292 c 1,34,35
 463 339 463 339 411 339 c 2,36,-1
 259 339 l 1,37,-1
 259 47 l 1,27,-1
EndSplineSet
EndChar

StartChar: Gamma
Encoding: 915 915 94
Width: 600
VWidth: 1000
Flags: W
HStem: 3 44<34 128 270 388> 633 47<34 128 270 438.866>
VStem: 128 142<47 633> 504 53<439 494.725>
LayerCount: 2
Fore
SplineSet
526 680 m 1,0,-1
 557 439 l 1,1,-1
 510 439 l 1,2,3
 506 467 506 467 504 479.5 c 128,-1,4
 502 492 502 492 497.5 515.5 c 128,-1,5
 493 539 493 539 488 549.5 c 128,-1,6
 483 560 483 560 474 577 c 128,-1,7
 465 594 465 594 453.5 601.5 c 128,-1,8
 442 609 442 609 426.5 618 c 128,-1,9
 411 627 411 627 389.5 630 c 128,-1,10
 368 633 368 633 342 633 c 2,11,-1
 270 633 l 1,12,-1
 270 47 l 1,13,-1
 388 47 l 1,14,-1
 388 0 l 1,15,16
 347 3 347 3 203 3 c 0,17,18
 69 3 69 3 34 0 c 1,19,-1
 34 47 l 1,20,-1
 128 47 l 1,21,-1
 128 633 l 1,22,-1
 34 633 l 1,23,-1
 34 680 l 1,24,-1
 526 680 l 1,0,-1
EndSplineSet
EndChar

StartChar: Delta
Encoding: 916 916 95
Width: 833
VWidth: 1000
Flags: W
HStem: 0 121<161 572> 678 20G<407 424.5>
LayerCount: 2
Fore
SplineSet
458 673 m 2,0,-1
 777 26 l 2,1,2
 782 16 782 16 782 13 c 0,3,4
 782 4 782 4 776 2 c 128,-1,5
 770 0 770 0 756 0 c 2,6,-1
 76 0 l 2,7,8
 66 0 66 0 61.5 0.5 c 128,-1,9
 57 1 57 1 53.5 4 c 128,-1,10
 50 7 50 7 50 13 c 0,11,12
 50 16 50 16 55 26 c 2,13,-1
 375 674 l 2,14,15
 382 689 382 689 390 693.5 c 128,-1,16
 398 698 398 698 416 698 c 0,17,18
 433 698 433 698 441.5 694 c 128,-1,19
 450 690 450 690 458 673 c 2,0,-1
366 538 m 1,20,-1
 161 121 l 1,21,-1
 572 121 l 1,22,-1
 366 538 l 1,20,-1
EndSplineSet
EndChar

StartChar: Epsilon
Encoding: 917 917 96
Width: 655
VWidth: 1000
Flags: W
HStem: 0 47<34 128 270 484.173> 329 47<270 367.301> 633 47<34 128 270 475.278>
VStem: 128 142<47 329 376 633> 387 47<212 309.81 395.571 493>
LayerCount: 2
Fore
SplineSet
627 274 m 1,0,-1
 581 0 l 1,1,-1
 34 0 l 1,2,-1
 34 47 l 1,3,-1
 128 47 l 1,4,-1
 128 633 l 1,5,-1
 34 633 l 1,6,-1
 34 680 l 1,7,-1
 568 680 l 1,8,-1
 599 439 l 1,9,-1
 552 439 l 1,10,11
 546 481 546 481 542 503 c 128,-1,12
 538 525 538 525 526 554.5 c 128,-1,13
 514 584 514 584 496 598 c 128,-1,14
 478 612 478 612 446 622.5 c 128,-1,15
 414 633 414 633 369 633 c 2,16,-1
 270 633 l 1,17,-1
 270 376 l 1,18,-1
 292 376 l 2,19,20
 354 376 354 376 370.5 402.5 c 128,-1,21
 387 429 387 429 387 493 c 1,22,-1
 434 493 l 1,23,-1
 434 212 l 1,24,-1
 387 212 l 1,25,26
 387 245 387 245 385 262 c 128,-1,27
 383 279 383 279 374 297 c 128,-1,28
 365 315 365 315 345 322 c 128,-1,29
 325 329 325 329 292 329 c 2,30,-1
 270 329 l 1,31,-1
 270 47 l 1,32,-1
 373 47 l 2,33,34
 414 47 414 47 444.5 54 c 128,-1,35
 475 61 475 61 496 77.5 c 128,-1,36
 517 94 517 94 530.5 111 c 128,-1,37
 544 128 544 128 554 158.5 c 128,-1,38
 564 189 564 189 569 211.5 c 128,-1,39
 574 234 574 234 580 274 c 1,40,-1
 627 274 l 1,0,-1
EndSplineSet
EndChar

StartChar: Zeta
Encoding: 918 918 97
Width: 611
VWidth: 1000
Flags: W
HStem: 0 51<214 424.176> 639 47<197.178 397>
VStem: 69 47<445 553.824> 511 49<170.905 284>
LayerCount: 2
Fore
SplineSet
547 637 m 2,0,-1
 214 51 l 1,1,-1
 314 51 l 2,2,3
 344 51 344 51 369.5 56 c 128,-1,4
 395 61 395 61 413.5 68.5 c 128,-1,5
 432 76 432 76 447 89.5 c 128,-1,6
 462 103 462 103 471.5 114.5 c 128,-1,7
 481 126 481 126 488.5 146 c 128,-1,8
 496 166 496 166 500 179 c 128,-1,9
 504 192 504 192 507 215 c 128,-1,10
 510 238 510 238 511 249.5 c 128,-1,11
 512 261 512 261 513 284 c 1,12,-1
 560 284 l 1,13,-1
 542 0 l 1,14,-1
 88 0 l 2,15,16
 75 0 75 0 69.5 1 c 128,-1,17
 64 2 64 2 60 7.5 c 128,-1,18
 56 13 56 13 56 26 c 0,19,20
 56 40 56 40 63 52 c 2,21,-1
 397 639 l 1,22,-1
 303 639 l 2,23,24
 262 639 262 639 230 630 c 128,-1,25
 198 621 198 621 178.5 603 c 128,-1,26
 159 585 159 585 146.5 567.5 c 128,-1,27
 134 550 134 550 128 524 c 128,-1,28
 122 498 122 498 119.5 483 c 128,-1,29
 117 468 117 468 116 445 c 1,30,-1
 69 445 l 1,31,-1
 81 686 l 1,32,-1
 522 686 l 2,33,34
 535 686 535 686 540.5 685 c 128,-1,35
 546 684 546 684 550 678.5 c 128,-1,36
 554 673 554 673 554 661 c 128,-1,37
 554 649 554 649 547 637 c 2,0,-1
EndSplineSet
EndChar

StartChar: Eta
Encoding: 919 919 98
Width: 783
VWidth: 1000
Flags: W
HStem: 0 47<34 128 270 364 418 512 654 748> 333 47<270 512> 639 47<34 128 270 364 418 512 654 748>
VStem: 128 142<47 333 380 639> 512 142<47 333 380 639>
LayerCount: 2
Fore
SplineSet
654 639 m 1,0,-1
 654 47 l 1,1,-1
 748 47 l 1,2,-1
 748 0 l 1,3,4
 713 3 713 3 583 3 c 128,-1,5
 453 3 453 3 418 0 c 1,6,-1
 418 47 l 1,7,-1
 512 47 l 1,8,-1
 512 333 l 1,9,-1
 270 333 l 1,10,-1
 270 47 l 1,11,-1
 364 47 l 1,12,-1
 364 0 l 1,13,14
 329 3 329 3 199 3 c 128,-1,15
 69 3 69 3 34 0 c 1,16,-1
 34 47 l 1,17,-1
 128 47 l 1,18,-1
 128 639 l 1,19,-1
 34 639 l 1,20,-1
 34 686 l 1,21,22
 69 683 69 683 199 683 c 128,-1,23
 329 683 329 683 364 686 c 1,24,-1
 364 639 l 1,25,-1
 270 639 l 1,26,-1
 270 380 l 1,27,-1
 512 380 l 1,28,-1
 512 639 l 1,29,-1
 418 639 l 1,30,-1
 418 686 l 1,31,32
 453 683 453 683 583 683 c 128,-1,33
 713 683 713 683 748 686 c 1,34,-1
 748 639 l 1,35,-1
 654 639 l 1,0,-1
EndSplineSet
EndChar

StartChar: Theta
Encoding: 920 920 99
Width: 777
VWidth: 1000
Flags: W
HStem: -11 38<313.916 462.94> 284 121<302 475> 661 36<316.989 463.453>
VStem: 56 142<197.298 483.76> 255 47<250 284 405 439> 475 47<250 284 405 439> 579 142<197.152 484.833>
LayerCount: 2
Fore
SplineSet
721 340 m 128,-1,1
 721 174 721 174 627.5 81.5 c 128,-1,2
 534 -11 534 -11 389 -11 c 0,3,4
 242 -11 242 -11 149 82 c 128,-1,5
 56 175 56 175 56 340 c 0,6,7
 56 503 56 503 148 600 c 128,-1,8
 240 697 240 697 389 697 c 0,9,10
 535 697 535 697 628 601.5 c 128,-1,0
 721 506 721 506 721 340 c 128,-1,1
389 27 m 0,11,12
 431 27 431 27 471 49.5 c 128,-1,13
 511 72 511 72 537 115 c 1,14,15
 579 189 579 189 579 340 c 0,16,17
 579 485 579 485 545 554 c 0,18,19
 492 661 492 661 388 661 c 0,20,21
 341 661 341 661 300.5 634.5 c 128,-1,22
 260 608 260 608 238 565 c 0,23,24
 214 518 214 518 206 468 c 128,-1,25
 198 418 198 418 198 340 c 0,26,27
 198 192 198 192 238 120 c 0,28,29
 265 72 265 72 305.5 49.5 c 128,-1,30
 346 27 346 27 389 27 c 0,11,12
522 439 m 1,31,-1
 522 250 l 1,32,-1
 475 250 l 1,33,-1
 475 284 l 1,34,-1
 302 284 l 1,35,-1
 302 250 l 1,36,-1
 255 250 l 1,37,-1
 255 439 l 1,38,-1
 302 439 l 1,39,-1
 302 405 l 1,40,-1
 475 405 l 1,41,-1
 475 439 l 1,42,-1
 522 439 l 1,31,-1
EndSplineSet
EndChar

StartChar: Iota
Encoding: 921 921 100
Width: 397
VWidth: 1000
Flags: W
HStem: 3 44<28 127 269 368> 639 44<28 127 269 368>
VStem: 127 142<47 639>
LayerCount: 2
Fore
SplineSet
269 639 m 1,0,-1
 269 47 l 1,1,-1
 368 47 l 1,2,-1
 368 0 l 1,3,4
 332 3 332 3 198 3 c 128,-1,5
 64 3 64 3 28 0 c 1,6,-1
 28 47 l 1,7,-1
 127 47 l 1,8,-1
 127 639 l 1,9,-1
 28 639 l 1,10,-1
 28 686 l 1,11,12
 64 683 64 683 198 683 c 128,-1,13
 332 683 332 683 368 686 c 1,14,-1
 368 639 l 1,15,-1
 269 639 l 1,0,-1
EndSplineSet
EndChar

StartChar: Kappa
Encoding: 922 922 101
Width: 783
VWidth: 1000
Flags: W
HStem: 0 47<34 128 270 364 448 511.984 657.001 741> 639 47<34 128 270 364 505 568.215 626.955 727>
VStem: 128 142<47 266 332 639>
LayerCount: 2
Fore
SplineSet
429 423 m 1,0,-1
 657 66 l 2,1,2
 662 58 662 58 666 54.5 c 128,-1,3
 670 51 670 51 682 49 c 128,-1,4
 694 47 694 47 718 47 c 2,5,-1
 741 47 l 1,6,-1
 741 0 l 1,7,8
 698 3 698 3 607 3 c 0,9,10
 483 3 483 3 448 0 c 1,11,-1
 448 47 l 1,12,13
 512 47 512 47 512 58 c 0,14,15
 512 61 512 61 506 69 c 2,16,-1
 338 333 l 1,17,-1
 270 266 l 1,18,-1
 270 47 l 1,19,-1
 364 47 l 1,20,-1
 364 0 l 1,21,22
 329 3 329 3 199 3 c 128,-1,23
 69 3 69 3 34 0 c 1,24,-1
 34 47 l 1,25,-1
 128 47 l 1,26,-1
 128 639 l 1,27,-1
 34 639 l 1,28,-1
 34 686 l 1,29,30
 69 683 69 683 199 683 c 128,-1,31
 329 683 329 683 364 686 c 1,32,-1
 364 639 l 1,33,-1
 270 639 l 1,34,-1
 270 332 l 1,35,-1
 560 618 l 2,36,37
 562 620 562 620 569 629 c 1,38,39
 544 639 544 639 505 639 c 1,40,-1
 505 686 l 1,41,42
 542 683 542 683 635 683 c 0,43,44
 682 683 682 683 727 686 c 1,45,-1
 727 639 l 1,46,47
 670 639 670 639 654.5 634 c 128,-1,48
 639 629 639 629 617 608 c 2,49,-1
 429 423 l 1,0,-1
EndSplineSet
EndChar

StartChar: Lambda
Encoding: 923 923 102
Width: 700
VWidth: 1000
Flags: W
HStem: 0 47<35 99.5842 169.85 249 356 440 590 664> 678 20G<342.5 355>
LayerCount: 2
Fore
SplineSet
386 673 m 2,0,-1
 590 47 l 1,1,-1
 664 47 l 1,2,-1
 664 0 l 1,3,4
 627 3 627 3 520 3 c 0,5,6
 392 3 392 3 356 0 c 1,7,-1
 356 47 l 1,8,-1
 440 47 l 1,9,-1
 303 469 l 1,10,-1
 169 57 l 1,11,12
 196 47 196 47 249 47 c 1,13,-1
 249 0 l 1,14,15
 165 3 165 3 132 3 c 0,16,17
 82 3 82 3 35 0 c 1,18,-1
 35 47 l 1,19,20
 87 47 87 47 100 51.5 c 128,-1,21
 113 56 113 56 117 70 c 2,22,-1
 313 673 l 2,23,24
 318 690 318 690 326.5 694 c 128,-1,25
 335 698 335 698 350 698 c 0,26,27
 360 698 360 698 365 697 c 128,-1,28
 370 696 370 696 376 690.5 c 128,-1,29
 382 685 382 685 386 673 c 2,0,-1
EndSplineSet
EndChar

StartChar: Mu
Encoding: 924 924 103
Width: 950
VWidth: 1000
Flags: W
HStem: 0 47<34 124.903 184.613 275 602 696 821 915> 639 47<34 128 821 915>
VStem: 128 53<55.6127 613> 696 125<47 629>
LayerCount: 2
Fore
SplineSet
475 158 m 1,0,-1
 666 661 l 2,1,2
 672 678 672 678 680 682 c 128,-1,3
 688 686 688 686 707 686 c 2,4,-1
 915 686 l 1,5,-1
 915 639 l 1,6,-1
 821 639 l 1,7,-1
 821 47 l 1,8,-1
 915 47 l 1,9,-1
 915 0 l 1,10,11
 880 3 880 3 758 3 c 0,12,13
 637 3 637 3 602 0 c 1,14,-1
 602 47 l 1,15,-1
 696 47 l 1,16,-1
 696 629 l 1,17,-1
 695 629 l 1,18,-1
 465 25 l 2,19,20
 461 16 461 16 459.5 12.5 c 128,-1,21
 458 9 458 9 451.5 4.5 c 128,-1,22
 445 0 445 0 436 0 c 0,23,24
 426 0 426 0 420 4 c 128,-1,25
 414 8 414 8 411.5 12 c 128,-1,26
 409 16 409 16 406 25 c 2,27,-1
 182 613 l 1,28,-1
 181 613 l 1,29,-1
 181 76 l 2,30,31
 181 59 181 59 184.5 55.5 c 128,-1,32
 188 52 188 52 206 50 c 0,33,34
 227 47 227 47 255 47 c 2,35,-1
 275 47 l 1,36,-1
 275 0 l 1,37,38
 167 3 167 3 154 3 c 0,39,40
 145 3 145 3 34 0 c 1,41,-1
 34 47 l 1,42,-1
 54 47 l 2,43,44
 82 47 82 47 104 50 c 0,45,46
 122 52 122 52 125 55.5 c 128,-1,47
 128 59 128 59 128 76 c 2,48,-1
 128 639 l 1,49,-1
 34 639 l 1,50,-1
 34 686 l 1,51,-1
 243 686 l 2,52,53
 263 686 263 686 270 681.5 c 128,-1,54
 277 677 277 677 284 660 c 2,55,-1
 475 158 l 1,0,-1
EndSplineSet
EndChar

StartChar: Nu
Encoding: 925 925 104
Width: 783
VWidth: 1000
Flags: W
HStem: 0 47<34 124.903 184.613 275> 639 47<34 128 507 597.387 657.097 748>
VStem: 128 53<55.6127 589> 601 53<225 630.387>
LayerCount: 2
Fore
SplineSet
277 671 m 2,0,-1
 601 225 l 1,1,-1
 601 610 l 2,2,3
 601 627 601 627 597.5 630.5 c 128,-1,4
 594 634 594 634 576 636 c 0,5,6
 555 639 555 639 527 639 c 2,7,-1
 507 639 l 1,8,-1
 507 686 l 1,9,10
 615 683 615 683 628 683 c 0,11,12
 637 683 637 683 748 686 c 1,13,-1
 748 639 l 1,14,-1
 728 639 l 2,15,16
 700 639 700 639 678 636 c 0,17,18
 660 634 660 634 657 630.5 c 128,-1,19
 654 627 654 627 654 610 c 2,20,-1
 654 32 l 2,21,22
 654 12 654 12 650 6 c 128,-1,23
 646 0 646 0 627 0 c 0,24,25
 609 0 609 0 600 13 c 2,26,-1
 181 589 l 1,27,-1
 181 76 l 2,28,29
 181 59 181 59 184.5 55.5 c 128,-1,30
 188 52 188 52 206 50 c 0,31,32
 227 47 227 47 255 47 c 2,33,-1
 275 47 l 1,34,-1
 275 0 l 1,35,36
 167 3 167 3 154 3 c 0,37,38
 145 3 145 3 34 0 c 1,39,-1
 34 47 l 1,40,-1
 54 47 l 2,41,42
 82 47 82 47 104 50 c 0,43,44
 122 52 122 52 125 55.5 c 128,-1,45
 128 59 128 59 128 76 c 2,46,-1
 128 639 l 1,47,-1
 34 639 l 1,48,-1
 34 686 l 1,49,-1
 242 686 l 2,50,51
 258 686 258 686 263.5 684 c 128,-1,52
 269 682 269 682 277 671 c 2,0,-1
EndSplineSet
EndChar

StartChar: Xi
Encoding: 926 926 105
Width: 666
VWidth: 1000
Flags: W
HStem: 0 112<96.7393 565.766> 295 112<186 480> 563 112<100.58 559.798>
VStem: 42 47<117.599 209 477 556.25> 139 47<248 295 407 454> 480 47<248 295 407 454> 577 47<123.482 209 477 553.612>
LayerCount: 2
Fore
SplineSet
610 675 m 1,0,-1
 619 477 l 1,1,-1
 572 477 l 1,2,3
 568 542 568 542 560 554 c 0,4,5
 554 563 554 563 488 563 c 2,6,-1
 178 563 l 2,7,8
 110 563 110 563 104 551 c 0,9,10
 96 535 96 535 94 477 c 1,11,-1
 47 477 l 1,12,-1
 56 675 l 1,13,-1
 610 675 l 1,0,-1
51 0 m 1,14,-1
 42 209 l 1,15,-1
 89 209 l 1,16,17
 92 141 92 141 100 125 c 1,18,19
 105 112 105 112 177 112 c 2,20,-1
 489 112 l 2,21,22
 559 112 559 112 566 123 c 1,23,24
 574 138 574 138 577 209 c 1,25,-1
 624 209 l 1,26,-1
 615 0 l 1,27,-1
 51 0 l 1,14,-1
527 454 m 1,28,-1
 527 248 l 1,29,-1
 480 248 l 1,30,-1
 480 295 l 1,31,-1
 186 295 l 1,32,-1
 186 248 l 1,33,-1
 139 248 l 1,34,-1
 139 454 l 1,35,-1
 186 454 l 1,36,-1
 186 407 l 1,37,-1
 480 407 l 1,38,-1
 480 454 l 1,39,-1
 527 454 l 1,28,-1
EndSplineSet
EndChar

StartChar: Omicron
Encoding: 927 927 106
Width: 750
VWidth: 1000
Flags: W
HStem: -11 42<304.695 442.372> 657 40<304.366 444.478>
VStem: 56 153<193.751 488.868> 540 153<193.049 487.246>
LayerCount: 2
Fore
SplineSet
693 339 m 0,0,1
 693 175 693 175 604 82 c 128,-1,2
 515 -11 515 -11 374 -11 c 0,3,4
 237 -11 237 -11 146.5 81 c 128,-1,5
 56 173 56 173 56 339 c 0,6,7
 56 507 56 507 145.5 602 c 128,-1,8
 235 697 235 697 375 697 c 0,9,10
 512 697 512 697 602.5 603 c 128,-1,11
 693 509 693 509 693 339 c 0,0,1
375 31 m 0,12,13
 417 31 417 31 454 59 c 128,-1,14
 491 87 491 87 510 134 c 0,15,16
 530 183 530 183 535 231 c 128,-1,17
 540 279 540 279 540 353 c 0,18,19
 540 488 540 488 513 553 c 0,20,21
 492 603 492 603 455 630 c 128,-1,22
 418 657 418 657 374 657 c 0,23,24
 335 657 335 657 297.5 633 c 128,-1,25
 260 609 260 609 237 557 c 0,26,27
 209 492 209 492 209 353 c 0,28,29
 209 202 209 202 241 130 c 0,30,31
 261 85 261 85 296 58 c 128,-1,32
 331 31 331 31 375 31 c 0,12,13
EndSplineSet
EndChar

StartChar: Pi
Encoding: 928 928 107
Width: 783
VWidth: 1000
Flags: W
HStem: 0 47<34 128 270 364 418 512 654 748> 633 47<34 128 270 512 654 748>
VStem: 128 142<47 633> 512 142<47 633>
LayerCount: 2
Fore
SplineSet
654 633 m 1,0,-1
 654 47 l 1,1,-1
 748 47 l 1,2,-1
 748 0 l 1,3,4
 713 3 713 3 583 3 c 128,-1,5
 453 3 453 3 418 0 c 1,6,-1
 418 47 l 1,7,-1
 512 47 l 1,8,-1
 512 633 l 1,9,-1
 270 633 l 1,10,-1
 270 47 l 1,11,-1
 364 47 l 1,12,-1
 364 0 l 1,13,14
 329 3 329 3 199 3 c 128,-1,15
 69 3 69 3 34 0 c 1,16,-1
 34 47 l 1,17,-1
 128 47 l 1,18,-1
 128 633 l 1,19,-1
 34 633 l 1,20,-1
 34 680 l 1,21,-1
 748 680 l 1,22,-1
 748 633 l 1,23,-1
 654 633 l 1,0,-1
EndSplineSet
EndChar

StartChar: Rho
Encoding: 929 929 108
Width: 683
VWidth: 1000
Flags: W
HStem: 3 44<34 128 270 364> 302 41<270 436.875> 639 47<34 128 264 441.126>
VStem: 128 136<47 302 343 639> 473 153<402.438 581.361>
LayerCount: 2
Fore
SplineSet
270 302 m 1,0,-1
 270 47 l 1,1,-1
 364 47 l 1,2,-1
 364 0 l 1,3,4
 329 3 329 3 199 3 c 128,-1,5
 69 3 69 3 34 0 c 1,6,-1
 34 47 l 1,7,-1
 128 47 l 1,8,-1
 128 639 l 1,9,-1
 34 639 l 1,10,-1
 34 686 l 1,11,-1
 393 686 l 2,12,13
 501 686 501 686 563.5 631 c 128,-1,14
 626 576 626 576 626 491 c 0,15,16
 626 404 626 404 562 353 c 128,-1,17
 498 302 498 302 402 302 c 2,18,-1
 270 302 l 1,0,-1
264 639 m 1,19,-1
 264 343 l 1,20,-1
 352 343 l 2,21,22
 387 343 387 343 411 351 c 128,-1,23
 435 359 435 359 447 369.5 c 128,-1,24
 459 380 459 380 465 403 c 128,-1,25
 471 426 471 426 472 442 c 128,-1,26
 473 458 473 458 473 491 c 0,27,28
 473 525 473 525 472 541 c 128,-1,29
 471 557 471 557 465 580 c 128,-1,30
 459 603 459 603 447 613 c 128,-1,31
 435 623 435 623 411 631 c 128,-1,32
 387 639 387 639 352 639 c 2,33,-1
 264 639 l 1,19,-1
EndSplineSet
EndChar

StartChar: Sigma
Encoding: 931 931 109
Width: 722
VWidth: 1000
Flags: W
HStem: 0 66<172 525.241> 639 47<239 524.521>
VStem: 618 47<199.881 260>
LayerCount: 2
Fore
SplineSet
429 322 m 2,0,-1
 172 66 l 1,1,-1
 391 66 l 2,2,3
 507 66 507 66 556 107 c 128,-1,4
 605 148 605 148 618 260 c 1,5,-1
 665 260 l 1,6,-1
 634 0 l 1,7,-1
 88 0 l 2,8,9
 56 0 56 0 56 18 c 0,10,11
 56 25 56 25 68 37 c 2,12,-1
 316 283 l 1,13,-1
 65 638 l 2,14,15
 56 651 56 651 56 662 c 128,-1,16
 56 673 56 673 60.5 678.5 c 128,-1,17
 65 684 65 684 70.5 685 c 128,-1,18
 76 686 76 686 88 686 c 2,19,-1
 634 686 l 1,20,-1
 665 445 l 1,21,-1
 618 445 l 1,22,23
 604 555 604 555 556.5 597 c 128,-1,24
 509 639 509 639 395 639 c 2,25,-1
 239 639 l 1,26,-1
 435 361 l 2,27,28
 443 348 443 348 443 343 c 0,29,30
 443 335 443 335 429 322 c 2,0,-1
EndSplineSet
EndChar

StartChar: Tau
Encoding: 932 932 110
Width: 694
VWidth: 1000
Flags: W
HStem: 3 44<142 276 418 552> 628 47<137.63 276 418 552.622>
VStem: 36 47<434 516.261> 276 142<47 628> 604 53<434 516.261>
LayerCount: 2
Fore
SplineSet
636 675 m 1,0,-1
 657 434 l 1,1,-1
 610 434 l 1,2,3
 607 477 607 477 604 498 c 128,-1,4
 601 519 601 519 592 549 c 128,-1,5
 583 579 583 579 569 593 c 128,-1,6
 555 607 555 607 529 617.5 c 128,-1,7
 503 628 503 628 466 628 c 2,8,-1
 418 628 l 1,9,-1
 418 47 l 1,10,-1
 552 47 l 1,11,-1
 552 0 l 1,12,13
 504 3 504 3 347 3 c 128,-1,14
 190 3 190 3 142 0 c 1,15,-1
 142 47 l 1,16,-1
 276 47 l 1,17,-1
 276 628 l 1,18,-1
 227 628 l 2,19,20
 200 628 200 628 179 622.5 c 128,-1,21
 158 617 158 617 144 609.5 c 128,-1,22
 130 602 130 602 119.5 585.5 c 128,-1,23
 109 569 109 569 103 557 c 128,-1,24
 97 545 97 545 93 520 c 128,-1,25
 89 495 89 495 87.5 480 c 128,-1,26
 86 465 86 465 83 434 c 1,27,-1
 36 434 l 1,28,-1
 57 675 l 1,29,-1
 636 675 l 1,0,-1
EndSplineSet
EndChar

StartChar: YUpsilon
Encoding: 933 933 111
Width: 755
VWidth: 1000
Flags: W
HStem: 3 44<215 309 445 540> 639 47<16 101 258 333 518 586.245 652.16 739>
VStem: 309 136<47 274>
LayerCount: 2
Fore
SplineSet
642 618 m 2,0,-1
 445 274 l 1,1,-1
 445 47 l 1,2,-1
 540 47 l 1,3,-1
 540 0 l 1,4,5
 505 3 505 3 377 3 c 0,6,7
 250 3 250 3 215 0 c 1,8,-1
 215 47 l 1,9,-1
 309 47 l 1,10,-1
 309 274 l 1,11,-1
 101 639 l 1,12,-1
 16 639 l 1,13,-1
 16 686 l 1,14,15
 52 683 52 683 166 683 c 0,16,17
 297 683 297 683 333 686 c 1,18,-1
 333 639 l 1,19,-1
 258 639 l 1,20,-1
 425 346 l 1,21,-1
 587 629 l 1,22,23
 563 639 563 639 518 639 c 1,24,-1
 518 686 l 1,25,26
 569 683 569 683 637 683 c 0,27,28
 670 683 670 683 739 686 c 1,29,-1
 739 639 l 1,30,31
 698 639 698 639 677.5 636.5 c 128,-1,32
 657 634 657 634 652 630.5 c 128,-1,33
 647 627 647 627 642 618 c 2,0,-1
EndSplineSet
EndChar

StartChar: Phi
Encoding: 934 934 112
Width: 722
VWidth: 1000
Flags: W
HStem: 3 44<172 290 421 539> 153 39<421 471.456> 639 47<172 290 421 539>
VStem: 56 147<264.198 421.802> 290 131<47 155.124 194 492 530.876 639> 518 147<265.285 421.442>
LayerCount: 2
Fore
SplineSet
539 639 m 1,0,-1
 421 639 l 1,1,-1
 421 533 l 1,2,3
 484 528 484 528 532.5 509 c 128,-1,4
 581 490 581 490 609 463 c 128,-1,5
 637 436 637 436 651 405.5 c 128,-1,6
 665 375 665 375 665 343 c 0,7,8
 665 274 665 274 604 219 c 128,-1,9
 543 164 543 164 421 153 c 1,10,-1
 421 47 l 1,11,-1
 539 47 l 1,12,-1
 539 0 l 1,13,14
 501 3 501 3 355 3 c 0,15,16
 210 3 210 3 172 0 c 1,17,-1
 172 47 l 1,18,-1
 290 47 l 1,19,-1
 290 154 l 1,20,21
 181 165 181 165 118.5 218 c 128,-1,22
 56 271 56 271 56 343 c 128,-1,23
 56 415 56 415 118 468 c 128,-1,24
 180 521 180 521 290 532 c 1,25,-1
 290 639 l 1,26,-1
 172 639 l 1,27,-1
 172 686 l 1,28,29
 210 683 210 683 356 683 c 0,30,31
 501 683 501 683 539 686 c 1,32,-1
 539 639 l 1,0,-1
290 194 m 1,33,-1
 290 492 l 1,34,35
 265 485 265 485 247.5 472.5 c 128,-1,36
 230 460 230 460 221.5 447.5 c 128,-1,37
 213 435 213 435 208.5 414 c 128,-1,38
 204 393 204 393 203.5 380.5 c 128,-1,39
 203 368 203 368 203 343 c 128,-1,40
 203 318 203 318 203.5 305.5 c 128,-1,41
 204 293 204 293 208.5 272 c 128,-1,42
 213 251 213 251 221.5 238.5 c 128,-1,43
 230 226 230 226 247.5 213.5 c 128,-1,44
 265 201 265 201 290 194 c 1,33,-1
421 494 m 1,45,-1
 421 192 l 1,46,47
 455 199 455 199 476.5 214 c 128,-1,48
 498 229 498 229 506 253.5 c 128,-1,49
 514 278 514 278 516 295 c 128,-1,50
 518 312 518 312 518 343 c 128,-1,51
 518 374 518 374 516 391 c 128,-1,52
 514 408 514 408 506 432.5 c 128,-1,53
 498 457 498 457 476.5 472 c 128,-1,54
 455 487 455 487 421 494 c 1,45,-1
EndSplineSet
EndChar

StartChar: Chi
Encoding: 935 935 113
Width: 755
VWidth: 1000
Flags: W
HStem: 3 44<29 140.209 205.943 289 415 488 642 727> 639 47<42 127 281 354 424 507.026 578.676 684>
LayerCount: 2
Fore
SplineSet
426 401 m 1,0,-1
 642 47 l 1,1,-1
 727 47 l 1,2,-1
 727 0 l 1,3,4
 690 3 690 3 579 3 c 0,5,6
 451 3 451 3 415 0 c 1,7,-1
 415 47 l 1,8,-1
 488 47 l 1,9,-1
 347 279 l 1,10,-1
 205 58 l 1,11,12
 235 47 235 47 289 47 c 1,13,-1
 289 0 l 1,14,15
 252 3 252 3 151 3 c 0,16,17
 146 3 146 3 29 0 c 1,18,-1
 29 47 l 1,19,-1
 53 47 l 2,20,21
 116 47 116 47 141 57 c 1,22,-1
 316 329 l 1,23,-1
 127 639 l 1,24,-1
 42 639 l 1,25,-1
 42 686 l 1,26,27
 78 683 78 683 190 683 c 0,28,29
 318 683 318 683 354 686 c 1,30,-1
 354 639 l 1,31,-1
 281 639 l 1,32,-1
 395 451 l 1,33,-1
 501 616 l 1,34,-1
 508 628 l 1,35,36
 477 639 477 639 424 639 c 1,37,-1
 424 686 l 1,38,39
 460 683 460 683 562 683 c 0,40,41
 567 683 567 683 684 686 c 1,42,-1
 684 639 l 1,43,-1
 660 639 l 2,44,45
 630 639 630 639 606 636 c 0,46,47
 584 634 584 634 578.5 631 c 128,-1,48
 573 628 573 628 565 617 c 2,49,-1
 426 401 l 1,0,-1
EndSplineSet
EndChar

StartChar: Psi
Encoding: 936 936 114
Width: 777
VWidth: 1000
Flags: W
HStem: 3 44<200 318 449 567> 513 34<56.0352 91.5608 683.404 720.956> 639 44<200 318 449 567>
VStem: 101 131<290.727 509.361> 318 131<47 156.072 201 639> 544.5 131.5<296.361 510.338>
LayerCount: 2
Fore
SplineSet
449 639 m 1,0,-1
 449 199 l 1,1,2
 476 210 476 210 495.5 232 c 128,-1,3
 515 254 515 254 524.5 275.5 c 128,-1,4
 534 297 534 297 539 329 c 128,-1,5
 544 361 544 361 544.5 378.5 c 128,-1,6
 545 396 545 396 545 425 c 0,7,8
 545 496 545 496 561.5 521.5 c 128,-1,9
 578 547 578 547 617 547 c 2,10,-1
 689 547 l 2,11,12
 721 547 721 547 721 529 c 0,13,14
 721 514 721 514 701 511 c 0,15,16
 692 510 692 510 686.5 502 c 128,-1,17
 681 494 681 494 679 478 c 128,-1,18
 677 462 677 462 676.5 451 c 128,-1,19
 676 440 676 440 676 420 c 0,20,21
 674 180 674 180 449 154 c 1,22,-1
 449 47 l 1,23,-1
 567 47 l 1,24,-1
 567 0 l 1,25,26
 529 3 529 3 383 3 c 0,27,28
 238 3 238 3 200 0 c 1,29,-1
 200 47 l 1,30,-1
 318 47 l 1,31,-1
 318 154 l 1,32,33
 103 184 103 184 101 416 c 0,34,35
 101 506 101 506 78 510 c 0,36,37
 70 512 70 512 67 513 c 128,-1,38
 64 514 64 514 60 518 c 128,-1,39
 56 522 56 522 56 529 c 0,40,41
 56 547 56 547 88 547 c 2,42,-1
 160 547 l 2,43,44
 185 547 185 547 200.5 537.5 c 128,-1,45
 216 528 216 528 222.5 506 c 128,-1,46
 229 484 229 484 230.5 465 c 128,-1,47
 232 446 232 446 232 409 c 0,48,49
 232 242 232 242 318 201 c 1,50,-1
 318 639 l 1,51,-1
 200 639 l 1,52,-1
 200 686 l 1,53,54
 238 683 238 683 384 683 c 0,55,56
 529 683 529 683 567 686 c 1,57,-1
 567 639 l 1,58,-1
 449 639 l 1,0,-1
EndSplineSet
EndChar

StartChar: Omega
Encoding: 937 937 115
Width: 722
VWidth: 1000
Flags: W
HStem: 0 103<112.612 220 501 606.904> 661 36<286.146 435.952>
VStem: 56 153<356.177 553.965> 512 153<352.032 555.059> 630 47<161.254 200>
LayerCount: 2
Fore
SplineSet
677 200 m 1,0,-1
 640 0 l 1,1,-1
 480 0 l 2,2,3
 459 0 459 0 453.5 4.5 c 128,-1,4
 448 9 448 9 448 29 c 0,5,6
 448 100 448 100 478 230 c 0,7,8
 512 382 512 382 512 458 c 0,9,10
 512 475 512 475 511 487.5 c 128,-1,11
 510 500 510 500 506.5 527.5 c 128,-1,12
 503 555 503 555 493 575 c 128,-1,13
 483 595 483 595 467.5 616.5 c 128,-1,14
 452 638 452 638 424 649.5 c 128,-1,15
 396 661 396 661 360 661 c 0,16,17
 280 661 280 661 240 598 c 0,18,19
 209 550 209 550 209 458 c 0,20,21
 209 384 209 384 244 228 c 0,22,23
 273 96 273 96 273 29 c 0,24,25
 273 9 273 9 267 4.5 c 128,-1,26
 261 0 261 0 241 0 c 2,27,-1
 81 0 l 1,28,-1
 44 200 l 1,29,-1
 91 200 l 1,30,31
 103 140 103 140 106 129 c 0,32,33
 109 119 109 119 112.5 114.5 c 128,-1,34
 116 110 116 110 129 106.5 c 128,-1,35
 142 103 142 103 168 103 c 2,36,-1
 220 103 l 1,37,38
 200 151 200 151 151 225 c 0,39,40
 118 276 118 276 103.5 301 c 128,-1,41
 89 326 89 326 72.5 371 c 128,-1,42
 56 416 56 416 56 457 c 0,43,44
 56 556 56 556 133 626.5 c 128,-1,45
 210 697 210 697 361 697 c 0,46,47
 509 697 509 697 587 627 c 128,-1,48
 665 557 665 557 665 457 c 0,49,50
 665 404 665 404 643.5 353.5 c 128,-1,51
 622 303 622 303 578 238 c 1,52,53
 519 147 519 147 501 103 c 1,54,-1
 553 103 l 2,55,56
 578 103 578 103 591 106.5 c 128,-1,57
 604 110 604 110 607 114 c 128,-1,58
 610 118 610 118 613 126 c 0,59,60
 622 150 622 150 630 200 c 1,61,-1
 677 200 l 1,0,-1
EndSplineSet
EndChar

StartChar: Upsilon
Encoding: 978 978 116
Width: 777
VWidth: 1000
Flags: W
HStem: 3 44<200 318 460 578> 582 115<122.321 251.781 523.527 660.608>
VStem: 318 142<47 484.016>
LayerCount: 2
Fore
SplineSet
460 351 m 2,0,-1
 460 47 l 1,1,-1
 578 47 l 1,2,-1
 578 0 l 1,3,4
 537 3 537 3 389 3 c 128,-1,5
 241 3 241 3 200 0 c 1,6,-1
 200 47 l 1,7,-1
 318 47 l 1,8,-1
 318 351 l 2,9,10
 318 452 318 452 286 515 c 0,11,12
 271 546 271 546 249 562 c 128,-1,13
 227 578 227 578 214 580 c 128,-1,14
 201 582 201 582 181 582 c 0,15,16
 143 582 143 582 127 574.5 c 128,-1,17
 111 567 111 567 109 551 c 0,18,19
 107 537 107 537 101.5 534 c 128,-1,20
 96 531 96 531 83 531 c 0,21,22
 74 531 74 531 69.5 532 c 128,-1,23
 65 533 65 533 60.5 538 c 128,-1,24
 56 543 56 543 56 554 c 0,25,26
 56 604 56 604 92 650.5 c 128,-1,27
 128 697 128 697 191 697 c 0,28,29
 266 697 266 697 316 640 c 128,-1,30
 366 583 366 583 388 486 c 1,31,-1
 389 486 l 1,32,33
 394 509 394 509 401.5 532 c 128,-1,34
 409 555 409 555 425 586 c 128,-1,35
 441 617 441 617 461.5 640.5 c 128,-1,36
 482 664 482 664 514.5 680.5 c 128,-1,37
 547 697 547 697 586 697 c 0,38,39
 650 697 650 697 685.5 650.5 c 128,-1,40
 721 604 721 604 721 554 c 0,41,42
 721 543 721 543 716.5 538 c 128,-1,43
 712 533 712 533 707.5 532 c 128,-1,44
 703 531 703 531 694 531 c 0,45,46
 678 531 678 531 674 535.5 c 128,-1,47
 670 540 670 540 668 553 c 0,48,49
 664 582 664 582 596 582 c 0,50,51
 581 582 581 582 571.5 580.5 c 128,-1,52
 562 579 562 579 545.5 573 c 128,-1,53
 529 567 529 567 514.5 551 c 128,-1,54
 500 535 500 535 488 510 c 0,55,56
 460 450 460 450 460 351 c 2,0,-1
EndSplineSet
EndChar

StartChar: ae
Encoding: 230 230 117
Width: 722
VWidth: 1000
Flags: W
HStem: -6 36<166.775 274.402 482.941 588.658> 218 33<239.312 304 418 598> 298 134.5<76.1102 158.686> 417 36<158 271.694 466.575 559.733>
VStem: 28 117<50.4471 162.475> 56 125<315.019 410.28> 304 114<121.125 214 251 367.043> 598 95<251 358.479> 648 45<78.25 134.96>
LayerCount: 2
Fore
SplineSet
661 218 m 2,0,-1
 418 218 l 1,1,2
 418 133 418 133 441 92 c 0,3,4
 473 34 473 34 537 34 c 0,5,6
 567 34 567 34 598.5 53 c 128,-1,7
 630 72 630 72 645 116 c 0,8,9
 647 122 647 122 648 124.5 c 128,-1,10
 649 127 649 127 651.5 130 c 128,-1,11
 654 133 654 133 658 134 c 128,-1,12
 662 135 662 135 669 135 c 0,13,14
 693 135 693 135 693 117 c 0,15,16
 693 107 693 107 684 88.5 c 128,-1,17
 675 70 675 70 657 48 c 128,-1,18
 639 26 639 26 605 10 c 128,-1,19
 571 -6 571 -6 529 -6 c 0,20,21
 434 -6 434 -6 369 54 c 1,22,23
 308 -6 308 -6 200 -6 c 0,24,25
 127 -6 127 -6 77.5 22 c 128,-1,26
 28 50 28 50 28 103 c 0,27,28
 28 235 28 235 304 248 c 1,29,-1
 304 301 l 2,30,31
 304 417 304 417 217 417 c 0,32,33
 190 417 190 417 158 411 c 1,34,35
 181 388 181 388 181 361 c 0,36,37
 181 331 181 331 162 314.5 c 128,-1,38
 143 298 143 298 118 298 c 0,39,40
 95 298 95 298 75.5 314.5 c 128,-1,41
 56 331 56 331 56 361 c 0,42,43
 56 386 56 386 70.5 405 c 128,-1,44
 85 424 85 424 103.5 432.5 c 128,-1,45
 122 441 122 441 149 446 c 128,-1,46
 176 451 176 451 190.5 452 c 128,-1,47
 205 453 205 453 221 453 c 0,48,49
 323 453 323 453 376 403 c 1,50,51
 433 453 433 453 517 453 c 0,52,53
 603 453 603 453 648 397 c 128,-1,54
 693 341 693 341 693 247 c 0,55,56
 693 227 693 227 687 222.5 c 128,-1,57
 681 218 681 218 661 218 c 2,0,-1
418 251 m 1,58,-1
 598 251 l 1,59,60
 594 417 594 417 517 417 c 0,61,62
 463 417 463 417 436 360 c 0,63,64
 420 325 420 325 418 251 c 1,58,-1
304 214 m 1,65,66
 285 213 285 213 265.5 209 c 128,-1,67
 246 205 246 205 215 194.5 c 128,-1,68
 184 184 184 184 164.5 160.5 c 128,-1,69
 145 137 145 137 145 103 c 0,70,71
 145 75 145 75 162.5 52.5 c 128,-1,72
 180 30 180 30 210 30 c 0,73,74
 258 30 258 30 290.5 60 c 128,-1,75
 323 90 323 90 323 121 c 0,76,77
 323 125 323 125 320 130 c 1,78,79
 306 169 306 169 304 214 c 1,65,66
EndSplineSet
EndChar

StartChar: AE
Encoding: 198 198 118
Width: 905
VWidth: 1000
Flags: W
HStem: 0 47<35 120.356 182.019 260 348 419 551 739.572> 306 47<288 419 551 658.989> 639 47<269 336 393 419 551 734.015>
VStem: 419 132<47 306 353 639> 679 47<189 286.798 372.852 470> 795.5 53.5<445 500.725>
LayerCount: 2
Fore
SplineSet
877 274 m 1,0,-1
 831 0 l 1,1,-1
 348 0 l 1,2,-1
 348 47 l 1,3,-1
 419 47 l 1,4,-1
 419 306 l 1,5,-1
 271 306 l 1,6,-1
 186 72 l 1,7,8
 182 64 182 64 182 60 c 0,9,10
 182 47 182 47 260 47 c 1,11,-1
 260 0 l 1,12,13
 209 3 209 3 141 3 c 0,14,15
 131 3 131 3 35 0 c 1,16,-1
 35 47 l 1,17,18
 77 47 77 47 96.5 49.5 c 128,-1,19
 116 52 116 52 120.5 56 c 128,-1,20
 125 60 125 60 129 70 c 2,21,-1
 336 639 l 1,22,-1
 269 639 l 1,23,-1
 269 686 l 1,24,-1
 818 686 l 1,25,-1
 849 445 l 1,26,-1
 802 445 l 1,27,28
 798 476 798 476 795.5 491 c 128,-1,29
 793 506 793 506 787.5 531 c 128,-1,30
 782 556 782 556 775 568.5 c 128,-1,31
 768 581 768 581 755.5 597 c 128,-1,32
 743 613 743 613 726.5 620.5 c 128,-1,33
 710 628 710 628 686 633.5 c 128,-1,34
 662 639 662 639 632 639 c 2,35,-1
 551 639 l 1,36,-1
 551 353 l 1,37,-1
 582 353 l 2,38,39
 616 353 616 353 636 360 c 128,-1,40
 656 367 656 367 665 384.5 c 128,-1,41
 674 402 674 402 676.5 419.5 c 128,-1,42
 679 437 679 437 679 470 c 1,43,-1
 726 470 l 1,44,-1
 726 189 l 1,45,-1
 679 189 l 1,46,47
 679 254 679 254 662.5 280 c 128,-1,48
 646 306 646 306 582 306 c 2,49,-1
 551 306 l 1,50,-1
 551 47 l 1,51,-1
 637 47 l 2,52,53
 662 47 662 47 683.5 51 c 128,-1,54
 705 55 705 55 721 60.5 c 128,-1,55
 737 66 737 66 750.5 77.5 c 128,-1,56
 764 89 764 89 773.5 98.5 c 128,-1,57
 783 108 783 108 791.5 126.5 c 128,-1,58
 800 145 800 145 804.5 157 c 128,-1,59
 809 169 809 169 814.5 193 c 128,-1,60
 820 217 820 217 822.5 231.5 c 128,-1,61
 825 246 825 246 830 274 c 1,62,-1
 877 274 l 1,0,-1
393 639 m 1,63,-1
 288 353 l 1,64,-1
 419 353 l 1,65,-1
 419 639 l 1,66,-1
 393 639 l 1,63,-1
EndSplineSet
EndChar

StartChar: OE
Encoding: 338 338 119
Width: 1016
VWidth: 1000
Flags: W
HStem: -11 36<344.15 480.455> 0 47<640 848.077> 333 47<640 780.281> 639 47<640 839.511> 661 36<338.776 480.591>
VStem: 73 147<197.856 482.624> 513 127<53.7637 333 380 631.995> 804 47<216 310.054 403.371 497>
LayerCount: 2
Fore
SplineSet
988 274 m 1,0,-1
 942 0 l 1,1,-1
 574 0 l 2,2,3
 548 0 548 0 476 -7 c 2,4,-1
 465 -8 l 2,5,6
 454 -9 454 -9 437 -10 c 128,-1,7
 420 -11 420 -11 407 -11 c 0,8,9
 257 -11 257 -11 165 83 c 128,-1,10
 73 177 73 177 73 340 c 0,11,12
 73 501 73 501 164 599 c 128,-1,13
 255 697 255 697 407 697 c 0,14,15
 448 697 448 697 497 691 c 0,16,17
 539 686 539 686 574 686 c 2,18,-1
 929 686 l 1,19,-1
 960 445 l 1,20,-1
 913 445 l 1,21,22
 908 481 908 481 905 499 c 128,-1,23
 902 517 902 517 894 544 c 128,-1,24
 886 571 886 571 875 584.5 c 128,-1,25
 864 598 864 598 845.5 612.5 c 128,-1,26
 827 627 827 627 800 633 c 128,-1,27
 773 639 773 639 736 639 c 2,28,-1
 640 639 l 1,29,-1
 640 380 l 1,30,-1
 700 380 l 2,31,32
 766 380 766 380 785 407.5 c 128,-1,33
 804 435 804 435 804 497 c 1,34,-1
 851 497 l 1,35,-1
 851 216 l 1,36,-1
 804 216 l 1,37,38
 804 279 804 279 785 306 c 128,-1,39
 766 333 766 333 700 333 c 2,40,-1
 640 333 l 1,41,-1
 640 47 l 1,42,-1
 741 47 l 2,43,44
 775 47 775 47 802 53.5 c 128,-1,45
 829 60 829 60 847.5 69 c 128,-1,46
 866 78 866 78 881 96.5 c 128,-1,47
 896 115 896 115 904.5 130 c 128,-1,48
 913 145 913 145 920.5 173.5 c 128,-1,49
 928 202 928 202 931.5 220.5 c 128,-1,50
 935 239 935 239 941 274 c 1,51,-1
 988 274 l 1,0,-1
408 25 m 0,52,53
 467 25 467 25 487 49 c 128,-1,54
 507 73 507 73 513 127 c 0,55,56
 517 162 517 162 517 344 c 0,57,58
 517 523 517 523 513 560 c 0,59,60
 507 614 507 614 486.5 637.5 c 128,-1,61
 466 661 466 661 408 661 c 0,62,63
 331 661 331 661 275.5 586.5 c 128,-1,64
 220 512 220 512 220 355 c 0,65,66
 220 193 220 193 274.5 109 c 128,-1,67
 329 25 329 25 408 25 c 0,52,53
EndSplineSet
EndChar

StartChar: oe
Encoding: 339 339 120
Width: 777
VWidth: 1000
Flags: W
HStem: -6 36<198.231 307.329 538.553 644.646> 218 33<473 654> 417 36<196.132 309.536 522.722 614.454>
VStem: 28 117<114.385 334.3> 359 114.5<94.2329 218 251 367.035> 654 95<251 358.479> 704 45<78.5366 134.96>
LayerCount: 2
Fore
SplineSet
717 218 m 2,0,-1
 473 218 l 1,1,2
 473 202 473 202 473.5 193 c 128,-1,3
 474 184 474 184 476.5 162 c 128,-1,4
 479 140 479 140 483.5 126 c 128,-1,5
 488 112 488 112 496.5 92.5 c 128,-1,6
 505 73 505 73 517 62 c 128,-1,7
 529 51 529 51 548.5 42.5 c 128,-1,8
 568 34 568 34 592 34 c 0,9,10
 625 34 625 34 656 54 c 128,-1,11
 687 74 687 74 701 116 c 0,12,13
 703 122 703 122 704 124.5 c 128,-1,14
 705 127 705 127 707.5 130 c 128,-1,15
 710 133 710 133 714 134 c 128,-1,16
 718 135 718 135 725 135 c 0,17,18
 749 135 749 135 749 117 c 0,19,20
 749 87 749 87 705.5 40.5 c 128,-1,21
 662 -6 662 -6 585 -6 c 0,22,23
 484 -6 484 -6 417 61 c 1,24,25
 351 -6 351 -6 251 -6 c 0,26,27
 152 -6 152 -6 90 56.5 c 128,-1,28
 28 119 28 119 28 224 c 0,29,30
 28 330 28 330 90.5 391.5 c 128,-1,31
 153 453 153 453 251 453 c 0,32,33
 298 453 298 453 338.5 437 c 128,-1,34
 379 421 379 421 392.5 409.5 c 128,-1,35
 406 398 406 398 415 388 c 1,36,37
 475 453 475 453 572 453 c 0,38,39
 661 453 661 453 705 396 c 128,-1,40
 749 339 749 339 749 247 c 0,41,42
 749 227 749 227 743 222.5 c 128,-1,43
 737 218 737 218 717 218 c 2,0,-1
473 251 m 1,44,-1
 654 251 l 1,45,46
 650 417 650 417 572 417 c 0,47,48
 549 417 549 417 526.5 402 c 128,-1,49
 504 387 504 387 491 360 c 0,50,51
 475 325 475 325 473 251 c 1,44,-1
251 30 m 0,52,53
 313 30 313 30 341 93 c 0,54,55
 359 132 359 132 359 229 c 0,56,57
 359 324 359 324 340 362 c 0,58,59
 312 417 312 417 251 417 c 0,60,61
 222 417 222 417 198.5 401 c 128,-1,62
 175 385 175 385 163 362 c 0,63,64
 145 324 145 324 145 229 c 0,65,66
 145 135 145 135 162 94 c 0,67,68
 174 64 174 64 199 47 c 128,-1,69
 224 30 224 30 251 30 c 0,52,53
EndSplineSet
EndChar

StartChar: germandbls
Encoding: 223 223 121
Width: 559
VWidth: 1000
Flags: W
HStem: -6 36<296.499 373.26> 0 47<16 85> 397 47<16 85> 664 36<227.161 353.304>
VStem: 16 177<3 47 397 444> 85 108<47 397 444 630.609> 222 100<39.1411 116.561> 385 118<491.404 628.327> 413 118<87.3868 292.126>
LayerCount: 2
Fore
SplineSet
379 422 m 1,0,1
 449 395 449 395 490 330 c 128,-1,2
 531 265 531 265 531 180 c 0,3,4
 531 91 531 91 471.5 42.5 c 128,-1,5
 412 -6 412 -6 326 -6 c 0,6,7
 278 -6 278 -6 250 20 c 128,-1,8
 222 46 222 46 222 80 c 0,9,10
 222 107 222 107 238.5 119 c 128,-1,11
 255 131 255 131 272 131 c 0,12,13
 292 131 292 131 307 117 c 128,-1,14
 322 103 322 103 322 81 c 0,15,16
 322 50 322 50 296 37 c 1,17,18
 307 30 307 30 323 30 c 0,19,20
 413 30 413 30 413 179 c 0,21,22
 413 397 413 397 267 408 c 0,23,24
 263 408 263 408 262.5 408.5 c 128,-1,25
 262 409 262 409 258.5 409.5 c 128,-1,26
 255 410 255 410 254.5 411 c 128,-1,27
 254 412 254 412 252 414 c 128,-1,28
 250 416 250 416 249.5 419 c 128,-1,29
 249 422 249 422 249 426 c 0,30,31
 249 434 249 434 252.5 438 c 128,-1,32
 256 442 256 442 259 442.5 c 128,-1,33
 262 443 262 443 271 444 c 0,34,35
 385 451 385 451 385 563 c 0,36,37
 385 664 385 664 291 664 c 0,38,39
 193 664 193 664 193 559 c 2,40,-1
 193 0 l 1,41,42
 152 3 152 3 128 3 c 0,43,44
 88 3 88 3 16 0 c 1,45,-1
 16 47 l 1,46,-1
 85 47 l 1,47,-1
 85 397 l 1,48,-1
 16 397 l 1,49,-1
 16 444 l 1,50,-1
 85 444 l 1,51,-1
 85 556 l 2,52,53
 85 626 85 626 141.5 663 c 128,-1,54
 198 700 198 700 292 700 c 0,55,56
 398 700 398 700 450.5 659.5 c 128,-1,57
 503 619 503 619 503 562 c 0,58,59
 503 513 503 513 469 477.5 c 128,-1,60
 435 442 435 442 379 422 c 1,0,1
EndSplineSet
EndChar

StartChar: Oslash
Encoding: 216 216 122
Width: 777
VWidth: 1000
Flags: W
HStem: -11 36<309.132 466.604> 661 36<312.542 467.849>
VStem: 56 142<196.126 482.421> 579 142<196.432 481.631>
LayerCount: 2
Fore
SplineSet
631 725 m 1,0,-1
 583 640 l 1,1,2
 653 592 653 592 687 512.5 c 128,-1,3
 721 433 721 433 721 340 c 0,4,5
 721 174 721 174 627.5 81.5 c 128,-1,6
 534 -11 534 -11 389 -11 c 0,7,8
 300 -11 300 -11 228 25 c 1,9,-1
 180 -59 l 1,10,-1
 146 -39 l 1,11,-1
 194 45 l 1,12,13
 140 78 140 78 98 151.5 c 128,-1,14
 56 225 56 225 56 340 c 0,15,16
 56 503 56 503 148 600 c 128,-1,17
 240 697 240 697 389 697 c 0,18,19
 472 697 472 697 549 661 c 1,20,-1
 597 745 l 1,21,-1
 631 725 l 1,0,-1
233 114 m 1,22,-1
 517 607 l 1,23,24
 467 661 467 661 388 661 c 0,25,26
 345 661 345 661 300 638 c 128,-1,27
 255 615 255 615 227 558 c 1,28,29
 198 496 198 496 198 340 c 0,30,31
 198 288 198 288 199 258.5 c 128,-1,32
 200 229 200 229 208.5 186 c 128,-1,33
 217 143 217 143 233 114 c 1,22,-1
543 571 m 1,34,-1
 259 78 l 1,35,36
 314 25 314 25 389 25 c 0,37,38
 430 25 430 25 473.5 45.5 c 128,-1,39
 517 66 517 66 544 113 c 0,40,41
 560 142 560 142 568.5 185.5 c 128,-1,42
 577 229 577 229 578 258.5 c 128,-1,43
 579 288 579 288 579 340 c 128,-1,44
 579 392 579 392 578 422 c 128,-1,45
 577 452 577 452 568.5 496.5 c 128,-1,46
 560 541 560 541 543 571 c 1,34,-1
EndSplineSet
EndChar

StartChar: dotlessi
Encoding: 305 305 123
Width: 277
VWidth: 1000
Flags: W
HStem: 0 47<26 95 203 265> 395 47<29 84.6787>
VStem: 95 108<47 389.323>
LayerCount: 2
Fore
SplineSet
203 450 m 1,0,-1
 203 47 l 1,1,-1
 265 47 l 1,2,-1
 265 0 l 1,3,4
 157 3 157 3 148 3 c 0,5,6
 119 3 119 3 26 0 c 1,7,-1
 26 47 l 1,8,-1
 95 47 l 1,9,-1
 95 356 l 2,10,11
 95 384 95 384 85 389.5 c 128,-1,12
 75 395 75 395 29 395 c 1,13,-1
 29 442 l 1,14,-1
 203 450 l 1,0,-1
EndSplineSet
EndChar

StartChar: dotlessj
Encoding: 567 567 124
Width: 305
VWidth: 1000
Flags: W
HStem: -200 36<37.5891 108.151> 395 47<58 133.207>
VStem: -62 125<-156.24 -64.5647> 134 108<-124.677 393.062>
LayerCount: 2
Fore
SplineSet
58 442 m 1,0,-1
 242 450 l 1,1,-1
 242 -42 l 2,2,3
 242 -115 242 -115 190.5 -157.5 c 128,-1,4
 139 -200 139 -200 71 -200 c 0,5,6
 15 -200 15 -200 -23.5 -175.5 c 128,-1,7
 -62 -151 -62 -151 -62 -109 c 0,8,9
 -62 -82 -62 -82 -44.5 -64 c 128,-1,10
 -27 -46 -27 -46 1 -46 c 0,11,12
 28 -46 28 -46 45.5 -64 c 128,-1,13
 63 -82 63 -82 63 -108 c 0,14,15
 63 -142 63 -142 37 -159 c 1,16,17
 52 -164 52 -164 69 -164 c 0,18,19
 89 -164 89 -164 103 -151.5 c 128,-1,20
 117 -139 117 -139 123 -118.5 c 128,-1,21
 129 -98 129 -98 131.5 -80.5 c 128,-1,22
 134 -63 134 -63 134 -44 c 2,23,-1
 134 355 l 2,24,25
 134 368 134 368 133 374 c 128,-1,26
 132 380 132 380 127 385.5 c 128,-1,27
 122 391 122 391 112 393 c 0,28,29
 97 395 97 395 58 395 c 1,30,-1
 58 442 l 1,0,-1
EndSplineSet
EndChar

StartChar: hat
Encoding: 94 94 126
Width: 500
VWidth: 1000
Flags: W
HStem: 531 163
VStem: 110 279
LayerCount: 2
Fore
SplineSet
250 694 m 1,0,-1
 389 566 l 1,1,-1
 359 531 l 1,2,-1
 249 612 l 1,3,-1
 140 530 l 1,4,-1
 110 567 l 1,5,-1
 250 694 l 1,0,-1
EndSplineSet
EndChar

StartChar: accenthat
Encoding: 710 710 127
Width: 500
VWidth: 1000
Flags: W
HStem: 531 163
VStem: 110 279
LayerCount: 2
Fore
SplineSet
250 694 m 1,0,-1
 389 566 l 1,1,-1
 359 531 l 1,2,-1
 249 612 l 1,3,-1
 140 530 l 1,4,-1
 110 567 l 1,5,-1
 250 694 l 1,0,-1
EndSplineSet
EndChar

StartChar: combininghat
Encoding: 770 770 128
Width: 500
VWidth: 1000
Flags: W
HStem: 531 163
VStem: 110 279
LayerCount: 2
Fore
SplineSet
250 694 m 1,0,-1
 389 566 l 1,1,-1
 359 531 l 1,2,-1
 249 612 l 1,3,-1
 140 530 l 1,4,-1
 110 567 l 1,5,-1
 250 694 l 1,0,-1
EndSplineSet
EndChar

StartChar: accentcheck
Encoding: 711 711 129
Width: 500
VWidth: 1000
Flags: W
HStem: 518 134
VStem: 113 273
LayerCount: 2
Fore
SplineSet
250 599 m 1,0,-1
 362 652 l 1,1,-1
 386 612 l 1,2,-1
 249 518 l 1,3,-1
 113 612 l 1,4,-1
 137 652 l 1,5,-1
 250 599 l 1,0,-1
EndSplineSet
EndChar

StartChar: combiningcheck
Encoding: 780 780 130
Width: 500
VWidth: 1000
Flags: W
HStem: 518 134
VStem: 113 273
LayerCount: 2
Fore
SplineSet
250 599 m 1,0,-1
 362 652 l 1,1,-1
 386 612 l 1,2,-1
 249 518 l 1,3,-1
 113 612 l 1,4,-1
 137 652 l 1,5,-1
 250 599 l 1,0,-1
EndSplineSet
EndChar

StartChar: accentbar
Encoding: 713 713 131
Width: 500
VWidth: 1000
Flags: W
HStem: 555 52<69 430>
LayerCount: 2
Fore
SplineSet
430 555 m 1,0,-1
 69 555 l 1,1,-1
 69 607 l 1,2,-1
 430 607 l 1,3,-1
 430 555 l 1,0,-1
EndSplineSet
EndChar

StartChar: accentacute
Encoding: 714 714 132
Width: 500
VWidth: 1000
Flags: W
HStem: 511 195
VStem: 206 194
LayerCount: 2
Fore
SplineSet
368 595 m 2,0,-1
 239 511 l 1,1,-1
 206 544 l 1,2,-1
 290 676 l 2,3,4
 309 706 309 706 338 706 c 0,5,6
 362 706 362 706 381 687 c 128,-1,7
 400 668 400 668 400 644 c 0,8,9
 400 616 400 616 368 595 c 2,0,-1
EndSplineSet
EndChar

StartChar: accentgrave
Encoding: 715 715 133
Width: 500
VWidth: 1000
Flags: W
HStem: 511 195
VStem: 99 194
LayerCount: 2
Fore
SplineSet
211 673 m 2,0,-1
 293 544 l 1,1,-1
 260 511 l 1,2,-1
 131 595 l 2,3,4
 99 616 99 616 99 644 c 0,5,6
 99 668 99 668 118 687 c 128,-1,7
 137 706 137 706 161 706 c 0,8,9
 189 706 189 706 211 673 c 2,0,-1
EndSplineSet
EndChar

StartChar: accentbreve
Encoding: 728 728 134
Width: 500
VWidth: 1000
Flags: W
HStem: 507 62<180.222 318.231> 674 20G<93 129.5 369.5 406>
VStem: 93 36<626.721 694> 370 36<627.122 694>
LayerCount: 2
Fore
SplineSet
370 694 m 1,0,-1
 406 694 l 1,1,2
 404 609 404 609 358 558 c 128,-1,3
 312 507 312 507 250 507 c 0,4,5
 186 507 186 507 140.5 558.5 c 128,-1,6
 95 610 95 610 93 694 c 1,7,-1
 129 694 l 1,8,9
 130 637 130 637 166 603 c 128,-1,10
 202 569 202 569 250 569 c 0,11,12
 296 569 296 569 332.5 602.5 c 128,-1,13
 369 636 369 636 370 694 c 1,0,-1
EndSplineSet
EndChar

StartChar: accentdot
Encoding: 729 729 135
Width: 277
VWidth: 1000
Flags: W
HStem: 539 156<83.9175 193.083>
VStem: 60 157<563.236 670.764>
LayerCount: 2
Fore
SplineSet
217 617 m 0,0,1
 217 586 217 586 194.5 562.5 c 128,-1,2
 172 539 172 539 138 539 c 0,3,4
 106 539 106 539 83 562 c 128,-1,5
 60 585 60 585 60 617 c 0,6,7
 60 648 60 648 82.5 671.5 c 128,-1,8
 105 695 105 695 139 695 c 0,9,10
 171 695 171 695 194 672 c 128,-1,11
 217 649 217 649 217 617 c 0,0,1
EndSplineSet
EndChar

StartChar: accentring
Encoding: 730 730 136
Width: 755
VWidth: 1000
Flags: W
HStem: 535 36<327.564 427.948> 666 36<326.975 427.52>
VStem: 271 47<578.164 658.825> 437 47<578.32 658.987>
LayerCount: 2
Fore
SplineSet
484 619 m 0,0,1
 484 584 484 584 456.5 559.5 c 128,-1,2
 429 535 429 535 377 535 c 0,3,4
 327 535 327 535 299 559 c 128,-1,5
 271 583 271 583 271 619 c 0,6,7
 271 652 271 652 297.5 677 c 128,-1,8
 324 702 324 702 378 702 c 0,9,10
 430 702 430 702 457 677.5 c 128,-1,11
 484 653 484 653 484 619 c 0,0,1
378 571 m 128,-1,13
 413 571 413 571 425 580.5 c 128,-1,14
 437 590 437 590 437 619 c 128,-1,15
 437 648 437 648 424.5 657 c 128,-1,16
 412 666 412 666 377 666 c 128,-1,17
 342 666 342 666 330 656.5 c 128,-1,18
 318 647 318 647 318 618 c 128,-1,19
 318 589 318 589 330.5 580 c 128,-1,12
 343 571 343 571 378 571 c 128,-1,13
EndSplineSet
EndChar

StartChar: accenttilde
Encoding: 732 732 137
Width: 500
VWidth: 1000
Flags: W
HStem: 588 75<233.027 367.179> 619 75<131.821 265.973>
VStem: 83 333
LayerCount: 2
Fore
SplineSet
416 672 m 1,0,-1
 375 619 l 2,1,2
 352 588 352 588 312 588 c 0,3,4
 294 588 294 588 247 602 c 1,5,6
 196 619 196 619 174 619 c 0,7,8
 135 619 135 619 111 588 c 1,9,-1
 83 610 l 1,10,-1
 124 663 l 2,11,12
 147 694 147 694 187 694 c 0,13,14
 205 694 205 694 252 680 c 1,15,16
 303 663 303 663 325 663 c 0,17,18
 364 663 364 663 388 694 c 1,19,-1
 416 672 l 1,0,-1
EndSplineSet
EndChar

StartChar: accentdacute
Encoding: 733 733 138
Width: 500
VWidth: 1000
Flags: W
HStem: 517 195
VStem: 118 310
LayerCount: 2
Fore
SplineSet
240 608 m 2,0,-1
 160 517 l 1,1,-1
 118 538 l 1,2,-1
 140 658 l 2,3,4
 150 712 150 712 194 712 c 0,5,6
 219 712 219 712 240 694.5 c 128,-1,7
 261 677 261 677 261 653 c 0,8,9
 261 633 261 633 240 608 c 2,0,-1
285 538 m 1,10,-1
 307 658 l 2,11,12
 317 712 317 712 361 712 c 0,13,14
 386 712 386 712 407 694.5 c 128,-1,15
 428 677 428 677 428 653 c 0,16,17
 428 633 428 633 407 608 c 2,18,-1
 327 517 l 1,19,-1
 285 538 l 1,10,-1
EndSplineSet
EndChar

StartChar: combininggrave
Encoding: 768 768 139
Width: 500
VWidth: 1000
Flags: W
HStem: 511 195
VStem: 99 194
LayerCount: 2
Fore
SplineSet
211 673 m 2,0,-1
 293 544 l 1,1,-1
 260 511 l 1,2,-1
 131 595 l 2,3,4
 99 616 99 616 99 644 c 0,5,6
 99 668 99 668 118 687 c 128,-1,7
 137 706 137 706 161 706 c 0,8,9
 189 706 189 706 211 673 c 2,0,-1
EndSplineSet
EndChar

StartChar: combiningacute
Encoding: 769 769 140
Width: 500
VWidth: 1000
Flags: W
HStem: 511 195
VStem: 206 194
LayerCount: 2
Fore
SplineSet
368 595 m 2,0,-1
 239 511 l 1,1,-1
 206 544 l 1,2,-1
 290 676 l 2,3,4
 309 706 309 706 338 706 c 0,5,6
 362 706 362 706 381 687 c 128,-1,7
 400 668 400 668 400 644 c 0,8,9
 400 616 400 616 368 595 c 2,0,-1
EndSplineSet
EndChar

StartChar: combiningtilde
Encoding: 771 771 141
Width: 500
VWidth: 1000
Flags: W
HStem: 588 75<233.027 367.179> 619 75<131.821 265.973>
VStem: 83 333
LayerCount: 2
Fore
SplineSet
416 672 m 1,0,-1
 375 619 l 2,1,2
 352 588 352 588 312 588 c 0,3,4
 294 588 294 588 247 602 c 1,5,6
 196 619 196 619 174 619 c 0,7,8
 135 619 135 619 111 588 c 1,9,-1
 83 610 l 1,10,-1
 124 663 l 2,11,12
 147 694 147 694 187 694 c 0,13,14
 205 694 205 694 252 680 c 1,15,16
 303 663 303 663 325 663 c 0,17,18
 364 663 364 663 388 694 c 1,19,-1
 416 672 l 1,0,-1
EndSplineSet
EndChar

StartChar: combiningbar
Encoding: 772 772 142
Width: 500
VWidth: 1000
Flags: W
HStem: 555 52<69 430>
LayerCount: 2
Fore
SplineSet
430 555 m 1,0,-1
 69 555 l 1,1,-1
 69 607 l 1,2,-1
 430 607 l 1,3,-1
 430 555 l 1,0,-1
EndSplineSet
EndChar

StartChar: combiningbreve
Encoding: 774 774 143
Width: 500
VWidth: 1000
Flags: W
HStem: 507 62<180.222 318.231> 674 20G<93 129.5 369.5 406>
VStem: 93 36<626.721 694> 370 36<627.122 694>
LayerCount: 2
Fore
SplineSet
370 694 m 1,0,-1
 406 694 l 1,1,2
 404 609 404 609 358 558 c 128,-1,3
 312 507 312 507 250 507 c 0,4,5
 186 507 186 507 140.5 558.5 c 128,-1,6
 95 610 95 610 93 694 c 1,7,-1
 129 694 l 1,8,9
 130 637 130 637 166 603 c 128,-1,10
 202 569 202 569 250 569 c 0,11,12
 296 569 296 569 332.5 602.5 c 128,-1,13
 369 636 369 636 370 694 c 1,0,-1
EndSplineSet
EndChar

StartChar: combiningdot
Encoding: 775 775 144
Width: 277
VWidth: 1000
Flags: W
HStem: 539 156<83.9175 193.083>
VStem: 60 157<563.236 670.764>
LayerCount: 2
Fore
SplineSet
217 617 m 0,0,1
 217 586 217 586 194.5 562.5 c 128,-1,2
 172 539 172 539 138 539 c 0,3,4
 106 539 106 539 83 562 c 128,-1,5
 60 585 60 585 60 617 c 0,6,7
 60 648 60 648 82.5 671.5 c 128,-1,8
 105 695 105 695 139 695 c 0,9,10
 171 695 171 695 194 672 c 128,-1,11
 217 649 217 649 217 617 c 0,0,1
EndSplineSet
EndChar

StartChar: combiningddot
Encoding: 776 776 145
Width: 500
VWidth: 1000
Flags: W
HStem: 550 145<102.174 202.311 296.689 397.341>
VStem: 80 145<571.658 672.826> 274 145<571.143 672.826>
LayerCount: 2
Fore
SplineSet
225 622 m 0,0,1
 225 592 225 592 203.5 571 c 128,-1,2
 182 550 182 550 153 550 c 0,3,4
 122 550 122 550 101 572 c 128,-1,5
 80 594 80 594 80 622 c 0,6,7
 80 652 80 652 101.5 673.5 c 128,-1,8
 123 695 123 695 153 695 c 0,9,10
 181 695 181 695 203 674.5 c 128,-1,11
 225 654 225 654 225 622 c 0,0,1
419 622 m 0,12,13
 419 594 419 594 398 572 c 128,-1,14
 377 550 377 550 346 550 c 0,15,16
 318 550 318 550 296 570.5 c 128,-1,17
 274 591 274 591 274 623 c 0,18,19
 274 653 274 653 295.5 674 c 128,-1,20
 317 695 317 695 346 695 c 0,21,22
 377 695 377 695 398 673.5 c 128,-1,23
 419 652 419 652 419 622 c 0,12,13
EndSplineSet
EndChar

StartChar: combiningring
Encoding: 778 778 146
Width: 755
VWidth: 1000
Flags: W
HStem: 535 36<327.564 427.948> 666 36<326.975 427.52>
VStem: 271 47<578.164 658.825> 437 47<578.32 658.987>
LayerCount: 2
Fore
SplineSet
484 619 m 0,0,1
 484 584 484 584 456.5 559.5 c 128,-1,2
 429 535 429 535 377 535 c 0,3,4
 327 535 327 535 299 559 c 128,-1,5
 271 583 271 583 271 619 c 0,6,7
 271 652 271 652 297.5 677 c 128,-1,8
 324 702 324 702 378 702 c 0,9,10
 430 702 430 702 457 677.5 c 128,-1,11
 484 653 484 653 484 619 c 0,0,1
378 571 m 128,-1,13
 413 571 413 571 425 580.5 c 128,-1,14
 437 590 437 590 437 619 c 128,-1,15
 437 648 437 648 424.5 657 c 128,-1,16
 412 666 412 666 377 666 c 128,-1,17
 342 666 342 666 330 656.5 c 128,-1,18
 318 647 318 647 318 618 c 128,-1,19
 318 589 318 589 330.5 580 c 128,-1,12
 343 571 343 571 378 571 c 128,-1,13
EndSplineSet
EndChar

StartChar: combiningdacute
Encoding: 779 779 147
Width: 500
VWidth: 1000
Flags: W
HStem: 517 195
VStem: 118 310
LayerCount: 2
Fore
SplineSet
240 608 m 2,0,-1
 160 517 l 1,1,-1
 118 538 l 1,2,-1
 140 658 l 2,3,4
 150 712 150 712 194 712 c 0,5,6
 219 712 219 712 240 694.5 c 128,-1,7
 261 677 261 677 261 653 c 0,8,9
 261 633 261 633 240 608 c 2,0,-1
285 538 m 1,10,-1
 307 658 l 2,11,12
 317 712 317 712 361 712 c 0,13,14
 386 712 386 712 407 694.5 c 128,-1,15
 428 677 428 677 428 653 c 0,16,17
 428 633 428 633 407 608 c 2,18,-1
 327 517 l 1,19,-1
 285 538 l 1,10,-1
EndSplineSet
EndChar

StartChar: accentddot
Encoding: 168 168 148
Width: 500
VWidth: 1000
Flags: W
HStem: 550 145<102.174 202.311 296.689 397.341>
VStem: 80 145<571.658 672.826> 274 145<571.143 672.826>
LayerCount: 2
Fore
SplineSet
225 622 m 0,0,1
 225 592 225 592 203.5 571 c 128,-1,2
 182 550 182 550 153 550 c 0,3,4
 122 550 122 550 101 572 c 128,-1,5
 80 594 80 594 80 622 c 0,6,7
 80 652 80 652 101.5 673.5 c 128,-1,8
 123 695 123 695 153 695 c 0,9,10
 181 695 181 695 203 674.5 c 128,-1,11
 225 654 225 654 225 622 c 0,0,1
419 622 m 0,12,13
 419 594 419 594 398 572 c 128,-1,14
 377 550 377 550 346 550 c 0,15,16
 318 550 318 550 296 570.5 c 128,-1,17
 274 591 274 591 274 623 c 0,18,19
 274 653 274 653 295.5 674 c 128,-1,20
 317 695 317 695 346 695 c 0,21,22
 377 695 377 695 398 673.5 c 128,-1,23
 419 652 419 652 419 622 c 0,12,13
EndSplineSet
EndChar

StartChar: accentcedilla
Encoding: 184 184 149
Width: 444
VWidth: 1000
Flags: W
HStem: -199 36<109 250.229> -60 49<192 255.884>
VStem: 276 114<-143.894 -76.0746>
LayerCount: 2
Fore
SplineSet
306 -11 m 1,0,-1
 306 -33 l 1,1,2
 390 -52 390 -52 390 -111 c 0,3,4
 390 -199 390 -199 161 -199 c 2,5,-1
 109 -199 l 1,6,-1
 109 -163 l 1,7,-1
 140 -163 l 2,8,9
 276 -163 276 -163 276 -111 c 0,10,11
 276 -92 276 -92 256.5 -76.5 c 128,-1,12
 237 -61 237 -61 192 -60 c 1,13,-1
 192 -11 l 1,14,-1
 306 -11 l 1,0,-1
EndSplineSet
EndChar

StartChar: combiningcedilla
Encoding: 807 807 150
Width: 444
VWidth: 1000
Flags: W
HStem: -199 36<109 250.229> -60 49<192 255.884>
VStem: 276 114<-143.894 -76.0746>
LayerCount: 2
Fore
SplineSet
306 -11 m 1,0,-1
 306 -33 l 1,1,2
 390 -52 390 -52 390 -111 c 0,3,4
 390 -199 390 -199 161 -199 c 2,5,-1
 109 -199 l 1,6,-1
 109 -163 l 1,7,-1
 140 -163 l 2,8,9
 276 -163 276 -163 276 -111 c 0,10,11
 276 -92 276 -92 256.5 -76.5 c 128,-1,12
 237 -61 237 -61 192 -60 c 1,13,-1
 192 -11 l 1,14,-1
 306 -11 l 1,0,-1
EndSplineSet
EndChar

StartChar: backslash
Encoding: 92 92 151
Width: 500
VWidth: 1000
Flags: W
VStem: 56 62<722 741.233> 380 63<-241.233 -220>
LayerCount: 2
Fore
SplineSet
61 700 m 2,0,1
 56 713 56 713 56 719 c 0,2,3
 56 733 56 733 65.5 741.5 c 128,-1,4
 75 750 75 750 86 750 c 0,5,6
 108 750 108 750 118 722 c 2,7,-1
 438 -200 l 2,8,9
 443 -213 443 -213 443 -219 c 0,10,11
 443 -233 443 -233 433.5 -241.5 c 128,-1,12
 424 -250 424 -250 413 -250 c 0,13,14
 389 -250 389 -250 380 -220 c 1,15,-1
 61 700 l 2,0,1
EndSplineSet
EndChar
